<svg width="170" height="48" viewBox="0 0 170 48" fill="none" xmlns="http://www.w3.org/2000/svg">
<g clip-path="url(#clip0_345_1223)">
<path d="M49.8794 17.2914C50.7768 17.3248 51.4141 17.0976 52.162 16.9774C52.175 16.8838 52.2855 16.8905 52.3896 16.8972C52.6757 16.7769 52.9814 16.67 53.3 16.5832C53.3651 16.4696 53.5472 16.4696 53.6837 16.4295C54.8348 15.915 55.8623 15.2803 56.8833 14.6322C56.9028 14.4718 57.0849 14.4785 57.189 14.3983C57.6117 14.0509 58.0344 13.7034 58.4831 13.3827C58.5156 13.2825 58.5806 13.2224 58.7107 13.229C58.9383 12.8682 59.309 12.6477 59.6277 12.3671C60.1804 11.7324 60.7657 11.1377 61.377 10.5698C61.8127 10.0019 62.281 9.46734 62.7492 8.92614C62.8792 8.77247 62.9248 8.53861 63.1329 8.45843C63.2109 8.35153 63.2044 8.16445 63.3605 8.1444C63.3735 8.05754 63.445 8.02414 63.5101 7.99073C64.453 6.56088 65.2139 4.93728 66.7812 4.15554C66.7812 4.07536 66.7161 4.062 66.7031 4.00186C66.6576 4.00186 66.6121 3.9885 66.6251 3.92169C66.1764 3.78806 65.9618 3.40721 65.5586 3.22013V3.13995C65.448 3.09318 65.3765 3.01968 65.331 2.9061C64.8627 2.60543 64.4725 2.22458 64.0368 1.89051C63.8612 1.80365 63.7052 1.71011 63.5816 1.57647C63.1914 1.38271 62.8467 1.12881 62.437 0.948412C62.3915 0.841508 62.1444 0.93505 62.1314 0.794738C61.9948 0.754649 61.8127 0.754649 61.7477 0.641063C61.6892 0.621018 61.5981 0.641063 61.5981 0.560885C61.2795 0.520796 61.0323 0.40721 60.7592 0.327032C60.5641 0.293624 60.343 0.286943 60.2259 0.173357C60.0374 0.180038 59.8618 0.18672 59.7707 0.0931787C59.6146 0.0464081 59.27 0.18672 59.2375 0.0130005H57.332C57.2995 0.18672 56.9548 0.0464081 56.7988 0.0931787C56.22 0.23349 55.6672 0.393847 55.0494 0.487388C54.9844 0.600974 54.8023 0.600974 54.6657 0.641063C54.256 0.841508 53.8073 1.00855 53.3716 1.18895C53.209 1.33594 53.0074 1.44284 52.7603 1.50298C51.8563 2.06423 51.0369 2.70565 50.25 3.38048C49.9769 3.72792 49.6713 4.04195 49.3396 4.32258C48.5332 5.2914 47.8309 6.36712 47.2846 7.60988C47.2651 7.67002 47.2846 7.76356 47.2065 7.76356C46.9204 8.71901 46.6213 9.66779 46.5237 10.817V12.5408C46.4522 13.3159 46.6603 13.8103 46.6733 14.4985C46.7968 14.6322 46.7773 14.9128 46.8229 15.1266V15.2068C46.9139 15.2201 46.9074 15.3337 46.9009 15.4406C46.9724 15.621 47.0375 15.8281 47.0505 16.0687C47.109 16.0887 47.1415 16.1355 47.1285 16.2224C47.4797 15.8281 47.4667 15.0598 47.7398 14.5787C47.7788 14.4384 47.7788 14.2513 47.8959 14.1845C47.9349 13.9373 48.026 13.7502 48.1235 13.5564C48.143 13.4963 48.1235 13.4028 48.2015 13.4028C48.2536 13.1956 48.3186 13.0019 48.4292 12.8549C48.4487 12.7947 48.4291 12.7012 48.5072 12.7012C48.5657 12.4473 48.6698 12.2402 48.8128 12.0731C48.8323 12.013 48.8128 11.9195 48.8909 11.9195C48.8389 11.7057 49.0405 11.7591 49.0405 11.6054C48.9559 11.3783 48.9039 11.1177 48.8909 10.8237V10.67C48.7218 10.6366 48.8584 10.2825 48.8128 10.1221C48.6893 10.0152 48.6893 9.3738 48.8128 9.26022C48.8584 9.07313 48.7218 8.69229 48.8909 8.63215C48.9234 7.93728 49.125 7.41612 49.2746 6.83483C49.3851 6.63438 49.3981 6.34039 49.5802 6.20676C49.4892 6.45398 49.4957 6.79474 49.3526 6.9885C49.1965 7.74351 49.099 8.55198 49.125 9.49407C49.2941 9.50075 49.1575 9.82815 49.203 9.96177C49.2551 10.2491 49.3526 10.4896 49.3591 10.8237C50.107 10.0887 50.5817 9.05309 51.3361 8.31812C51.5572 8.02414 51.8108 7.76356 52.097 7.53639H52.1685C52.1685 7.48961 52.1815 7.44284 52.2465 7.45621C52.227 6.99518 52.3311 6.65443 52.3961 6.28026C52.4091 6.18672 52.3831 6.05977 52.4741 6.04641C52.5457 5.69897 52.8318 4.91055 53.0204 4.5297C53.0594 4.43616 53.0984 4.36935 53.144 4.33594C53.144 4.33594 53.157 4.32258 53.1635 4.32258C53.1635 4.32258 53.1505 4.32926 53.144 4.33594C53.1115 4.36267 53.0724 4.43616 53.0204 4.5297C52.8253 5.04418 52.7668 6.31367 52.7018 6.90164C52.8058 6.90164 52.8708 6.86823 52.9294 6.82146C53.5732 6.28026 54.23 5.7591 55.0624 5.41166C55.5892 5.22458 55.5892 4.48961 55.9729 4.16222C55.9924 4.10209 55.9729 4.00855 56.0509 4.00855C56.2655 3.57425 56.6297 3.30031 56.9678 2.99296C57.1304 2.89941 57.189 2.69897 57.4231 2.67892C57.3255 2.84596 57.202 2.97291 57.0459 3.06645C56.6557 3.31367 56.5126 3.82146 56.207 4.16222C56.2265 4.44284 56.0639 4.53639 56.0574 4.79028C56.1029 4.79028 56.1484 4.80365 56.1354 4.87046C56.5451 4.69006 56.9223 4.47625 57.4296 4.40276C57.4426 4.30921 57.5466 4.3159 57.6572 4.32258C58.0344 4.1689 58.4441 4.03527 58.9513 4.00855C59.1659 3.88828 59.4781 3.86823 59.7902 3.85487C60.2325 3.7346 60.7397 3.68115 61.312 3.7012C61.6697 3.5208 62.3525 3.67447 62.8337 3.62102C63.0613 3.72792 63.419 3.7012 63.7442 3.7012C64.1604 3.64106 64.336 3.82815 64.7327 3.78137C65.1879 3.78137 65.5976 3.82815 65.8707 4.01523C65.5195 3.96178 65.1944 3.94841 64.7327 3.86155H61.9168C61.8843 4.03527 61.5396 3.89496 61.3835 3.94173H61.2274C61.2404 4.10877 60.9543 3.97514 60.8503 4.02191C60.421 4.10209 60.0504 4.2424 59.5561 4.25576C59.4846 4.41612 59.1269 4.28249 59.1009 4.48961C59.257 4.53639 59.6016 4.38939 59.6342 4.56979C60.1934 4.56979 60.6552 4.67002 61.0063 4.88382C60.7007 4.91055 60.5836 4.74351 60.2455 4.80365H58.6457C58.262 4.80365 58.0149 4.93728 57.5791 4.88382C57.3645 5.03082 57.0784 5.09763 56.8183 5.19786C55.3486 5.87937 54.1129 6.80142 52.9359 7.77692C52.7018 8.03082 52.3766 8.3983 53.0139 8.17113C53.8658 7.93059 54.8088 7.77024 55.8298 7.70342C55.9143 7.57647 56.5061 7.57647 56.5907 7.70342H56.6687C57.0329 7.71679 57.3906 7.74351 57.6572 7.8571H56.207C55.186 7.95732 54.256 8.1444 53.3131 8.3248C53.2935 8.38494 53.248 8.41835 53.1635 8.40498C51.4661 8.71901 50.9979 10.3025 50.1135 11.4584C50.094 11.5186 50.1135 11.6121 50.0354 11.6188C49.8794 12.0063 49.6648 12.3337 49.5022 12.7146C49.8078 12.8482 50.3216 12.5141 50.7963 12.5609C50.9849 12.4406 51.2906 12.4406 51.5572 12.4072H52.0124C52.0254 12.2335 52.3376 12.3738 52.4676 12.327C52.7018 12.2001 53.4561 12.2001 53.6837 12.327H53.9113C54.3796 12.3938 54.9258 12.3805 55.2835 12.5609C54.6462 12.4807 53.9569 12.4673 53.2285 12.4807H53.0009C52.5002 12.5408 52.0514 12.6544 51.5507 12.7146C51.5377 12.8081 51.4271 12.8014 51.3231 12.7947C50.6467 12.9885 50.0354 13.2491 49.4176 13.4963C49.3981 13.5564 49.3526 13.5898 49.2681 13.5765C48.7348 14.0709 48.6763 15.0531 48.3511 15.768C48.2341 16.0887 48.2015 16.4963 48.0455 16.7836C48.0715 16.964 48.0325 17.0843 47.9674 17.1778C47.9674 17.258 48.0325 17.2714 48.0455 17.3315H49.8729L49.8794 17.2914Z" fill="#8DC63F"/>
<path fill-rule="evenodd" clip-rule="evenodd" d="M1.23565 25.4031C1.23565 25.4031 5.22861 13.0156 18.6187 10.1358C18.6187 10.1358 37.0552 7.6904 51.5639 17.5523C51.5639 17.5523 62.6388 23.9599 56.1226 35.1982C56.1226 35.1982 51.7069 43.9844 25.6291 47.873C25.6291 47.873 6.4252 49.8909 1.16411 37.6436C1.16411 37.6436 -1.5022 31.951 1.23565 25.4031Z" fill="#8DC63F"/>
<path fill-rule="evenodd" clip-rule="evenodd" d="M5.75536 20.9599C5.83991 20.813 5.92445 20.6726 6.00899 20.5257C6.82839 19.4833 8.63628 20.3386 8.41517 21.5746C8.23958 22.5502 7.19257 22.8842 6.47071 22.5836C6.35366 22.5034 6.2366 22.4299 6.11304 22.3497C5.73585 21.9488 5.6188 21.4811 5.74886 20.9533L5.75536 20.9599Z" fill="white"/>
<path fill-rule="evenodd" clip-rule="evenodd" d="M8.10317 17.3252C8.46085 16.3965 9.82652 17.4655 9.3778 18.1537C8.9746 18.7751 7.83004 18.0468 8.10317 17.3252Z" fill="white"/>
<path fill-rule="evenodd" clip-rule="evenodd" d="M7.23161 18.8686C7.51775 17.7394 9.27361 18.7216 8.49973 19.5635C8.08353 20.0178 7.04301 19.6036 7.23161 18.8686Z" fill="white"/>
<path fill-rule="evenodd" clip-rule="evenodd" d="M9.31244 16.5234C9.67011 15.441 10.7757 16.343 10.4895 17.0312C10.1644 17.8063 9.14986 17.245 9.31244 16.5234Z" fill="white"/>
<path fill-rule="evenodd" clip-rule="evenodd" d="M11.3285 15.6014C11.4261 15.6682 11.5236 15.7283 11.6212 15.7951C11.7447 16.0891 11.9333 16.3497 11.6667 16.6838C11.0359 17.4855 10.1515 15.4811 11.322 15.6014H11.3285Z" fill="white"/>
<path fill-rule="evenodd" clip-rule="evenodd" d="M16.8955 22.8776C16.772 23.0847 16.6549 23.2918 16.5314 23.4989C16.2647 23.7395 15.9786 23.9733 15.5754 23.8664C14.9901 23.7127 14.756 23.058 14.5414 22.637C14.3398 22.2428 14.1382 21.7484 13.8 21.4678C13.2342 21 12.688 21.1203 12.3303 21.3274C11.9076 21.568 11.6865 22.0691 11.2573 22.3898C10.2103 23.1649 8.8771 21.5813 8.72753 20.7862C8.59746 20.098 8.8706 19.2294 9.37785 18.5012C10.9126 16.2963 13.2082 16.8441 15.2372 18.8286C16.4988 20.0646 17.4613 21.3007 16.902 22.8776H16.8955Z" fill="white"/>
<path fill-rule="evenodd" clip-rule="evenodd" d="M15.5233 25.2294C15.4972 25.3764 15.4777 25.5234 15.4517 25.6704C15.4387 26.8597 17.3767 27.4543 17.975 26.5122C18.4432 25.7706 17.8449 24.8953 17.0905 24.6281C16.954 24.6013 16.8109 24.5813 16.6743 24.5546C16.1281 24.5746 15.7509 24.8085 15.5233 25.2294Z" fill="white"/>
<path fill-rule="evenodd" clip-rule="evenodd" d="M15.0874 29.0579C14.7818 29.8797 16.5116 30.0534 16.5897 29.3251C16.6612 28.6704 15.3216 28.4231 15.0874 29.0579Z" fill="white"/>
<path fill-rule="evenodd" clip-rule="evenodd" d="M15.3734 27.5145C14.8922 28.4299 16.8692 28.8976 16.7911 27.8619C16.7521 27.3074 15.6921 26.9198 15.3734 27.5145Z" fill="white"/>
<path fill-rule="evenodd" clip-rule="evenodd" d="M15.5296 30.3408C15.1329 31.2628 16.5506 31.3764 16.7587 30.755C16.9863 30.0468 15.8483 29.7662 15.5296 30.3408Z" fill="white"/>
<path fill-rule="evenodd" clip-rule="evenodd" d="M16.5182 32.2116C16.6353 32.2316 16.7523 32.2516 16.8694 32.2717C17.149 32.1581 17.4547 32.1113 17.4612 31.7238C17.4677 30.8084 15.5428 31.5434 16.5247 32.2116H16.5182Z" fill="white"/>
<path fill-rule="evenodd" clip-rule="evenodd" d="M25.369 31.0156C25.4016 30.8018 25.4406 30.5946 25.4731 30.3808C25.4146 30.0534 25.3365 29.726 24.9593 29.539C24.4066 29.265 23.8213 29.5456 23.3921 29.686C22.9889 29.8129 22.5271 30.0067 22.0914 29.9733C21.3631 29.9198 21.0119 29.4989 20.8623 29.1381C20.6867 28.7105 20.8233 28.2561 20.6867 27.775C20.3486 26.6125 18.3391 26.7995 17.7213 27.2138C17.1945 27.5746 16.8629 28.3162 16.8043 29.1047C16.6222 31.4966 18.7488 32.5924 21.5582 32.5857C23.3075 32.5857 24.8228 32.3853 25.369 31.0156Z" fill="white"/>
<path fill-rule="evenodd" clip-rule="evenodd" d="M27.3525 30.2004C27.4306 30.0869 27.5021 29.9799 27.5801 29.8664C28.289 29.0779 29.7002 29.853 29.4596 30.8352C29.271 31.6102 28.419 31.824 27.8533 31.5434C27.7622 31.4766 27.6712 31.4098 27.5801 31.3363C27.294 30.9955 27.229 30.6147 27.359 30.1938L27.3525 30.2004Z" fill="white"/>
<path fill-rule="evenodd" clip-rule="evenodd" d="M29.414 27.4076C29.7456 26.6793 30.7926 27.6081 30.3959 28.1426C30.0383 28.617 29.1603 27.9755 29.414 27.4076Z" fill="white"/>
<path fill-rule="evenodd" clip-rule="evenodd" d="M28.6403 28.6036C28.9264 27.7082 30.2856 28.5969 29.6223 29.2316C29.2646 29.5724 28.4517 29.1915 28.6403 28.6036Z" fill="white"/>
<path fill-rule="evenodd" clip-rule="evenodd" d="M30.422 26.833C30.7601 25.9844 31.6056 26.7661 31.3389 27.3007C31.0398 27.902 30.2529 27.4009 30.422 26.833Z" fill="white"/>
<path fill-rule="evenodd" clip-rule="evenodd" d="M32.0802 26.1982C32.1582 26.2517 32.2363 26.3118 32.3078 26.3653C32.3923 26.6058 32.5289 26.8263 32.3078 27.0802C31.7615 27.6882 31.1502 26.0379 32.0867 26.1916L32.0802 26.1982Z" fill="white"/>
<path fill-rule="evenodd" clip-rule="evenodd" d="M36.1971 32.3318C36.0865 32.4922 35.9825 32.6526 35.8719 32.8129C35.6443 32.9933 35.4037 33.1603 35.0916 33.0601C34.6233 32.9065 34.4738 32.3652 34.3242 32.0178C34.1811 31.6904 34.0445 31.2828 33.7844 31.0423C33.3552 30.6347 32.913 30.7015 32.6138 30.8485C32.2627 31.0223 32.0611 31.4098 31.6969 31.6436C30.819 32.2116 29.8305 30.8686 29.7459 30.2205C29.6744 29.6659 29.941 28.9777 30.3767 28.4232C31.7099 26.7394 33.5308 27.294 35.059 28.9978C36.0085 30.0534 36.7239 31.1024 36.1971 32.3318Z" fill="white"/>
<path fill-rule="evenodd" clip-rule="evenodd" d="M35.6508 34.2829C35.6313 34.4031 35.6118 34.5234 35.5923 34.637C35.5858 35.5924 37.1401 36.0668 37.6213 35.3118C37.9985 34.7172 37.5172 34.0089 36.9125 33.7951C36.8019 33.7751 36.6913 33.755 36.5743 33.735C36.1386 33.755 35.8329 33.9354 35.6508 34.2762V34.2829Z" fill="white"/>
<path fill-rule="evenodd" clip-rule="evenodd" d="M35.2995 37.3631C35.0589 38.0245 36.4441 38.1648 36.5091 37.5769C36.5676 37.049 35.4946 36.8486 35.2995 37.3631Z" fill="white"/>
<path fill-rule="evenodd" clip-rule="evenodd" d="M35.5272 36.1203C35.1435 36.8553 36.7303 37.2294 36.6653 36.4009C36.6328 35.9533 35.7808 35.6392 35.5272 36.1203Z" fill="white"/>
<path fill-rule="evenodd" clip-rule="evenodd" d="M35.6507 38.392C35.3321 39.1337 36.4701 39.2272 36.6392 38.7261C36.8213 38.1582 35.9108 37.931 35.6507 38.392Z" fill="white"/>
<path fill-rule="evenodd" clip-rule="evenodd" d="M36.4507 39.8953C36.5417 39.9154 36.6393 39.9287 36.7303 39.9488C36.9514 39.8552 37.1985 39.8151 37.205 39.5078C37.2115 38.7728 35.6638 39.3675 36.4507 39.8953Z" fill="white"/>
<path fill-rule="evenodd" clip-rule="evenodd" d="M43.5652 38.9332C43.5912 38.7661 43.6172 38.5924 43.6432 38.4254C43.5977 38.1648 43.5326 37.8975 43.2335 37.7506C42.7913 37.5301 42.3166 37.7506 41.9719 37.8641C41.6467 37.971 41.276 38.1247 40.9249 38.098C40.3396 38.0579 40.0599 37.7171 39.9364 37.4232C39.7933 37.0824 39.9104 36.7149 39.7933 36.3274C39.5267 35.392 37.9074 35.539 37.4131 35.8797C36.9904 36.167 36.7238 36.7617 36.6783 37.3964C36.5352 39.3207 38.2455 40.2027 40.5022 40.196C41.9068 40.196 43.1294 40.0356 43.5652 38.9332Z" fill="white"/>
<path fill-rule="evenodd" clip-rule="evenodd" d="M44.9109 38.0312C44.9694 37.9443 45.0279 37.8641 45.0865 37.7773C45.6262 37.1693 46.7123 37.7706 46.5302 38.5256C46.3871 39.1136 45.7303 39.2806 45.2946 39.0668C45.223 39.0133 45.158 38.9599 45.0865 38.9131C44.8719 38.6525 44.8198 38.3586 44.9174 38.0378L44.9109 38.0312Z" fill="white"/>
<path fill-rule="evenodd" clip-rule="evenodd" d="M46.4848 35.8931C46.7384 35.3385 47.5383 36.0468 47.2327 36.4544C46.9595 36.8152 46.2897 36.3274 46.4848 35.8931Z" fill="white"/>
<path fill-rule="evenodd" clip-rule="evenodd" d="M45.8931 36.8018C46.1142 36.1203 47.1547 36.8018 46.6475 37.2829C46.3743 37.5434 45.75 37.2495 45.8931 36.8018Z" fill="white"/>
<path fill-rule="evenodd" clip-rule="evenodd" d="M47.2584 35.4455C47.5185 34.7907 48.1623 35.392 47.9607 35.8063C47.7331 36.2673 47.1283 35.8864 47.2584 35.4455Z" fill="white"/>
<path fill-rule="evenodd" clip-rule="evenodd" d="M48.533 34.9644C48.5916 35.0111 48.6501 35.0512 48.7086 35.098C48.7737 35.2851 48.8777 35.4521 48.7086 35.6459C48.2924 36.1136 47.8242 34.8441 48.5396 34.9644H48.533Z" fill="white"/>
<path fill-rule="evenodd" clip-rule="evenodd" d="M51.6873 39.6615C51.6027 39.7817 51.5247 39.9087 51.4401 40.029C51.2646 40.1693 51.0825 40.2962 50.8419 40.216C50.4842 40.0958 50.3671 39.6815 50.2501 39.4143C50.1395 39.1604 50.0355 38.853 49.8339 38.6659C49.5022 38.3519 49.164 38.4054 48.9364 38.5189C48.6698 38.6526 48.5137 38.9466 48.2341 39.127C47.5577 39.5613 46.8034 38.5323 46.7383 38.0379C46.6798 37.6102 46.8879 37.0824 47.2261 36.6615C48.2471 35.3719 49.6453 35.7996 50.8158 37.1025C51.5442 37.9109 52.0905 38.7127 51.6873 39.6615Z" fill="white"/>
<path d="M66.918 38.4588C66.8724 38.6993 66.7749 38.9131 66.6383 39.0868C66.4757 39.2739 66.2742 39.4209 66.04 39.5211C65.8189 39.6214 65.5783 39.6681 65.3182 39.6681C64.8955 39.6681 64.5378 39.5345 64.2452 39.2672C63.946 39.0067 63.7574 38.6659 63.6924 38.245H64.1086C64.1671 38.559 64.3167 38.8129 64.5508 39C64.7784 39.1937 65.0515 39.2873 65.3702 39.2873C65.6108 39.2873 65.8319 39.2205 66.027 39.0802C66.2286 38.9465 66.3717 38.7661 66.4627 38.5523C66.4953 38.4521 66.5148 38.3385 66.5278 38.1982C66.5278 38.118 66.5278 37.9978 66.5278 37.8374V33.588H66.97V37.7439C66.97 38.0378 66.9505 38.2784 66.918 38.4521V38.4588Z" fill="#939598"/>
<path d="M67.8218 33.5947H71.7432V34.0022H68.238V36.2405H71.5351V36.6281H68.238V39.1537H71.7952V39.5613H67.8218V33.5947Z" fill="#939598"/>
<path d="M74.8389 38.4588C74.7933 38.6993 74.6958 38.9131 74.5592 39.0868C74.3966 39.2739 74.1951 39.4209 73.9609 39.5211C73.7398 39.6214 73.4992 39.6681 73.2391 39.6681C72.8164 39.6681 72.4587 39.5345 72.1661 39.2672C71.8669 39.0067 71.6783 38.6659 71.6133 38.245H72.0295C72.088 38.559 72.2376 38.8129 72.4717 39C72.6993 39.1937 72.9724 39.2873 73.2911 39.2873C73.5317 39.2873 73.7528 39.2205 73.9479 39.0802C74.1495 38.9465 74.2926 38.7661 74.3836 38.5523C74.4162 38.4521 74.4357 38.3385 74.4487 38.1982C74.4487 38.118 74.4487 37.9978 74.4487 37.8374V33.588H74.8909V37.7439C74.8909 38.0378 74.8714 38.2784 74.8389 38.4521V38.4588Z" fill="#939598"/>
<path d="M78.5328 39.441C78.2467 39.5813 77.9541 39.6548 77.6354 39.6548C77.3167 39.6548 77.0241 39.588 76.751 39.461C76.4648 39.3341 76.2307 39.1537 76.0486 38.9198C75.847 38.6793 75.717 38.3987 75.6454 38.078C75.5934 37.8374 75.5674 37.5167 75.5674 37.1158V33.5947H75.9901V37.1158C75.9901 37.4031 76.0031 37.637 76.0356 37.8307C76.0811 38.098 76.1722 38.3319 76.3087 38.5256C76.4388 38.7528 76.6274 38.9332 76.868 39.0535C77.1021 39.1804 77.3623 39.2472 77.6419 39.2472C77.8825 39.2472 78.1166 39.1938 78.3377 39.0802C78.5719 38.9599 78.7605 38.8062 78.91 38.6192C79.0596 38.412 79.1637 38.1648 79.2287 37.8842C79.2742 37.6771 79.3002 37.4165 79.3002 37.1158V33.5947H79.7164V37.1158C79.7164 37.49 79.6839 37.7973 79.6254 38.0446C79.5538 38.3586 79.4303 38.6325 79.2547 38.8731C79.0661 39.1203 78.832 39.314 78.5393 39.4477L78.5328 39.441Z" fill="#939598"/>
<path d="M82.519 33.5947H86.4405V34.0022H82.9352V36.2405H86.2324V36.6281H82.9352V39.1537H86.4925V39.5613H82.519V33.5947Z" fill="#939598"/>
<path d="M87.5524 38.7862C86.9736 38.1982 86.6875 37.4766 86.6875 36.6147C86.6875 35.7528 86.9736 35.0646 87.5524 34.4766C88.1312 33.8887 88.827 33.5947 89.6399 33.5947C89.9261 33.5947 90.2122 33.6348 90.4984 33.7149C90.7845 33.8018 91.0446 33.9287 91.2918 34.0958C91.4543 34.2027 91.6104 34.3296 91.76 34.4766C91.9356 34.657 92.0851 34.8508 92.2217 35.0512H91.734C91.4934 34.7038 91.1812 34.4365 90.791 34.2495C90.4268 34.0757 90.0496 33.9889 89.6399 33.9889C88.9441 33.9889 88.3328 34.2495 87.8256 34.7773C87.3248 35.2985 87.0777 35.9065 87.0777 36.608C87.0777 37.3096 87.3378 37.9577 87.8516 38.4855C88.3653 39.0134 88.9701 39.274 89.679 39.274C90.0757 39.274 90.4593 39.1737 90.83 38.98C91.1877 38.7862 91.4934 38.5256 91.76 38.1849H92.2282C91.9226 38.6459 91.5389 39.0067 91.0902 39.274C90.6414 39.5412 90.1732 39.6748 89.692 39.6748C88.8466 39.6748 88.1377 39.3809 87.5524 38.7929V38.7862Z" fill="#939598"/>
<path d="M93.1191 38.7461C92.5208 38.1514 92.2217 37.4432 92.2217 36.6214C92.2217 35.7995 92.5143 35.0445 93.0996 34.4565C93.6849 33.8686 94.3937 33.5746 95.2327 33.5746C96.0716 33.5746 96.7479 33.8619 97.3397 34.4365C97.951 35.0245 98.2501 35.7327 98.2501 36.5612C98.2501 37.3897 97.951 38.1314 97.3527 38.726C96.7609 39.3207 96.0521 39.6147 95.2262 39.6147C94.4002 39.6147 93.7109 39.3207 93.1126 38.7394L93.1191 38.7461ZM93.3988 34.7238C92.8785 35.2516 92.6184 35.8797 92.6184 36.6147C92.6184 37.3496 92.8785 37.951 93.4053 38.4588C93.9255 38.9732 94.5368 39.2271 95.2392 39.2271C95.9415 39.2271 96.5658 38.9666 97.0731 38.4454C97.5933 37.9243 97.8469 37.2962 97.8469 36.5545C97.8469 35.8129 97.5803 35.2116 97.0536 34.6971C96.5398 34.196 95.935 33.9421 95.2392 33.9421C94.5433 33.9421 93.9125 34.196 93.3988 34.7104V34.7238Z" fill="#939598"/>
<path d="M99.9283 39.5613H99.4861V33.9555H97.9839V33.5813H101.398V33.9555H99.9283V39.5613Z" fill="#939598"/>
<path d="M102.035 38.7461C101.437 38.1514 101.138 37.4432 101.138 36.6214C101.138 35.7995 101.43 35.0445 102.016 34.4565C102.601 33.8686 103.31 33.5746 104.149 33.5746C104.988 33.5746 105.664 33.8619 106.256 34.4365C106.867 35.0245 107.166 35.7327 107.166 36.5612C107.166 37.3897 106.867 38.1314 106.269 38.726C105.677 39.3207 104.968 39.6147 104.149 39.6147C103.329 39.6147 102.633 39.3207 102.035 38.7394V38.7461ZM102.315 34.7238C101.795 35.2516 101.534 35.8797 101.534 36.6147C101.534 37.3496 101.795 37.951 102.321 38.4588C102.842 38.9732 103.453 39.2271 104.155 39.2271C104.858 39.2271 105.482 38.9666 105.989 38.4454C106.509 37.9243 106.769 37.2962 106.769 36.5545C106.769 35.8129 106.503 35.2116 105.976 34.6971C105.462 34.196 104.858 33.9421 104.162 33.9421C103.466 33.9421 102.835 34.196 102.321 34.7104L102.315 34.7238Z" fill="#939598"/>
<path d="M110.346 39.441C110.06 39.5813 109.767 39.6548 109.455 39.6548C109.143 39.6548 108.844 39.588 108.571 39.461C108.285 39.3341 108.051 39.1537 107.868 38.9198C107.667 38.6793 107.537 38.3987 107.465 38.078C107.413 37.8374 107.387 37.5167 107.387 37.1158V33.5947H107.81V37.1158C107.81 37.4031 107.823 37.637 107.855 37.8307C107.901 38.098 107.992 38.3319 108.129 38.5256C108.259 38.7528 108.447 38.9332 108.688 39.0535C108.922 39.1804 109.182 39.2472 109.468 39.2472C109.709 39.2472 109.943 39.1938 110.164 39.0802C110.398 38.9599 110.587 38.8062 110.73 38.6192C110.879 38.412 110.983 38.1648 111.048 37.8842C111.094 37.6771 111.12 37.4165 111.12 37.1158V33.5947H111.536V37.1158C111.536 37.49 111.504 37.7973 111.445 38.0446C111.374 38.3586 111.25 38.6325 111.075 38.8731C110.886 39.1203 110.652 39.314 110.359 39.4477L110.346 39.441Z" fill="#939598"/>
<path d="M116.115 39.5746H115.588L113.572 36.8552H113.708C113.995 36.8552 114.216 36.8552 114.359 36.8486C114.599 36.8285 114.814 36.7884 114.99 36.7216C115.276 36.5947 115.497 36.4143 115.659 36.1804C115.828 35.9399 115.913 35.6793 115.913 35.392C115.913 35.1715 115.848 34.9577 115.724 34.7506C115.601 34.5501 115.438 34.3831 115.237 34.2494C115.055 34.1292 114.833 34.049 114.58 34.0156C114.424 33.9889 114.19 33.9755 113.878 33.9755H113.721L112.603 33.9822V39.5679H112.18V33.588H113.689C114.066 33.5813 114.352 33.588 114.547 33.6147C114.872 33.6548 115.146 33.735 115.367 33.8552C115.672 34.0223 115.907 34.2361 116.069 34.4967C116.232 34.7639 116.31 35.0713 116.31 35.4254C116.31 35.8931 116.134 36.3007 115.776 36.6414C115.406 36.9956 114.918 37.1893 114.313 37.2361L116.115 39.5679V39.5746Z" fill="#939598"/>
<path d="M122.202 37.5099H119.464L118.644 39.5678H118.202L120.66 33.4943H121.057L123.47 39.5678H123.028L122.208 37.5099H122.202ZM119.626 37.109H122.046L120.868 34.0421L119.62 37.109H119.626Z" fill="#939598"/>
<path d="M124.439 39.2205C124.075 38.9198 123.873 38.5256 123.834 38.0445H124.257C124.309 38.4053 124.471 38.6993 124.744 38.9332C125.018 39.1737 125.336 39.294 125.7 39.294C126.104 39.294 126.448 39.167 126.728 38.9131C127.021 38.6525 127.17 38.3318 127.17 37.9577C127.17 37.7706 127.125 37.5902 127.034 37.4165C126.943 37.2427 126.825 37.1024 126.682 36.9888C126.533 36.8686 126.351 36.775 126.143 36.6949C126.019 36.6548 125.83 36.5946 125.564 36.5278C125.317 36.4677 125.135 36.4142 125.011 36.3675C124.816 36.294 124.66 36.2004 124.53 36.1002C124.361 35.9666 124.237 35.8062 124.153 35.6191C124.068 35.4321 124.029 35.2383 124.029 35.0245C124.029 34.5635 124.192 34.1893 124.523 33.902C124.855 33.6214 125.265 33.4877 125.759 33.4877C126.182 33.4877 126.546 33.6147 126.864 33.8753C127.177 34.1492 127.359 34.4966 127.404 34.9243H127.008C126.943 34.5902 126.786 34.3229 126.546 34.1292C126.299 33.9354 126.006 33.8419 125.668 33.8419C125.31 33.8419 125.018 33.9621 124.777 34.196C124.549 34.4298 124.432 34.7171 124.432 35.0512C124.432 35.4053 124.569 35.6793 124.848 35.8664C125.037 36 125.356 36.1269 125.804 36.2472H125.856C126.13 36.3274 126.325 36.3808 126.455 36.4343C126.663 36.5145 126.851 36.6214 127.014 36.7617C127.183 36.9087 127.32 37.0891 127.424 37.3029C127.528 37.5167 127.58 37.7439 127.58 37.9777C127.58 38.4387 127.391 38.8396 127.008 39.1737C126.643 39.5011 126.208 39.6681 125.713 39.6681C125.219 39.6681 124.783 39.5211 124.432 39.2338L124.439 39.2205Z" fill="#939598"/>
<path d="M128.848 39.2205C128.484 38.9198 128.282 38.5256 128.243 38.0445H128.666C128.718 38.4053 128.88 38.6993 129.154 38.9332C129.427 39.1737 129.745 39.294 130.11 39.294C130.513 39.294 130.857 39.167 131.137 38.9131C131.43 38.6525 131.579 38.3318 131.579 37.9577C131.579 37.7706 131.534 37.5902 131.443 37.4165C131.352 37.2427 131.235 37.1024 131.092 36.9888C130.942 36.8686 130.76 36.775 130.552 36.6949C130.428 36.6548 130.24 36.5946 129.973 36.5278C129.726 36.4677 129.544 36.4142 129.42 36.3675C129.225 36.294 129.069 36.2004 128.939 36.1002C128.77 35.9666 128.646 35.8062 128.562 35.6191C128.477 35.4321 128.438 35.2383 128.438 35.0245C128.438 34.5635 128.601 34.1893 128.933 33.902C129.264 33.6214 129.674 33.4877 130.168 33.4877C130.591 33.4877 130.955 33.6147 131.274 33.8753C131.586 34.1492 131.768 34.4966 131.813 34.9243H131.417C131.352 34.5902 131.196 34.3229 130.955 34.1292C130.708 33.9354 130.415 33.8419 130.077 33.8419C129.719 33.8419 129.427 33.9621 129.18 34.196C128.952 34.4298 128.835 34.7171 128.835 35.0512C128.835 35.4053 128.972 35.6793 129.251 35.8664C129.44 36 129.758 36.1269 130.207 36.2472H130.259C130.532 36.3274 130.727 36.3808 130.857 36.4343C131.066 36.5145 131.254 36.6214 131.417 36.7617C131.586 36.9087 131.722 37.0891 131.826 37.3029C131.93 37.5167 131.983 37.7439 131.983 37.9777C131.983 38.4387 131.794 38.8396 131.41 39.1737C131.046 39.5011 130.61 39.6681 130.116 39.6681C129.622 39.6681 129.186 39.5211 128.835 39.2338L128.848 39.2205Z" fill="#939598"/>
<path d="M133.459 38.7461C132.861 38.1514 132.568 37.4432 132.568 36.6214C132.568 35.7995 132.861 35.0445 133.446 34.4565C134.031 33.8686 134.74 33.5746 135.579 33.5746C136.418 33.5746 137.094 33.8619 137.686 34.4365C138.297 35.0245 138.596 35.7327 138.596 36.5612C138.596 37.3897 138.297 38.1314 137.699 38.726C137.107 39.3207 136.398 39.6147 135.579 39.6147C134.759 39.6147 134.064 39.3207 133.465 38.7394L133.459 38.7461ZM133.738 34.7238C133.218 35.2516 132.965 35.8797 132.965 36.6147C132.965 37.3496 133.225 37.951 133.751 38.4588C134.272 38.9732 134.883 39.2271 135.585 39.2271C136.288 39.2271 136.912 38.9666 137.419 38.4454C137.94 37.9243 138.2 37.2962 138.2 36.5545C138.2 35.8129 137.933 35.2116 137.406 34.6971C136.892 34.196 136.288 33.9421 135.592 33.9421C134.896 33.9421 134.265 34.196 133.751 34.7104L133.738 34.7238Z" fill="#939598"/>
<path d="M140.027 38.7862C139.448 38.1982 139.162 37.4766 139.162 36.6147C139.162 35.7528 139.448 35.0646 140.027 34.4766C140.606 33.8887 141.302 33.5947 142.115 33.5947C142.401 33.5947 142.687 33.6348 142.973 33.7149C143.259 33.8018 143.519 33.9287 143.766 34.0958C143.929 34.2027 144.085 34.3296 144.235 34.4766C144.41 34.657 144.56 34.8508 144.696 35.0512H144.209C143.968 34.7038 143.656 34.4365 143.272 34.2495C142.908 34.0757 142.531 33.9889 142.128 33.9889C141.425 33.9889 140.82 34.2495 140.313 34.7773C139.812 35.2985 139.565 35.9065 139.565 36.608C139.565 37.3096 139.825 37.9577 140.346 38.4855C140.859 39.0134 141.464 39.274 142.173 39.274C142.57 39.274 142.953 39.1737 143.318 38.98C143.675 38.7862 143.981 38.5256 144.248 38.1849H144.716C144.41 38.6459 144.026 39.0067 143.578 39.274C143.129 39.5412 142.661 39.6748 142.18 39.6748C141.334 39.6748 140.625 39.3809 140.04 38.7929L140.027 38.7862Z" fill="#939598"/>
<path d="M145.906 33.588H146.328V39.5746H145.906V33.588Z" fill="#939598"/>
<path d="M151.265 37.5099H148.527L147.707 39.5678H147.265L149.723 33.4943H150.12L152.533 39.5678H152.091L151.271 37.5099H151.265ZM148.689 37.109H151.109L149.931 34.0421L148.683 37.109H148.689Z" fill="#939598"/>
<path d="M154.562 39.5613H154.119V33.9555H152.617V33.5813H156.031V33.9555H154.562V39.5613Z" fill="#939598"/>
<path d="M156.98 33.588H157.403V39.5746H156.98V33.588Z" fill="#939598"/>
<path d="M159.432 38.7461C158.834 38.1514 158.542 37.4432 158.542 36.6214C158.542 35.7995 158.834 35.0445 159.419 34.4565C160.005 33.8686 160.714 33.5746 161.552 33.5746C162.391 33.5746 163.068 33.8619 163.66 34.4365C164.271 35.0245 164.57 35.7327 164.57 36.5612C164.57 37.3897 164.271 38.1314 163.673 38.726C163.081 39.3207 162.372 39.6147 161.552 39.6147C160.733 39.6147 160.037 39.3207 159.439 38.7394L159.432 38.7461ZM159.712 34.7238C159.192 35.2516 158.938 35.8797 158.938 36.6147C158.938 37.3496 159.198 37.951 159.725 38.4588C160.245 38.9732 160.857 39.2271 161.559 39.2271C162.261 39.2271 162.886 38.9666 163.393 38.4454C163.913 37.9243 164.173 37.2962 164.173 36.5545C164.173 35.8129 163.907 35.2116 163.38 34.6971C162.866 34.196 162.261 33.9421 161.565 33.9421C160.87 33.9421 160.239 34.196 159.725 34.7104L159.712 34.7238Z" fill="#939598"/>
<path d="M165.929 34.196V39.5612H165.506V33.5746H166.014L169.584 38.8864V33.5746H170.007V39.5612H169.538L165.936 34.196H165.929Z" fill="#939598"/>
<path d="M81.2254 21.1336L78.7997 26.1848L78.2339 25.8574L80.9067 20.4187H78.455V19.7639H84.0542V20.4187H81.531L84.1778 25.6837L83.625 26.0245L81.2254 21.1269V21.1336ZM85.589 22.6303H83.4169V22.0022H85.589V18.6882H86.2523V29.6191H85.589V22.6303ZM87.8781 18.6013H88.5675V29.686H87.8781V18.6013Z" fill="#58B7DD"/>
<path d="M95.2788 29.8396H94.583V25.8441H88.8472V25.1893H100.761V25.8441H95.2788V29.8396ZM95.0122 20.2049L91.3834 23.6058L90.9152 23.1648L94.3619 19.9644H91.0518V19.3363H98.7971V19.9644H95.6495L98.9206 22.9844L98.4784 23.4254L95.0122 20.2049Z" fill="#58B7DD"/>
<path d="M103.564 20.5189L101.431 24.9621L100.865 24.6614L103.551 19.2227L106.393 24.5746L105.827 24.8886L103.571 20.5189H103.564ZM106.569 31.0356C106.211 30.6748 106.029 30.2405 106.029 29.7394C106.029 29.2383 106.211 28.824 106.569 28.4766C106.939 28.1291 107.375 27.9487 107.889 27.9487C108.402 27.9487 108.832 28.1291 109.202 28.4766C109.56 28.8173 109.742 29.2383 109.742 29.7394C109.742 30.2405 109.56 30.6748 109.202 31.0356C108.845 31.3897 108.402 31.5634 107.889 31.5634C107.375 31.5634 106.933 31.3897 106.569 31.0356ZM107.03 28.9175C106.79 29.1447 106.673 29.4187 106.673 29.7394C106.673 30.0601 106.79 30.3407 107.03 30.5812C107.258 30.8084 107.544 30.922 107.889 30.922C108.233 30.922 108.513 30.8084 108.747 30.5812C108.988 30.3541 109.111 30.0734 109.111 29.7394C109.111 29.4053 108.988 29.1314 108.747 28.9175C108.513 28.6904 108.233 28.5768 107.889 28.5768C107.544 28.5768 107.258 28.6904 107.03 28.9175ZM110.314 21.9287H108.389V27.0534H107.739V18.6681H108.389V21.3006H110.314V18.5946H110.991V27.4209H110.314V21.9287Z" fill="#58B7DD"/>
<path d="M121.76 22.7706H119.835V29.6191H119.158V25.8908H112.844V19.7706H117.162V20.4253H113.494V22.2761H117.097V22.9175H113.494V25.2494H119.158V18.6748H119.835V22.1358H121.76V18.608H122.41V29.6926H121.76V22.7772V22.7706Z" fill="#58B7DD"/>
<path d="M132.906 28.677H132.256V25.49H123.255V24.8619H125.707V21.7416H126.383V24.8619H132.256V18.6013H132.906V21.1537H135.82V21.8084H132.906V28.6837V28.677ZM129.251 20.0646H124.361V19.4231H129.928V23.9933H129.251V20.0646ZM126.006 26.9398H126.657V30.6548H133.498V31.2828L126.006 31.2962V26.9398Z" fill="#58B7DD"/>
<path d="M145.314 27.7082H144.664V25.49H135.657V24.8619H138.109V21.7416H138.785V24.8619H144.658V18.6013H145.308V21.1537H148.215V21.8084H145.308V27.7149L145.314 27.7082ZM141.66 20.0646H136.769V19.4231H142.336V23.8463H141.66V20.0579V20.0646ZM141.035 31.0356C140.665 30.6748 140.483 30.2405 140.483 29.7394C140.483 29.2383 140.665 28.824 141.035 28.4766C141.393 28.1292 141.829 27.9488 142.336 27.9488C142.843 27.9488 143.298 28.1292 143.669 28.4766C144.027 28.8174 144.209 29.2383 144.209 29.7394C144.209 30.2405 144.027 30.6882 143.669 31.0356C143.298 31.3897 142.856 31.5635 142.336 31.5635C141.816 31.5635 141.393 31.3897 141.035 31.0356ZM141.478 28.9176C141.237 29.1447 141.113 29.4187 141.113 29.7394C141.113 30.0601 141.237 30.3407 141.478 30.5813C141.718 30.8218 142.004 30.9354 142.336 30.9354C142.687 30.9354 142.986 30.8151 143.227 30.5813C143.474 30.3541 143.604 30.0735 143.604 29.7394C143.604 29.4053 143.481 29.1447 143.227 28.9176C142.986 28.6904 142.687 28.5768 142.336 28.5768C142.004 28.5768 141.718 28.6904 141.478 28.9176Z" fill="#58B7DD"/>
<path d="M152.357 21.8018C152.702 21.8753 152.982 22.0557 153.203 22.3296C153.431 22.6035 153.548 22.9309 153.548 23.3118C153.548 23.7327 153.398 24.0868 153.092 24.3808C152.787 24.6815 152.429 24.8352 152.013 24.8352C151.597 24.8352 151.226 24.6815 150.933 24.3808C150.647 24.0868 150.504 23.7327 150.504 23.3118C150.504 22.9309 150.615 22.6035 150.836 22.3296C151.063 22.0557 151.362 21.8753 151.72 21.8018V20.9799H148.742V20.3519H151.72V18.461H152.357V20.3519H155.401V20.9799H152.357V21.8018ZM151.375 22.657C151.213 22.824 151.128 23.0445 151.128 23.3118C151.128 23.5523 151.213 23.7594 151.375 23.9398C151.551 24.1202 151.766 24.2071 152.013 24.2071C152.26 24.2071 152.468 24.1202 152.65 23.9398C152.832 23.7594 152.923 23.5523 152.923 23.3118C152.923 23.0579 152.832 22.8374 152.65 22.657C152.462 22.4833 152.253 22.4031 152.013 22.4031C151.772 22.4031 151.551 22.49 151.375 22.657ZM151.447 26.4387H152.097V28.3162H157.749V24.4476H154.686V23.8196H157.749V22.5568H154.686V21.9287H157.749V18.5946H158.425V31.2895H151.441V26.4387H151.447ZM152.097 28.9577V30.6481H157.749V28.9577H152.097Z" fill="#58B7DD"/>
<path d="M168.771 27.3341H159.491V26.6793H163.244V24.3741C162.899 24.2873 162.619 24.1136 162.398 23.8463C162.164 23.559 162.053 23.245 162.053 22.8908C162.053 22.51 162.171 22.1759 162.398 21.8953C162.626 21.608 162.925 21.4343 163.283 21.3675V20.6993H160.304V20.0579H163.283V18.461H163.92V20.0579H166.937V20.6993H163.92V21.3675C164.252 21.441 164.531 21.6214 164.752 21.8953C164.98 22.1759 165.097 22.51 165.097 22.8908C165.097 23.245 164.986 23.559 164.752 23.8463C164.531 24.1136 164.252 24.2873 163.92 24.3741V26.6793H168.765V18.5946H169.448V29.6793H168.765V27.3341H168.771ZM162.938 22.2427C162.762 22.4231 162.678 22.6436 162.678 22.8975C162.678 23.1314 162.769 23.3385 162.938 23.5122C163.113 23.6926 163.335 23.7795 163.588 23.7795C163.829 23.7795 164.043 23.6926 164.226 23.5122C164.401 23.3385 164.492 23.1381 164.492 22.8975C164.492 22.6436 164.401 22.4231 164.226 22.2427C164.05 22.0623 163.835 21.9755 163.588 21.9755C163.341 21.9755 163.113 22.069 162.938 22.2427Z" fill="#58B7DD"/>
<path d="M63.1072 26.5924C63.3023 27.3207 63.608 28.0623 64.0372 28.8107L63.5169 29.1314C63.0877 28.363 62.7561 27.5746 62.5284 26.7661C62.3073 25.951 62.1968 25.1425 62.1968 24.3274C62.1968 23.5122 62.3073 22.6503 62.5349 21.8084C62.7561 20.9733 63.0812 20.1648 63.5234 19.3697L64.0502 19.6904C63.6275 20.4721 63.3153 21.2405 63.1137 21.9822C62.9121 22.7372 62.8146 23.5189 62.8146 24.3274C62.8146 25.1358 62.9121 25.8708 63.1007 26.5857L63.1072 26.5924Z" fill="#58B7DD"/>
<path d="M67.1848 21.7483L64.5575 26.5256L63.8682 26.0713L67.1848 20.0713L70.4494 25.8441L69.7405 26.3586L67.1913 21.7416L67.1848 21.7483ZM71.6655 19.6169H72.5694V23.0445H75.0602V23.9131H72.5694V29.4989H71.6655V19.6102V19.6169Z" fill="#58B7DD"/>
<path d="M74.7609 28.8106C75.1706 28.0623 75.4762 27.3207 75.6778 26.5924C75.8729 25.8775 75.9705 25.1224 75.9705 24.334C75.9705 23.5456 75.8664 22.7438 75.6583 21.9888C75.4567 21.2405 75.1511 20.4721 74.7349 19.6971L75.2616 19.3763C75.6908 20.1714 76.016 20.9799 76.2371 21.8151C76.4712 22.657 76.5883 23.4922 76.5883 24.334C76.5883 25.1759 76.4712 25.9576 76.2501 26.7728C76.029 27.5812 75.7103 28.363 75.2876 29.138L74.7674 28.8173L74.7609 28.8106Z" fill="#58B7DD"/>
</g>
<defs>
<clipPath id="clip0_345_1223">
<rect width="170" height="48" fill="white"/>
</clipPath>
</defs>
</svg>
