<svg width="200" height="34" viewBox="0 0 200 34" fill="none" xmlns="http://www.w3.org/2000/svg">
<g clip-path="url(#clip0_345_1125)">
<path d="M60.9816 9.53368L65.4433 9.85174L66.6038 9.66417L67.8897 10.1453L67.8662 10.8467L67.2468 11.5155L66.5724 13.3096L62.5733 13.5543L61.3344 14.1741L61.899 18.3579L60.9972 19.2386L61.9774 19.9645C62.2911 20.2336 62.5733 20.3723 62.8321 20.3804C63.0909 20.3886 63.3339 20.3641 63.5535 20.3152L64.7375 19.7769L67.2624 19.6464L70.2813 18.2763L71.2615 19.1652L69.6619 20.5843L68.1955 21.7913L66.7998 22.46L63.6319 23.3408L59.8132 23.716L58.5978 22.8597C58.3939 22.1828 58.2214 21.5303 58.096 20.9024C57.9705 20.2744 57.9313 19.6709 57.9783 19.0755L59.1153 13.9539L58.1901 13.4157C58.292 13.4157 58.3469 13.3504 58.3547 13.2118C58.3626 13.0813 58.339 12.959 58.292 12.8529C58.2371 12.7469 58.143 12.6735 57.994 12.6246C57.845 12.5838 57.7196 12.5757 57.6176 12.6083C57.5314 12.6246 57.453 12.6164 57.3746 12.5838C57.2962 12.5512 57.1785 12.4941 57.0296 12.4207C56.8727 12.3636 56.7394 12.3065 56.6296 12.2331C56.5199 12.1597 56.4258 12.1026 56.3552 12.0456C56.0808 11.8824 55.9161 11.7275 55.8612 11.5644C55.8063 11.4013 55.822 11.1892 55.8847 10.9201L56.1435 9.7131L58.8487 10.1943L60.9659 9.52553L60.9816 9.53368ZM73.9511 21.8158L74.1549 21.041L73.6923 18.0072L73.0493 16.9877L67.3016 17.526L67.0194 15.7807L68.0779 14.6798L69.8814 14.2801L71.9986 14.2557C72.3044 14.2394 72.5788 14.166 72.8141 14.0436C73.0493 13.9213 73.2532 13.7664 73.4492 13.5869L73.3473 10.7978L73.9432 9.42766L75.2841 8.99542L77.6835 9.05251L77.7854 14.9244L77.4483 15.4301V18.4639L77.1111 20.0216L76.4681 24.0177L74.0687 23.561L73.9667 21.8158H73.9511Z" fill="#22AC38"/>
<path d="M82.8115 19.255L81.1726 17.7462L81.8627 16.1396L83.3133 15.0223L84.1288 13.7093L84.7248 12.2006L87.5555 8.72634L87.2732 8.0739L86.1362 8.56323C85.8225 8.56323 85.4305 8.57139 84.9522 8.59585C84.4738 8.62032 84.1053 8.68556 83.8309 8.79158C83.6819 8.85683 83.5172 8.91391 83.329 8.95469C83.1408 8.99547 82.9526 9.05256 82.7644 9.1178L82.1371 9.24829C82.0352 9.27275 81.9333 9.28906 81.8392 9.31353C81.7451 9.338 81.6431 9.37062 81.5412 9.4114C81.1178 9.54188 80.8355 9.4114 80.6943 9.01994L80.7571 6.14107L81.6353 5.48863L84.9757 5.2929C85.603 5.26844 86.1832 5.30921 86.7086 5.40708C87.234 5.50494 87.5555 5.59465 87.6888 5.68436C87.8142 5.79038 87.9789 5.85563 88.1906 5.88009C88.4023 5.90456 88.567 5.91272 88.6925 5.91272C88.9669 5.91272 89.3119 5.85563 89.7353 5.74961C89.9235 5.70883 90.1196 5.6599 90.3313 5.61912C90.543 5.57834 90.7626 5.52941 90.99 5.48863C91.4291 5.46417 91.7427 5.46417 91.9309 5.48863C92.0328 5.48863 92.1426 5.54572 92.2446 5.66805C92.3465 5.79038 92.4484 5.92903 92.5425 6.09213C92.6366 6.25524 92.7229 6.41835 92.7934 6.56515C92.864 6.7201 92.9267 6.82612 92.966 6.89137C93.0287 7.06263 93.0365 7.34807 92.9816 7.72322C92.9268 8.10653 92.8405 8.38381 92.715 8.55508L91.1389 10.0312C91.0762 10.1372 90.9978 10.2514 90.9037 10.3574C90.8096 10.4634 90.7077 10.5858 90.6057 10.7163C90.5195 10.8468 90.4254 10.9772 90.3234 11.1077C90.2215 11.2382 90.1353 11.3605 90.0725 11.4666C89.8608 11.5971 89.704 11.7928 89.602 12.0374C89.5001 12.2903 89.4295 12.5268 89.4138 12.7388C89.3746 12.7796 89.2962 12.853 89.1943 12.9509C89.0924 13.0487 88.9826 13.1547 88.8806 13.2771C88.7787 13.3994 88.6689 13.5299 88.567 13.6685C88.4651 13.8072 88.3945 13.9295 88.3788 14.0111C88.3161 14.1171 88.2455 14.2313 88.1592 14.3536C88.073 14.4759 88.0103 14.5983 87.9711 14.7287C87.9318 14.8592 87.9397 14.9979 88.0024 15.1528C88.0652 15.3078 88.222 15.4627 88.4729 15.6095C88.6846 15.7808 88.912 15.9031 89.1629 15.9521C89.4138 16.0091 89.6648 16.0662 89.9157 16.1315C90.1901 16.1723 90.4567 16.2456 90.7155 16.3435C90.9743 16.4414 91.2566 16.5963 91.5467 16.8165L92.4249 22.0605C92.4641 22.3214 92.4955 22.615 92.5033 22.9413C92.5112 23.2675 92.4171 23.4958 92.2053 23.6263L90.7233 24.5397L88.7395 23.5937L87.6966 22.2154L87.477 17.3385L86.7243 16.4903L84.019 19.043L82.788 19.2061L82.8115 19.255ZM100.666 12.7388L100.792 13.1303L100.635 14.4107L100.729 14.8348C100.69 15.6666 100.658 16.4088 100.65 17.0775C100.643 17.7462 100.635 18.3253 100.635 18.8309V20.6659C100.611 21.0574 100.47 21.4651 100.196 21.8811C100.07 22.0768 99.9604 22.2073 99.8663 22.2725C99.7722 22.3378 99.6859 22.3622 99.5997 22.3541C99.5134 22.3459 99.4272 22.3133 99.3488 22.2725C99.2625 22.2317 99.1684 22.1828 99.0665 22.142C98.8548 22.0768 98.6352 22.036 98.4078 22.0115C98.1804 21.9871 97.9765 22.036 97.8119 22.142C97.561 22.1665 97.3884 22.1012 97.2944 21.9626C97.2003 21.824 97.1689 21.6527 97.2159 21.457L97.3414 21.0655L97.2159 20.5762L97.1846 17.4282L96.965 15.4953C96.9415 15.3893 96.8709 15.2588 96.7455 15.1202C96.62 14.9816 96.5259 14.9 96.4632 14.8755H95.7418C95.3811 15.0957 95.0988 15.2833 94.8949 15.4301C94.6832 15.5851 94.5185 15.7074 94.3931 15.7889L94.1108 16.0499C94.0245 16.0907 93.9618 16.1152 93.9226 16.1152C93.8599 16.1396 93.7579 16.1396 93.6246 16.1315C93.4913 16.1233 93.3423 16.107 93.2012 16.0825C93.0522 16.0581 92.9032 16.0418 92.7464 16.0173C92.5896 15.9928 92.4563 15.9765 92.3543 15.9521C92.3308 15.7155 92.2524 15.479 92.1191 15.2507C91.9858 15.0223 91.829 14.794 91.6643 14.5819C91.4918 14.3862 91.3193 14.1986 91.1468 14.0274C90.9664 13.8561 90.8331 13.7012 90.7547 13.5707C90.7547 13.2852 91.0056 13.0161 91.5075 12.7551C91.5937 12.7143 91.7506 12.6328 91.9936 12.5268C92.2367 12.4208 92.5033 12.2984 92.7934 12.1679C93.0679 12.0374 93.3423 11.907 93.6246 11.7765C93.9069 11.646 94.1422 11.5155 94.3303 11.385C94.7067 11.4747 94.9733 11.5073 95.1145 11.4829C95.2635 11.4584 95.3654 11.4095 95.4281 11.3198C95.5536 11.6705 95.7731 11.8988 96.0868 12.0048C96.4004 12.1108 96.6514 12.1027 96.8396 11.9722C97.0277 11.8172 97.114 11.6541 97.1062 11.4829C97.0983 11.3116 97.0513 11.1403 96.965 10.9935C96.8631 10.8386 96.7219 10.6673 96.5573 10.4716L96.6827 10.1128L96.5259 9.94965L96.4318 8.53876C96.4083 8.12284 96.4083 7.78846 96.4318 7.52749C96.4318 7.397 96.4396 7.28283 96.4632 7.18496C96.4867 7.0871 96.4945 6.97292 96.4945 6.84243L97.2473 5.96165L99.9212 6.12476C100.196 6.36126 100.384 6.57331 100.486 6.74457C100.588 6.91583 100.674 7.06263 100.737 7.16865C100.697 7.2339 100.666 7.33992 100.643 7.49487C100.619 7.64982 100.619 7.88633 100.643 8.19624C100.666 8.5143 100.697 8.93023 100.737 9.44402C100.776 9.95781 100.854 10.5858 100.956 11.3279L100.674 12.7714L100.666 12.7388ZM102.556 17.9175V17.2977L102.587 15.7237L102.807 14.745L102.587 13.2689L102.838 12.2903L102.587 10.912L102.775 7.73138L102.619 6.81797L102.65 4.46105C102.65 4.22454 102.909 4.07774 103.434 4.03697C103.709 4.0125 104.03 4.0125 104.391 4.03697C104.751 4.06143 105.183 4.07774 105.669 4.10221C106.006 4.12668 106.249 4.22454 106.39 4.3958C106.539 4.56707 106.649 4.78727 106.735 5.04824V6.94846L106.955 10.4227L106.923 14.4841L106.39 16.841L106.453 19.3936L105.951 21.2286L106.045 21.5875C105.834 22.876 105.606 23.5448 105.355 23.5855C105.253 23.61 105.136 23.6182 105.01 23.6182C104.885 23.6182 104.751 23.6263 104.602 23.6508C104.289 23.6916 103.983 23.7242 103.693 23.7323C103.403 23.7405 103.175 23.7486 103.034 23.7486C102.87 23.7486 102.744 23.6997 102.673 23.6019C102.603 23.504 102.556 23.3898 102.532 23.2593C102.509 23.1288 102.509 22.9576 102.532 22.7374L102.564 17.9257L102.556 17.9175Z" fill="#22AC38"/>
<path d="M124.034 1.80235C124.136 1.84313 124.245 1.89206 124.347 1.93284C124.449 1.97362 124.543 2.03071 124.63 2.09595C124.818 2.2509 124.873 2.51188 124.786 2.87887L124.535 3.96354C124.308 4.05325 123.971 4.23267 123.547 4.5018C123.116 4.77093 122.693 5.12162 122.269 5.52939C121.83 5.94532 121.446 6.39386 121.117 6.89134C120.787 7.38883 120.638 7.87815 120.662 8.38379L118.772 10.8712L118.49 12.5104L117.51 12.9019L116.945 15.1283L114.334 15.7155L112.444 14.6635L112.005 13.22C112.068 13.0242 112.232 12.7551 112.491 12.4207C112.75 12.0782 113.071 11.7194 113.448 11.3197L113.918 10.0067L118.419 5.97794L118.607 5.29288C118.505 5.13793 118.411 5.04006 118.325 4.99928C118.262 4.97482 118.2 4.96666 118.137 4.96666C118.074 4.96666 118.011 4.95851 117.949 4.93404L114.765 4.99928L113.824 5.48861L110.17 4.80355L109.7 3.7515L109.794 1.55769L119.211 1.19885L119.807 1.55769L124.026 1.78604L124.034 1.80235ZM117.768 16.8981H120.536L123.877 15.846L127.499 15.7481L131.969 14.8347C132.094 14.8103 132.204 14.851 132.298 14.9489C132.392 15.0468 132.471 15.1528 132.534 15.2588C132.596 15.4138 132.659 15.585 132.722 15.7808L132.408 17.7136C132.306 18.0235 131.938 18.3497 131.302 18.6923L129.005 19.4752L127.429 19.3773L125.916 19.9319L124.841 20.0624C124.481 20.1684 124.308 20.4212 124.308 20.8127L125.029 26.7743L124.873 27.6225L123.9 27.6551L123.085 28.438L120.411 28.2423L120.348 27.4593L120.003 24.8741L120.035 22.6476C120.136 22.4111 120.278 22.1746 120.442 21.9463C120.607 21.7179 120.779 21.5059 120.944 21.3102C121.093 21.1389 121.219 20.9839 121.321 20.8534C121.422 20.723 121.477 20.6251 121.477 20.5599C121.375 20.4294 121.258 20.307 121.132 20.201L120.474 19.94L120.223 20.3967L118.866 20.5272L118.051 20.3315L114.365 21.2123C114.201 21.2368 114.052 21.2531 113.926 21.2775C113.801 21.302 113.683 21.3102 113.581 21.3102C113.354 21.3509 113.213 21.3509 113.173 21.3102L112.068 20.2663C112.005 19.9808 111.958 19.6628 111.927 19.3039C111.895 18.9451 111.903 18.6352 111.942 18.3742C111.966 18.1785 112.068 17.999 112.256 17.8359C112.444 17.6728 112.632 17.5668 112.821 17.526L117.768 16.9062V16.8981ZM129.107 8.02495C130.573 8.46534 131.475 8.82418 131.812 9.10962C132.173 9.41953 132.408 9.77837 132.534 10.1943C132.596 10.4145 132.518 10.6999 132.298 11.0425C132.079 11.3931 131.828 11.7275 131.561 12.0537C131.271 12.38 130.997 12.6654 130.746 12.9019C130.495 13.1384 130.369 13.2526 130.369 13.2281C130.079 13.0569 129.813 12.8937 129.585 12.7551C129.358 12.6165 129.13 12.486 128.927 12.38C128.699 12.2739 128.456 12.1761 128.221 12.0864C127.978 11.9966 127.703 11.9232 127.39 11.858L126.127 11.4013C126.025 11.3768 125.931 11.3279 125.845 11.2382C125.759 11.1485 125.657 11.0669 125.531 10.9772C125.406 10.8875 125.241 10.8223 125.045 10.7815C124.841 10.7407 124.598 10.7489 124.308 10.8141C123.971 10.7489 123.61 10.6673 123.218 10.5694C122.834 10.4716 122.45 10.39 122.065 10.3248C122.003 10.3248 121.932 10.2432 121.846 10.0801C121.76 9.91701 121.697 9.73759 121.658 9.54186C121.595 9.34613 121.556 9.1504 121.532 8.95467C121.509 8.75894 121.532 8.61214 121.595 8.53059C121.807 8.46534 122.026 8.41641 122.269 8.38379C122.512 8.35117 122.724 8.31039 122.912 8.26961C123.1 8.22884 123.257 8.16359 123.383 8.09019C123.508 8.01679 123.563 7.90262 123.54 7.74767C123.979 7.48669 124.402 7.38067 124.802 7.42145C125.304 7.48669 125.751 7.54378 126.143 7.60087C126.535 7.65796 126.88 7.70689 127.201 7.74767C127.515 7.78844 127.829 7.83738 128.135 7.87815C128.44 7.91893 128.77 7.97602 129.123 8.04126L129.107 8.02495Z" fill="#22AC38"/>
<path d="M143.409 19.4589C144.311 19.2632 145.056 19.1408 145.644 19.0837C146.232 19.0266 146.734 19.0022 147.157 19.0022C147.581 19.0022 147.91 19.0022 148.216 19.0185C148.522 19.0266 148.827 19.0022 149.141 18.9369L151.156 18.5781C151.219 18.7086 151.329 18.8146 151.486 18.9043C151.642 18.994 151.893 19.0348 152.223 19.0348L154.552 18.3497C155.641 18.7901 156.269 19.149 156.441 19.4344C156.629 19.6954 156.755 19.989 156.818 20.3152L156.755 22.0849L154.175 22.1176L149.259 22.8026L143.088 23.5529L138.869 24.3358L136.634 23.7486L136.132 21.0655L139.096 19.7851L141.237 19.9808L143.315 19.4263L143.409 19.4589ZM147.534 3.34375C147.784 3.34375 147.957 3.44162 148.035 3.63735C148.122 3.83308 148.13 4.04512 148.067 4.25716L147.722 5.23581C147.635 5.45601 147.51 5.65174 147.345 5.823C147.259 5.92902 147.165 6.05951 147.047 6.21446C146.93 6.36942 146.796 6.5733 146.655 6.83428L145.299 8.27779L145.236 8.604C145.738 8.69371 146.263 8.77527 146.796 8.84867C147.33 8.92207 147.863 8.99546 148.388 9.06071C148.89 9.15042 149.368 9.22382 149.823 9.28906C150.278 9.3543 150.67 9.41955 151.007 9.48479L155.916 13.7093L155.289 15.0223C154.865 14.9571 154.489 14.9245 154.152 14.9245C153.814 14.9245 153.493 14.9326 153.171 14.9571C152.881 14.9816 152.599 14.9897 152.34 14.9897C152.082 14.9897 151.823 14.9489 151.572 14.8592L149.494 14.2068L149.619 13.7175L147.51 12.4697C147.361 12.4044 147.228 12.3147 147.102 12.1924C146.977 12.0701 146.851 11.9477 146.726 11.8172C146.6 11.7112 146.467 11.597 146.334 11.491C146.201 11.385 146.044 11.2953 145.879 11.2301L145.001 11.0996C144.664 11.0996 144.374 11.0588 144.115 10.9691C144.076 10.9691 143.958 11.1403 143.77 11.491C143.582 11.8417 143.362 12.2332 143.111 12.6736C142.837 13.1303 142.554 13.5707 142.264 13.9866C141.974 14.4025 141.7 14.6716 141.449 14.8021L141.323 15.1283L140.696 15.3241L140.257 16.0418L138.649 17.0938L137.23 17.1591L136.415 16.1804L136.822 14.5412L138.649 11.3279L141.041 8.41643L144.005 3.99618L147.565 3.34375H147.534Z" fill="#22AC38"/>
<path d="M163.404 7.50302L163.561 8.18808L163.812 8.57954L163.592 9.69684L166.651 8.78343L169.544 8.48983L170.422 8.09837L173.574 7.8374L174.045 9.80286L173.763 11.0833C173.535 11.1485 173.182 11.1893 172.72 11.2137C172.257 11.2382 171.779 11.2708 171.269 11.3116C170.767 11.3361 170.273 11.3605 169.787 11.3932C169.301 11.4258 168.925 11.4666 168.65 11.5073L167.419 11.8988L163.545 12.2576L163.765 13.9947L164.455 14.1905L167.764 13.6685L169.152 13.7338L173.339 12.9182C173.763 12.8285 174.108 12.8693 174.382 13.0324C174.657 13.1955 174.766 13.4891 174.727 13.8969L174.57 15.5361L173.496 16.0255C173.073 16.0662 172.571 16.107 171.967 16.1396C171.371 16.1722 170.752 16.213 170.124 16.2538L169.685 16.319C169.662 16.7105 169.63 17.42 169.591 18.4476C169.34 18.6189 169.199 18.7738 169.168 18.9043C169.136 19.0348 169.175 19.149 169.293 19.2468C169.411 19.3447 169.591 19.4018 169.842 19.4263C170.093 19.4507 170.375 19.4263 170.689 19.361L172.704 19.0022C172.767 19.1327 172.877 19.2387 173.033 19.3284C173.19 19.4181 173.441 19.4589 173.77 19.4589L175.786 19.1L177.425 19.7525C177.777 20.3397 177.989 20.7801 178.052 21.0655L177.989 22.8352L175.409 22.8679L170.814 23.2267L164.643 23.977L160.425 24.7599L158.19 24.1727L157.688 21.4896L160.652 20.2092L162.793 20.4049L164.871 19.8503L164.965 19.883L165.247 17.5261C165.349 17.3711 165.443 17.1998 165.529 17.0041C165.553 16.9796 165.561 16.9633 165.561 16.9552C165.561 16.947 165.568 16.9307 165.592 16.9062L165.404 16.9715L161.279 17.3629L159.107 16.2783L158.919 13.8561L160.017 8.54692C160.581 8.15546 160.848 7.81293 160.817 7.51933C160.785 7.22574 160.621 6.99739 160.33 6.85059L158.503 5.90456L159.382 4.06959L167.38 3.09093L168.862 3.1888L173.425 2.27539L173.551 5.68436L171.63 6.3368L165.302 7.21758L163.632 6.92399L163.381 7.51118L163.404 7.50302Z" fill="#22AC38"/>
<path d="M197.765 2.69128L199.592 3.1806C199.78 3.37633 199.851 3.62099 199.796 3.89828C199.741 4.18372 199.749 4.54256 199.812 4.98295L199.843 7.79658L200 13.4972L199.373 14.9081L199.749 17.4934L199.937 21.8484L198.996 22.5661L194.966 22.7618L194.997 21.5466L195.248 20.7963L195.436 18.8309L195.624 15.5524L195.562 15.1936L194.903 15.846L192.104 18.9287L185.807 21.7424C185.784 21.6119 185.611 21.5874 185.29 21.6771C184.96 21.7668 184.725 21.9381 184.584 22.1991L183.29 22.3948L180.898 22.721L179.322 22.036L178.726 15.7807L179.542 14.4677L182.373 12.4044L185.399 9.02805C185.501 8.92203 185.658 8.86494 185.87 8.86494H186.591C186.819 8.8894 187.038 8.88941 187.234 8.88125C187.43 8.87309 187.564 8.7997 187.626 8.66921C187.838 8.30221 187.822 7.9026 187.595 7.48667C187.368 7.09521 186.952 6.99734 186.364 7.19307L181.612 7.2257L179.691 7.6824L178.24 6.59773V3.88197L182.553 3.65362L183.525 4.04508L188.473 4.50178L191.21 3.94721L191.806 4.69751L191.712 6.30413L192.088 7.08705L192.182 8.59581L184.905 15.1446C184.545 15.2506 184.215 15.3485 183.902 15.4219C183.588 15.4953 183.353 15.5932 183.212 15.6992C183.039 15.7889 182.992 15.9112 183.055 16.0743C183.118 16.2374 183.361 16.4495 183.776 16.7105L183.87 18.2192L184.56 18.3823L191.617 16.3516L194.48 14.0599L195.326 13.1792L195.295 12.6898C195.256 12.1679 195.295 11.7112 195.421 11.3116V7.11968L196.463 2.86254L197.757 2.66681L197.765 2.69128Z" fill="#22AC38"/>
<path d="M21.2026 25.4939C21.477 25.5428 21.7514 25.5836 22.0181 25.657C22.6454 25.8364 23.2648 26.0485 23.9 26.2197C24.5351 26.391 25.1703 26.5215 25.8054 26.6764C26.6601 26.8885 27.507 27.1576 28.3773 27.3289C29.0125 27.4594 29.679 27.4757 30.322 27.5491C30.4318 27.5654 30.5415 27.6225 30.6513 27.6632C30.816 27.7285 30.9728 27.8345 31.1453 27.859C32.2431 28.0058 33.3409 28.1607 34.4387 28.2586C35.0189 28.3075 35.6227 28.3157 36.1951 28.2178C36.6342 28.1444 37.1361 28.2831 37.5281 27.9487C37.5517 27.9324 37.6693 28.0384 37.7477 28.0873C37.8339 28.1444 37.9437 28.2504 38.0221 28.2341C38.3436 28.1689 38.6573 28.0629 38.9709 27.9813C39.3081 27.8916 39.661 27.8345 39.9903 27.704C40.5078 27.5001 40.994 27.2147 41.5115 27.0271C42.3897 26.7091 43.3307 26.5867 44.1697 26.13C44.7421 25.8201 45.3224 25.5184 45.9026 25.2166C45.9575 25.1921 46.0202 25.1514 46.0673 25.1595C46.4986 25.2492 46.8201 24.9067 46.9769 24.6702C47.1808 24.3684 47.4238 24.2706 47.6983 24.1319C47.8943 24.0341 48.0825 23.9199 48.2472 23.7813C48.4275 23.6263 48.553 23.398 48.7412 23.2756C49.0235 23.088 49.3606 22.982 49.6586 22.8189C49.886 22.6966 50.1604 22.5906 50.2938 22.3948C50.6544 21.8403 50.9603 21.2449 51.2661 20.6577C51.3602 20.4783 51.3288 20.2255 51.4151 20.0461C51.5876 19.6872 51.5248 18.676 51.2739 18.3905C51.2347 18.3416 51.1563 18.3253 51.1328 18.309C50.8505 18.8228 50.6152 19.3284 50.3094 19.7932C50.0664 20.1602 49.7605 20.4946 49.4469 20.8045C49.1176 21.1307 48.7647 21.4325 48.3883 21.6935C47.7375 22.142 47.0553 22.5579 46.3888 22.982C46.2555 23.0636 46.1379 23.1859 45.9967 23.243C45.1028 23.5937 44.2011 23.9362 43.3072 24.2624C43.0876 24.344 42.8445 24.3848 42.6171 24.4418C42.4133 24.4908 42.2094 24.5234 42.0133 24.5805C41.2214 24.7762 40.4372 25.0209 39.6296 25.1677C39.065 25.2655 38.4691 25.2329 37.8888 25.2574C37.5987 25.2655 37.3086 25.2982 37.0263 25.2574C36.5715 25.2085 36.1167 25.0617 35.7168 25.4287C35.6697 25.4694 35.5756 25.4694 35.5051 25.4694C35.2542 25.4694 35.0111 25.4694 34.7602 25.445C34.6425 25.445 34.47 25.445 34.4151 25.3634C34.2426 25.1187 34.078 25.2166 33.9133 25.3063C33.78 25.2329 33.5683 25.1351 33.5134 25.2003C33.2468 25.4776 33.0272 25.3145 32.792 25.184C32.6587 25.1106 32.5332 24.9964 32.3842 24.9719C31.3335 24.7844 30.2828 24.5968 29.2242 24.4255C27.8049 24.1972 26.3857 23.9933 24.9664 23.7813C24.0333 23.6345 23.1002 23.4877 22.0808 23.3246L20.4263 25.5673C20.5988 25.4123 20.787 25.4123 21.2026 25.4857V25.4939Z" fill="url(#paint0_linear_345_1125)"/>
<path d="M34.6585 4.26529C34.7683 4.2816 34.878 4.29791 34.98 4.30607C35.1368 4.32238 35.3015 4.32238 35.4583 4.33869C35.5289 4.33869 35.5994 4.36315 35.6779 4.37947C35.7249 4.37947 35.7641 4.38762 35.8112 4.39578C35.9131 4.41209 36.015 4.42024 36.117 4.43655C36.1483 4.43655 36.1797 4.42024 36.2111 4.42024C36.3993 4.44471 36.509 4.56704 36.5247 4.76277C36.5247 4.77093 36.5247 4.78724 36.5247 4.79539C36.5639 4.85248 36.5953 4.90957 36.5247 4.9585C36.4777 4.99112 36.4541 5.0319 36.3757 5.0319C36.2189 5.0319 36.0699 5.0319 35.9131 5.01559C35.8817 5.01559 35.8425 5.0319 35.8033 5.0319C35.623 4.99928 35.4426 5.1053 35.2544 5.0319C35.1603 4.99928 35.0584 5.0319 34.9565 5.0319C34.8702 5.0319 34.7839 5.02375 34.6977 5.01559C34.635 5.01559 34.5722 5.02375 34.5095 5.01559C34.3997 5.01559 34.2821 4.99928 34.1723 4.99112C34.0939 4.99112 34.0233 4.99112 33.9449 4.99112C33.8116 4.99112 33.6783 4.99112 33.545 4.99928C33.5293 4.99928 33.498 4.99928 33.4901 5.00743C33.4352 5.05637 33.3725 5.06452 33.3019 5.04006C33.2941 5.04006 33.2784 5.04006 33.2706 5.04006C33.2235 5.04006 33.1765 5.04821 33.1294 5.05637C33.0824 5.08083 33.0353 5.12161 32.9804 5.12977C32.8001 5.17054 32.6276 5.21132 32.4472 5.24394C32.3375 5.26841 32.2198 5.29287 32.1101 5.30103C32.0473 5.30103 31.9768 5.27656 31.9062 5.27656C31.7415 5.27656 31.5847 5.26025 31.4279 5.22763C31.3024 5.20316 31.177 5.20316 31.0593 5.1787C31.0123 5.17054 30.9731 5.11345 30.926 5.08899C30.8947 5.06452 30.879 5.0319 30.8241 5.05637C30.7927 5.06452 30.7457 5.02375 30.7065 4.99928C30.6437 4.9585 30.581 4.90957 30.5183 4.86879C30.4869 4.85248 30.4399 4.85248 30.4007 4.84433C30.3693 4.84433 30.3301 4.84433 30.2987 4.84433C30.1968 4.83617 30.1184 4.86064 30.0321 4.92588C29.8675 5.04821 29.7263 5.21948 29.5224 5.27656C29.4832 5.28472 29.4283 5.27656 29.397 5.29287C29.3107 5.33365 29.2166 5.34996 29.1461 5.43152C29.1147 5.46414 29.052 5.4886 29.0049 5.4886C28.9343 5.4886 28.8638 5.4886 28.8089 5.53754C28.8089 5.53754 28.7854 5.53754 28.7775 5.53754C28.6913 5.48045 28.6207 5.53754 28.5501 5.57831C28.5423 5.57831 28.5266 5.57831 28.5109 5.57831C28.3698 5.53754 28.2208 5.55385 28.0796 5.562C27.9934 5.562 27.915 5.57016 27.8287 5.562C27.7817 5.562 27.7425 5.51307 27.7033 5.49676C27.5464 5.44783 27.3818 5.40705 27.2249 5.36627C27.1701 5.34996 27.123 5.3255 27.0681 5.31734C26.9662 5.30103 26.8642 5.30103 26.7623 5.28472C26.676 5.26841 26.5898 5.24394 26.5114 5.21132C26.4173 5.17054 26.331 5.13792 26.2369 5.12977C26.1664 5.12977 26.1036 5.06452 26.0331 5.04006C25.9311 4.99928 25.8292 4.96666 25.7273 4.94219C25.641 4.91772 25.5391 4.94219 25.4606 4.90141C25.3666 4.85248 25.2803 4.90141 25.1862 4.90141C25.0999 4.90141 25.0059 4.92588 24.9118 4.93404C24.8569 4.93404 24.802 4.93404 24.7392 4.93404C24.5903 4.93404 24.4413 4.9585 24.2923 5.02374C24.159 5.08899 24.01 5.12977 23.8689 5.15423C23.814 5.16239 23.7748 5.17054 23.7356 5.21132C23.7042 5.23579 23.6572 5.22763 23.6179 5.23579C23.5944 5.23579 23.5709 5.23579 23.5474 5.2521C23.4376 5.31734 23.3278 5.38258 23.218 5.43967C23.1475 5.48045 23.0769 5.51307 23.0063 5.54569C22.9906 5.54569 22.9514 5.54569 22.9358 5.52938C22.8573 5.40705 22.7711 5.29287 22.7005 5.16239C22.6143 4.99928 22.5515 4.82801 22.481 4.66491C22.481 4.65675 22.481 4.64044 22.481 4.64859C22.6378 4.53442 22.7789 4.4284 22.9358 4.32238C23.0769 4.22451 23.2102 4.11034 23.3905 4.06956C23.4611 4.05325 23.5238 3.988 23.5944 3.93907C23.5944 3.96354 23.6101 3.988 23.6101 4.00432C23.665 3.97985 23.7277 3.96354 23.7983 3.93907C23.7669 3.91461 23.7512 3.90645 23.7277 3.89014C23.8845 3.84121 24.0257 3.79227 24.1747 3.7515C24.2688 3.71888 24.3707 3.68625 24.4648 3.66994C24.5824 3.65363 24.7 3.63732 24.8177 3.63732C24.9353 3.63732 25.0137 3.57208 25.0999 3.51499C25.194 3.44975 25.296 3.3845 25.3901 3.31926C25.492 3.24586 25.594 3.18062 25.6959 3.10722C25.79 3.03382 25.8684 2.95227 25.9546 2.87071C26.0644 2.76469 26.1664 2.65051 26.2761 2.54449C26.2997 2.52003 26.3153 2.47925 26.3467 2.44663C26.4408 2.33245 26.5271 2.20197 26.6368 2.09594C26.8486 1.89206 27.0603 1.68817 27.2798 1.49244C27.3426 1.43535 27.421 1.40273 27.4759 1.3538C27.5072 1.32118 27.5386 1.30487 27.5778 1.28856C27.6013 1.2804 27.6092 1.24778 27.6327 1.22331C27.6562 1.207 27.6876 1.19069 27.7111 1.16623C27.7189 1.16623 27.7268 1.14991 27.7346 1.14176C27.8287 1.09283 27.9307 1.05205 28.0248 0.994961C28.0718 0.970495 28.1032 0.921562 28.1424 0.88894C28.1737 0.864474 28.2129 0.856319 28.2443 0.840008C28.2757 0.815542 28.2914 0.750298 28.3619 0.791075C28.3698 0.791075 28.4168 0.742143 28.456 0.709521C28.4952 0.742143 28.7461 0.644277 28.7697 0.562723C28.8167 0.546412 28.8873 0.587189 28.9108 0.49748C28.9108 0.49748 28.95 0.49748 28.9657 0.49748C29.0284 0.51379 29.0755 0.51379 29.0676 0.432236C29.0676 0.424081 29.0912 0.40777 29.1225 0.40777C29.1147 0.432236 29.1068 0.448547 29.099 0.473013C29.2009 0.530101 29.2794 0.505635 29.3656 0.399614C29.3891 0.399614 29.4127 0.415925 29.4362 0.424081C29.4597 0.424081 29.4911 0.440392 29.5146 0.448547C29.5303 0.358837 29.6087 0.334371 29.6714 0.301749C29.742 0.269127 29.8126 0.236506 29.8831 0.212039C30.0321 0.163107 30.1811 0.138641 30.3222 0.0815525C30.4948 0.016309 30.6751 0.0815525 30.8476 0.0407753C30.9888 0.016309 31.1377 -0.0163127 31.2867 -0.0326236C31.5377 -0.0652453 31.7886 -0.0815562 32.0316 -0.0244681C32.1571 0.0081536 32.2826 0.0733971 32.3845 0.154951C32.557 0.293594 32.7217 0.448547 32.8785 0.6035C32.9412 0.668744 32.9883 0.766609 33.0353 0.848163C33.051 0.87263 33.0589 0.88894 33.0745 0.913407C33.0981 0.962339 33.1216 1.01943 33.153 1.06836C33.1608 1.08467 33.1765 1.10914 33.1922 1.12545C33.3411 1.31302 33.4352 1.53322 33.545 1.73711C33.6313 1.90021 33.7411 2.05517 33.8351 2.21828C33.89 2.31614 33.9371 2.42216 33.992 2.52003C34.039 2.60158 34.1018 2.68314 34.1488 2.76469C34.2351 2.89518 34.3213 3.02566 34.3919 3.16431C34.5017 3.37635 34.5958 3.59654 34.6898 3.81674C34.7212 3.89014 34.7447 3.96354 34.7134 4.05325C34.6977 4.09403 34.7134 4.15111 34.7055 4.19189L34.6585 4.26529ZM32.6903 1.65555C32.659 1.59031 32.6433 1.53322 32.6119 1.48429C32.5492 1.37827 32.4551 1.31302 32.4002 1.19069C32.3453 1.06836 32.2512 0.97865 32.1179 0.954184C32.0003 0.929718 31.8827 0.897096 31.765 0.864474C31.7494 0.864474 31.7337 0.848163 31.7258 0.840008C31.6866 0.815542 31.6553 0.791075 31.6161 0.766609C31.5847 0.750298 31.5612 0.709521 31.5298 0.685054C31.4436 0.611656 31.3573 0.538257 31.271 0.464858C31.1534 0.366993 31.1534 0.366993 31.0358 0.464858C30.9574 0.521946 30.8711 0.570879 30.8084 0.644277C30.7535 0.717676 30.6751 0.758453 30.6045 0.774764C30.4948 0.799231 30.432 0.864474 30.3771 0.946028C30.3066 1.06836 30.1341 1.11729 30.0086 1.05205C29.9694 1.03574 29.9223 1.02758 29.8831 1.02758C29.7812 1.02758 29.742 1.11729 29.6714 1.16623C29.6244 1.19885 29.5773 1.23147 29.5381 1.27225C29.4911 1.31302 29.4597 1.36196 29.4127 1.40273C29.397 1.41904 29.3656 1.41904 29.3578 1.44351C29.2794 1.59031 29.1147 1.59846 29.0049 1.68817C28.9735 1.71264 28.9343 1.71264 28.9108 1.72895C28.8089 1.78604 28.7148 1.85944 28.6128 1.90837C28.5344 1.94099 28.4874 1.99808 28.4325 2.05517C28.3933 2.09594 28.3384 2.12857 28.2914 2.16934C28.307 2.19381 28.3227 2.21828 28.3384 2.2509C28.3384 2.25905 28.3306 2.26721 28.3227 2.28352C28.2443 2.18565 28.1816 2.22643 28.111 2.28352C28.0875 2.29983 28.064 2.3243 28.0561 2.34876C28.0404 2.38954 28.0404 2.43847 28.0326 2.48741C28.2129 2.43847 28.3698 2.33245 28.5501 2.29167C28.6364 2.27536 28.7226 2.21828 28.801 2.18565C28.9657 2.12041 29.1304 2.05517 29.2872 1.98992C29.4205 1.93284 29.5538 1.8839 29.6871 1.82682C29.7028 1.82682 29.7342 1.82682 29.7498 1.83497C29.8831 1.93284 30.0243 2.0307 30.1497 2.13672C30.3066 2.26721 30.4477 2.40585 30.6045 2.54449C30.6359 2.57711 30.6829 2.60974 30.7222 2.60974C30.8163 2.60974 30.9103 2.57712 30.9809 2.49556C31.0123 2.45478 31.0436 2.42216 31.0829 2.38954C31.2083 2.29167 31.3416 2.21012 31.4592 2.11226C31.5141 2.07148 31.5612 2.01439 31.6004 1.9573C31.6474 1.89206 31.6788 1.81866 31.718 1.75342C31.718 1.73711 31.7415 1.72895 31.7572 1.72895C31.8513 1.72895 31.9454 1.72895 32.0316 1.79419C32.1022 1.84313 32.1728 1.8839 32.2355 1.94915C32.3218 2.03886 32.4551 2.07963 32.5649 2.13672C32.6982 2.20197 32.6982 2.19381 32.7295 2.07963C32.7374 2.07963 32.7452 2.08779 32.7609 2.09594C32.7844 2.1041 32.8158 2.12041 32.8393 2.12857C32.8393 2.1041 32.8393 2.07148 32.8315 2.04701C32.8158 1.98177 32.7923 1.92468 32.7766 1.85944C32.7609 1.80235 32.7452 1.74526 32.7295 1.68002C32.6982 1.68002 32.6746 1.68002 32.6746 1.68002L32.6903 1.65555ZM29.7655 3.01751C29.7655 3.01751 29.8047 3.03382 29.8047 3.02566C29.9302 2.90333 30.0556 2.781 30.1811 2.65051C30.1262 2.59343 30.087 2.65051 30.0635 2.67498C29.9615 2.781 29.8675 2.89518 29.7655 3.00935V3.01751ZM30.4556 4.45286C30.4556 4.45286 30.4477 4.4284 30.4399 4.42024C30.3458 4.42024 30.2438 4.43655 30.1497 4.43655C30.1576 4.50995 30.1576 4.50995 30.3771 4.50995C30.4007 4.50995 30.432 4.47733 30.4556 4.45286ZM33.9371 4.11849C33.992 4.11849 34.039 4.1348 34.0782 4.1348C34.0782 4.1348 34.0939 4.11849 34.0939 4.11034C34.0547 4.0614 34.0233 4.02063 33.9684 3.95538C33.9528 4.02063 33.9449 4.0614 33.9292 4.11034L33.9371 4.11849ZM27.617 4.2082C27.617 4.16742 27.617 4.12665 27.617 4.09403C27.6092 4.09403 27.6013 4.09403 27.5935 4.09403C27.5621 4.12665 27.5386 4.15927 27.4915 4.20005C27.5464 4.20005 27.57 4.2082 27.617 4.21636V4.2082Z" fill="#22AC38"/>
<path d="M1.42687 16.8654C1.40335 16.9714 1.43471 17.1101 1.4896 17.1998C1.74837 17.6076 2.03065 18.0072 2.28942 18.4068C2.39919 18.5699 2.47761 18.7493 2.55602 18.8961C2.67364 18.8961 2.83831 18.839 2.94808 18.8961C3.12059 18.9777 3.26174 19.1408 3.41856 19.2713C3.45777 19.3039 3.48913 19.3365 3.5205 19.361C3.5205 19.361 3.77926 19.5078 3.90472 19.6219C4.03018 19.7361 4.05371 19.5812 4.61044 19.6219C5.16717 19.6627 5.24558 19.8911 5.24558 19.8911L5.70038 19.9645C5.70038 19.9645 6.46098 19.9808 6.57076 19.9645C6.68054 19.9482 7.15102 19.8095 7.38626 19.7198C7.62149 19.6301 7.73127 19.679 7.88026 19.6219C8.02924 19.5649 8.06061 19.5241 8.17038 19.4507C8.28016 19.3773 8.89962 19.1652 9.04077 19.0511C9.18975 18.9369 9.31521 18.8798 9.38579 18.7085C9.45636 18.5373 9.76217 18.8227 9.77001 18.7085C9.77785 18.5944 9.91899 18.4802 9.91899 18.4802C9.91899 18.4802 10.5385 18.0072 10.6639 17.8685C10.6718 17.8604 10.6796 17.8441 10.6953 17.8359C10.7737 17.7217 10.7737 17.5342 10.8051 17.4037C10.8443 17.2732 10.8051 17.159 10.8051 17.0611C10.8051 16.9633 11.0011 16.5881 11.0011 16.531C11.0011 16.4739 11.3853 16.3679 11.3853 16.3679C11.2442 16.0662 11.4951 15.7807 11.6049 15.6421C11.9342 15.2099 12.0048 14.6798 12.2243 14.2149C12.342 13.9621 12.389 13.6766 12.5145 13.432C12.687 13.1058 12.9065 12.804 13.0477 12.5838C12.9693 12.4044 12.8752 12.2331 12.8908 12.225C13.0634 12.0945 13.0163 11.8661 13.0947 11.7438C13.3064 11.3931 13.4162 11.018 13.5417 10.6428C13.7926 9.8762 14.0357 9.10143 14.2631 8.31851C14.3336 8.082 14.4121 7.83734 14.4199 7.59268C14.4434 6.875 14.5375 6.14917 14.2395 5.38256C14.4121 5.41518 14.5297 5.46411 14.6395 5.45596C14.7571 5.45596 14.8747 5.39071 15.0001 5.35809C14.9061 5.13789 15.1335 5.1542 15.1962 5.13789C15.5412 5.03187 15.8862 4.96663 16.2391 4.88507C16.2704 4.88507 16.3175 4.86061 16.3489 4.88507C16.4586 4.95032 16.4508 4.95032 16.4822 4.8443C16.4978 4.7709 16.5292 4.70566 16.5606 4.6241C16.9291 4.9911 17.329 4.71381 17.5486 4.52624C17.8309 4.29788 17.972 3.92273 18.4033 4.22448C18.419 4.23264 18.4738 4.17555 18.5131 4.15924C18.7248 4.05322 18.9365 3.95536 19.1404 3.84118C19.5246 3.62914 20.144 3.82487 20.2852 3.16428C20.2852 3.13166 20.3871 3.11535 20.4106 3.10719C19.8853 2.51184 19.1796 2.61786 18.5052 2.57709C18.2778 2.56078 18.0426 2.55262 17.823 2.57709C17.4231 2.60971 17.0232 2.67495 16.6233 2.72388C15.5412 2.83806 14.4591 2.87884 13.3848 3.08272C12.7497 3.20506 12.0989 3.26214 11.4559 3.36816C10.5777 3.50681 9.6916 3.6536 8.81337 3.8004C8.60166 3.83302 8.3821 3.89011 8.17038 3.92273C7.86457 3.97167 7.55876 3.99613 7.2608 4.07769L6.50803 4.51808H5.8572C5.77879 4.51808 5.63765 4.74643 5.63765 4.74643H5.33968L5.04955 5.52935C5.11228 5.73324 5.18285 5.92897 5.30047 6.10023C5.41025 6.26334 5.7239 6.2715 5.86504 6.42645C6.39825 7.01364 7.08045 7.18491 7.80969 7.21753C7.99788 7.22568 8.18607 7.16044 8.3821 7.15229C9.1427 7.11966 9.85626 6.89947 10.5698 6.63034C10.7659 6.55694 11.0011 6.45092 11.1736 6.71189C11.1736 6.72005 11.2285 6.70374 11.2755 6.69558C11.2363 6.59772 11.1971 6.50801 11.1422 6.38567C11.2677 6.39383 11.3461 6.39383 11.4245 6.41014C11.9107 6.51616 11.9813 6.5814 11.8009 7.10335C11.5265 7.89443 11.1971 8.6692 10.8599 9.44396C10.6404 9.9496 10.3503 10.4308 10.1385 10.9446C9.68375 12.07 9.11918 13.1302 8.43699 14.1333C8.01356 14.7613 7.56661 15.3811 6.94714 15.7644C6.31984 16.1477 5.59844 16.3924 4.90057 16.6371C4.68885 16.7105 4.38304 16.6371 4.17133 16.531C3.96745 16.425 3.80278 16.2782 3.55186 16.2456C3.21469 16.1967 2.90104 16.0499 2.54034 15.9438C2.50113 15.8378 2.45408 15.74 2.40703 15.6339L1.97576 15.3811C1.8503 15.479 1.79541 15.4137 1.72484 15.5116C1.65427 15.6095 1.56017 15.5116 1.56017 15.6421V16.0499C1.56017 16.0499 1.39551 16.107 1.39551 16.164V16.4984C1.43471 16.6289 1.45824 16.7594 1.42687 16.9062V16.8654Z" fill="black"/>
<path d="M49.894 16.2293C50.1606 16.0825 50.3723 15.9601 50.5762 15.846C50.5605 15.8297 50.5449 15.8052 50.537 15.7889C50.388 15.8134 50.239 15.846 50.0744 15.8786C50.239 15.585 50.3959 15.3077 50.5762 14.9733C50.3567 15.0794 50.1998 15.1609 50.0352 15.2425C49.9646 15.3811 49.9097 15.5605 49.7999 15.6829C49.6353 15.8623 49.4471 16.0254 49.251 16.1722C48.9766 16.3761 48.6786 16.5473 48.412 16.7512C48.2317 16.8899 48.0121 17.0122 48.0592 17.3792C47.7769 17.1345 47.6044 17.1753 47.4868 17.4281C47.4632 17.4852 47.4083 17.526 47.3534 17.5423C46.9535 17.6646 46.5615 17.8033 46.1537 17.9011C45.5029 18.0479 44.8364 18.154 44.1856 18.3008C43.3544 18.4883 42.4918 18.4394 41.6293 18.3252C40.7981 18.211 39.9513 18.0153 39.1279 17.7707C38.4614 17.5668 38.0772 17.2324 38.0145 16.4087C37.9753 15.9275 37.9674 15.4382 38.0537 14.9652C38.0772 14.8592 38.038 14.7205 38.0929 14.639C38.383 14.1904 38.5477 13.6522 38.8064 13.1791C39.0809 12.6735 39.2769 12.1026 39.5357 11.5807C39.7552 11.1403 40.0062 10.7244 40.2571 10.3084C40.4531 9.98222 40.6727 9.66416 40.8844 9.33794C41.1431 8.93832 41.4254 8.54686 41.6607 8.12278C41.7312 7.99229 41.7156 7.74763 41.645 7.60083C41.5509 7.41326 41.3705 7.23384 41.1902 7.11966C40.9471 6.96471 40.6962 6.60587 40.4061 6.79344C40.1081 6.98102 39.8572 7.25015 39.6219 7.52743C39.2142 8.00045 38.8143 8.48977 38.4457 8.99541C38.1164 9.44396 37.8106 9.92513 37.5126 10.3981C37.1755 10.9364 36.8932 11.5236 36.5089 12.0292C36.0855 12.5756 35.5758 13.0487 35.121 13.538C35.1367 13.6603 35.1446 13.8071 35.1602 13.9458C35.1289 13.9458 35.1054 13.9458 35.074 13.9376C35.0191 13.856 34.9564 13.7826 34.8623 13.6522C34.2977 14.1496 33.7723 14.6308 33.2313 15.0794C32.6824 15.5361 32.1178 15.9683 31.5532 16.4169C31.5219 16.3924 31.4827 16.3679 31.4513 16.3435C31.4748 16.2211 31.4827 16.0988 31.514 15.9765C31.6709 15.373 31.812 14.7613 32.0002 14.1741C32.1727 13.6522 32.4236 13.1628 32.6197 12.649C32.8 12.176 32.9176 11.6541 33.1372 11.2055C33.4587 10.5613 33.8429 9.95775 34.2036 9.34609C34.2506 9.26454 34.3526 9.20745 34.3761 9.10959C34.4859 8.7589 34.5721 8.40822 34.6819 8.01676C34.1566 7.54374 33.6077 7.03811 32.9882 6.75267C32.7294 6.63849 32.4315 6.76898 32.3217 7.04626C32.1335 7.53559 31.961 8.01676 31.7336 8.46531C31.5689 8.78337 31.3651 9.07696 31.1612 9.37056L29.5459 13.2525C29.4204 13.6195 29.3028 13.9539 29.193 14.2883C29.193 14.2883 29.1773 14.2883 29.1695 14.2801C29.0989 14.4759 29.0362 14.6716 28.9421 14.9163C28.9421 14.9081 28.9813 14.9897 29.0127 15.0794C29.1146 15.3566 28.8872 15.4871 28.8088 15.6747C28.7539 15.8052 28.7539 15.9765 28.7382 16.1233C28.8088 16.1396 28.8794 16.1477 29.0283 16.1803C28.6598 16.5066 28.6128 16.9143 28.7774 17.4118C28.9343 17.8767 29.0597 18.4231 29.4675 18.6514C29.8438 18.8635 30.0712 19.4588 30.5731 19.3283C30.6985 19.4425 30.8083 19.5404 30.9416 19.6627C30.973 19.4996 30.9887 19.4181 30.9965 19.4017C31.1612 19.4344 31.2631 19.4915 31.3494 19.467C31.4043 19.4507 31.4121 19.3283 31.4435 19.2713C31.514 19.2468 31.6081 19.2386 31.6787 19.1815C31.8434 19.0511 31.9767 18.8635 32.1649 18.7738C32.5334 18.5944 32.8549 18.3986 32.9647 17.9582C32.9804 17.8848 33.0901 17.8441 33.1529 17.787C33.2313 17.7054 33.3097 17.632 33.3803 17.5423C33.5136 17.3629 33.6077 17.1101 33.788 17.0122C34.2977 16.7268 34.6506 16.2945 34.9642 15.8215C35.0505 15.691 35.1367 15.5687 35.223 15.4382C35.2308 15.4464 35.2857 15.5034 35.3249 15.5361C35.4896 15.3648 35.6386 15.218 35.7562 15.0957C35.6856 14.9407 35.6229 14.8102 35.5523 14.6553C35.6778 14.6797 35.7719 14.6879 35.8267 14.7042C35.9914 15.2506 36.0228 15.8215 36.1012 16.3761C36.2031 17.0938 36.7755 17.4689 37.0814 18.0398C37.0186 18.0072 36.9559 17.9827 36.901 17.9501C37.1049 18.2844 37.3088 18.627 37.5832 18.8635C37.8655 19.1 38.2183 19.2386 38.5947 19.4507C38.6418 19.6219 39.5514 20.0786 39.7631 19.94C39.6298 19.8992 39.4886 19.8584 39.3475 19.8177C39.3553 19.7769 39.3632 19.7443 39.371 19.7035C39.5514 19.7687 39.7239 19.8421 39.9042 19.9155C40.0924 19.9971 40.2884 20.1439 40.4688 20.152C41.1902 20.1928 41.9037 20.2091 42.6173 20.201C42.9623 20.201 43.3073 20.1602 43.6445 20.1031C43.8719 20.0623 44.0836 19.9645 44.3032 19.8992C44.3894 20.1439 44.5619 20.1113 44.8913 19.785C44.7266 19.834 44.5855 19.8666 44.4522 19.9074C44.4365 19.8748 44.4208 19.8421 44.4051 19.8177C44.6168 19.7116 44.8207 19.5975 45.0795 19.467C45.0638 19.6546 45.0481 19.785 45.0403 19.9563C45.1736 19.8421 45.2598 19.6872 45.3461 19.6953C45.8636 19.7443 46.2243 19.467 46.5772 19.1979C46.734 19.0755 46.8594 19.0021 47.0241 19.1408C47.1731 19.0429 47.3142 18.9532 47.4632 18.8553C47.4397 18.7819 47.424 18.7004 47.4005 18.6188C47.424 18.6107 47.4475 18.6025 47.4711 18.5862C47.526 18.6759 47.5808 18.7656 47.6436 18.8635C47.9886 18.7004 48.412 18.6351 48.6865 18.3008C48.7022 18.3089 48.7649 18.3415 48.7884 18.366C48.8982 18.1947 48.9923 18.0479 49.0864 17.9011L49.1413 17.9664C49.2824 17.8196 49.4157 17.6809 49.5725 17.526C49.4706 17.4852 49.4157 17.4607 49.3608 17.4363C49.3608 17.4118 49.3608 17.3792 49.3608 17.3547C49.4784 17.3547 49.5961 17.3547 49.6745 17.3547C49.7215 17.2079 49.7686 17.0611 49.8235 16.9143C49.9019 16.9551 49.9724 17.0122 50.0509 17.0367C50.1057 17.053 50.1763 17.0204 50.2234 16.9877C50.2469 16.9714 50.239 16.898 50.2234 16.8572C50.1136 16.6452 50.0038 16.4332 49.9019 16.2374L49.894 16.2293ZM48.6159 17.8277C48.5375 17.9664 48.4355 18.0806 48.3258 18.1947C48.2238 18.3008 48.0984 18.3986 47.9886 18.4965C48.1376 18.3171 48.0121 17.9175 48.3728 17.9256C48.3885 17.9256 48.3807 17.7951 48.412 17.738C48.4512 17.6809 48.514 17.6402 48.5688 17.5912C48.5845 17.6646 48.6394 17.7707 48.6159 17.8196V17.8277Z" fill="black"/>
<path d="M28.2364 6.86682C27.9855 6.69556 27.6483 6.65478 27.3504 6.58138C27.0289 6.49983 26.9426 6.63032 27.0054 6.96469C27.0524 7.22566 27.0994 7.51926 27.0367 7.76392C26.8956 8.28587 26.6917 8.78335 26.48 9.28083C26.0566 10.284 25.6174 11.2871 25.1626 12.2739C24.7941 13.0731 24.3942 13.8642 24.01 14.6553C23.9943 14.6797 23.9865 14.7042 23.9708 14.7287C23.7042 14.9733 23.4297 15.218 23.1318 15.4056C22.6613 15.6992 22.1124 15.8541 21.5949 16.0743C21.6184 16.1232 21.6497 16.1966 21.689 16.27C21.6811 16.3108 21.6733 16.3434 21.6654 16.3842C21.4067 16.0009 21.1793 16.1722 20.9519 16.3353C20.9284 16.3516 20.8813 16.3353 20.8499 16.3516C20.1599 16.5636 19.4777 16.8001 18.772 16.9714C17.8781 17.1834 16.9607 17.3384 16.0589 17.5178C15.808 17.5668 15.6276 17.5178 15.6433 17.1834C15.659 16.8817 15.6433 16.5718 15.6825 16.27C15.6904 16.2048 15.8707 16.1069 15.957 16.1151C16.5372 16.164 17.0704 16.0254 17.5723 15.7481C18.1525 15.43 18.6779 15.0059 19.2738 14.7205C19.6973 14.5166 20.0031 14.1496 20.4187 13.9539C20.4736 13.9294 20.4736 13.7908 20.5049 13.6848C20.599 13.6521 20.7402 13.6114 20.8891 13.5624C20.7088 13.2607 21.0303 13.2607 21.1401 13.1791C21.3518 13.016 21.8144 13.3341 21.8301 12.7795C21.8301 12.7632 21.9556 12.7632 21.9791 12.7224C22.1202 12.5267 22.5358 12.6001 22.4417 12.2657C22.5829 12.1515 22.6926 12.0863 22.7789 11.9966C22.9044 11.8498 23.0141 11.6867 23.1239 11.5317C23.1788 11.4502 23.2259 11.3442 23.2807 11.2544C23.3827 11.0913 23.5081 10.9364 23.5787 10.757C23.6571 10.5612 23.6806 10.341 23.7199 10.129C23.8139 9.63152 23.6336 9.20743 23.3199 8.87306C22.9592 8.47344 22.5358 8.13092 22.1359 7.77208C22.0026 7.64975 21.8615 7.44586 21.7125 7.44586C21.2734 7.42139 20.8421 7.28275 20.3873 7.51926C19.7365 7.86179 19.0464 8.11461 18.3799 8.42451C18.0349 8.57947 17.7134 8.7752 17.3606 8.97093C17.4625 9.10957 17.5174 9.18297 17.5409 9.21559C17.3135 9.28083 16.8979 9.32161 16.8822 9.41132C16.843 9.75385 16.5215 9.81094 16.4353 10.0067C16.4902 10.0719 16.5294 10.1208 16.5686 10.1698C16.5294 10.2024 16.4902 10.2595 16.451 10.2595C16.0746 10.235 15.8864 10.4552 15.808 10.8385C15.7217 10.7814 15.6668 10.7325 15.5884 10.6754C15.5884 10.8385 15.5963 10.9609 15.6041 11.0669C15.51 11.0995 15.3532 11.1076 15.3297 11.1647C15.1964 11.548 14.8749 11.7438 14.624 12.0047C14.4279 12.2086 14.2789 12.5022 14.2084 12.7795C14.0515 13.3667 13.9496 13.9702 13.8398 14.5656C13.8006 14.7694 13.8555 14.9978 13.832 15.2017C13.7849 15.5524 13.7144 15.8949 13.6752 16.1396C13.8398 16.2537 13.9261 16.3108 14.0202 16.3679C14.0045 16.3924 13.9888 16.425 13.9731 16.4495C13.8947 16.4331 13.8085 16.4087 13.683 16.3761C13.8398 17.053 13.9653 17.6483 14.326 18.2192C14.8592 19.0592 15.5335 19.5322 16.4745 19.6138C16.7254 19.6382 16.9763 19.6709 17.2351 19.467C17.4233 19.3202 17.7918 19.467 18.0349 19.3609C18.5995 19.1244 19.1327 18.8308 19.6737 18.5454C19.8384 18.4557 19.9639 18.3089 20.1207 18.211C20.3873 18.0398 20.6696 17.9011 20.9284 17.7217C21.3047 17.4607 21.6733 17.1834 22.0653 16.898C22.0653 16.898 22.0497 16.8328 22.0261 16.7104C22.1751 16.7757 22.2692 16.8246 22.2771 16.8246C22.5045 16.5636 22.6926 16.319 22.9122 16.1069C22.9906 16.0254 23.171 16.058 23.2415 15.9683C23.3592 15.8378 23.4689 15.6992 23.5787 15.5605C23.4297 15.8704 23.2729 16.1803 23.1161 16.4821C22.7789 17.1182 22.4104 17.738 22.0653 18.3823C21.2577 19.8992 20.3403 21.3427 19.3052 22.7047L17.6742 24.7354C17.2665 25.1513 16.8509 25.5754 16.4431 25.9913C16.1765 26.2604 15.9334 26.554 15.6512 26.815C15.314 27.1168 14.9611 27.4022 14.6004 27.6632C13.8712 28.1851 13.1419 28.6908 12.397 29.1801C12.1147 29.3677 11.7697 29.4574 11.4796 29.6286C11.213 29.7836 10.9699 30.0038 10.7111 30.1751C10.57 30.2648 10.421 30.3708 10.2564 30.3953C9.8094 30.4605 9.4487 30.6725 9.11936 30.9824C8.97822 31.1211 8.75867 31.17 8.56263 31.2434C8.15489 31.3984 7.74714 31.5696 7.32371 31.6838C6.91596 31.7898 6.50037 31.8306 6.07694 31.8795C5.78682 31.9122 5.49669 31.9366 5.2144 31.8958C4.40675 31.7817 3.59125 31.6593 2.79144 31.4799C2.43858 31.3984 2.10925 31.17 1.77207 30.9988C1.28591 30.7459 1.12909 30.3953 1.13693 29.9712L0.368482 28.7071C0.313593 28.8294 0.258704 28.9436 0.203815 29.0659C-0.0157412 29.5308 -0.0941541 29.9956 0.274387 30.4442C0.47826 30.697 0.635086 30.9824 0.799753 31.2597C1.2075 31.9692 1.73287 32.5646 2.43858 32.9397C2.98747 33.2333 3.58341 33.4209 4.14799 33.6819C5.20656 34.1631 6.30434 34.0489 7.38644 33.8287C7.99806 33.7064 8.594 33.4698 9.18994 33.2904C9.46438 33.2089 9.78587 33.2089 10.0211 33.0539C10.5073 32.744 11.1032 32.6625 11.558 32.271C11.6207 32.2139 11.7384 32.2465 11.8325 32.2302C11.9422 32.2139 12.0677 32.2302 12.1461 32.165C12.6166 31.7817 13.3145 31.8143 13.683 31.2434C13.7065 31.2026 13.8006 31.2108 13.8477 31.1863C14.1143 31.0558 14.3809 30.9254 14.6318 30.7786C14.7965 30.6807 14.9062 30.4686 15.165 30.6154C15.2277 30.6481 15.4551 30.485 15.5179 30.3626C15.6982 30.0201 16.0511 29.7673 16.4353 29.7673C16.6627 29.7673 16.796 29.6939 16.7489 29.4166C16.7097 29.1638 16.8509 29.1475 17.0548 29.1719C17.1488 29.1801 17.2822 29.1312 17.3527 29.0578C17.5174 28.9028 17.6428 28.7071 17.8075 28.5521C18.082 28.2911 18.3721 28.0465 18.6465 27.7774C18.8818 27.549 19.0935 27.2962 19.313 27.0515C19.5875 26.7253 19.9011 26.4236 20.1207 26.0647C20.254 25.8445 20.3559 25.6896 20.4579 25.5999L22.1124 23.3571C22.2143 23.1369 22.2614 22.9983 22.3319 22.8678C22.6221 22.354 22.92 21.8484 23.2102 21.3346C23.2651 21.2367 23.2729 21.1225 23.3043 21.0165C23.3356 20.9105 23.367 20.8045 23.414 20.7066C23.6963 20.1928 23.9786 19.6872 24.2687 19.1815C24.4961 18.7901 24.4569 18.2273 24.9509 17.9908C25.0137 17.9664 25.0215 17.8114 25.045 17.7135C25.0686 17.6157 25.0686 17.5097 25.1078 17.42C25.3587 16.9388 25.6331 16.4658 25.8684 15.9764C26.2918 15.1038 26.7152 14.2393 27.1151 13.3504C27.7816 11.8824 28.4874 10.4226 28.8716 8.83228C29.0598 8.04936 28.8716 7.2746 28.2678 6.88313L28.2364 6.86682ZM17.6429 11.7275C17.8702 11.4339 18.2231 11.2381 18.4897 10.969C18.9602 10.496 19.564 10.2187 20.0815 9.81909C20.6225 9.40316 21.2106 9.27268 21.8458 9.24821C21.9242 9.24821 22.081 9.43579 22.0653 9.50918C22.0105 9.87618 21.9477 10.2513 21.8144 10.602C21.7674 10.7243 21.54 10.7814 21.3753 10.8141C21.2106 11.0016 21.046 11.1974 20.8578 11.4094C20.8891 11.4746 20.9284 11.548 20.9676 11.6296C20.944 11.6459 20.9205 11.6622 20.9048 11.6785C20.8499 11.6133 20.7872 11.548 20.7166 11.4665C19.415 12.6083 17.9173 13.3749 16.2001 13.7745C16.6784 13.0894 17.1332 12.3881 17.6429 11.7356V11.7275Z" fill="black"/>
<path d="M18.7169 22.9249C17.5093 22.7292 16.2939 22.5335 15.0864 22.3704C13.3142 22.1257 11.5499 22.2562 9.78564 22.4601C8.02135 22.6639 6.32763 23.1614 4.73585 23.9851C3.63023 24.556 2.64223 25.3063 1.81105 26.2686C1.18374 27.0026 0.752474 27.8508 0.344727 28.7153L0.627013 29.1801L1.11317 29.9712C1.11317 29.751 1.16806 29.5064 1.23863 29.2454C1.29352 29.0415 1.35625 28.8458 1.41898 28.6419C1.45035 28.544 1.48956 28.438 1.52092 28.3401C2.7128 25.763 6.359 24.4908 6.359 24.4908C6.359 24.4908 6.359 24.4908 6.36684 24.4908C6.68833 24.3847 7.00198 24.2787 7.32348 24.1809C7.69202 24.0667 8.0684 23.9607 8.44478 23.871C9.7778 23.5692 11.1187 23.4469 12.483 23.6915C13.7455 23.9199 15.0236 24.0911 16.2861 24.3113C16.733 24.3847 17.1721 24.5071 17.6191 24.6049C17.6269 24.6539 17.6426 24.7028 17.6505 24.7517L19.2814 22.721C19.1089 22.9494 18.9521 22.9902 18.7012 22.9494L18.7169 22.9249Z" fill="url(#paint1_linear_345_1125)"/>
</g>
<defs>
<linearGradient id="paint0_linear_345_1125" x1="20.4263" y1="23.3001" x2="51.5092" y2="23.3001" gradientUnits="userSpaceOnUse">
<stop stop-color="#E85414"/>
<stop offset="0.01" stop-color="#E85414"/>
<stop offset="1" stop-color="#EA5514"/>
</linearGradient>
<linearGradient id="paint1_linear_345_1125" x1="-0.706007" y1="26.0974" x2="19.2971" y2="26.0974" gradientUnits="userSpaceOnUse">
<stop/>
<stop offset="0.46" stop-color="#5D1812"/>
<stop offset="0.47" stop-color="#661C12"/>
<stop offset="0.55" stop-color="#8A2D14"/>
<stop offset="0.62" stop-color="#A93A15"/>
<stop offset="0.7" stop-color="#C04516"/>
<stop offset="0.79" stop-color="#D14D17"/>
<stop offset="0.88" stop-color="#DA5117"/>
<stop offset="1" stop-color="#DE5318"/>
</linearGradient>
<clipPath id="clip0_345_1125">
<rect width="200" height="34" fill="white"/>
</clipPath>
</defs>
</svg>
