<svg width="180" height="30" viewBox="0 0 180 30" fill="none" xmlns="http://www.w3.org/2000/svg">
<g clip-path="url(#clip0_345_1009)">
<path d="M19.0308 6.18397C19.0308 6.18397 18.9397 0.883975 24.978 0.823975H30.596C31.7855 0.823975 32.8282 1.67597 32.8282 2.71997C32.8282 3.76397 31.8053 4.63997 30.596 4.63997H27.9872C26.2546 4.63997 26.4013 5.91197 26.4013 5.91197V8.39997H29.5493C30.7982 8.39997 31.8211 9.19998 31.8211 10.248C31.8211 11.296 30.9251 12.112 29.7357 12.112H26.4053V24.68C26.4053 26.448 24.8908 28.02 22.7815 28.02C20.6722 28.02 19.0308 26.588 19.0308 24.8V6.18397Z" fill="#0545B1"/>
<path d="M39.9687 24.6519C39.9687 26.5639 38.4502 28.0199 36.3488 28.0199C34.2475 28.0199 32.5625 26.5639 32.5625 24.7999V13.4759C32.5625 13.4759 32.5625 8.48395 38.6801 8.48395H43.5251C46.0625 8.48395 46.0625 10.4439 46.0625 10.4439C46.0625 10.4439 46.0625 12.3279 43.6836 12.3279H41.5506C39.9647 12.3279 39.9647 13.5639 39.9647 13.5639L39.9687 24.6519Z" fill="#0545B1"/>
<path d="M75.9491 8.34796C82.2729 8.34796 82.2729 13.472 82.2729 13.472V18.8C82.2729 19.868 81.246 20.652 79.9971 20.652H73.0231V22.932C73.0231 22.932 73.0945 24.132 74.7042 24.132H78.6134C79.8703 24.132 80.8575 24.976 80.8575 26.044C80.8575 27.112 79.8385 28.044 78.6134 28.044H71.7623C65.7319 28.044 65.7319 22.988 65.7319 22.988V13.472C65.7319 13.472 65.7795 8.40396 71.8059 8.34796H75.9491ZM74.7359 12.348C73.0945 12.348 73.0945 13.548 73.0945 13.548V16.848H77.761V13.648C77.761 13.648 77.761 12.356 76.2822 12.356L74.7359 12.348Z" fill="#0545B1"/>
<path d="M98.116 24.204C99.3688 24.172 100.495 25.156 100.495 26.224C100.495 27.292 99.3728 28.02 98.116 28.02H88.2675C86.1939 28.02 84.6992 26.756 84.6992 24.964V11.576C84.6992 9.80396 86.408 8.34796 88.4856 8.34796H98.4966C99.7574 8.34796 100.741 9.19196 100.741 10.252C100.741 11.312 99.7574 12.108 98.4966 12.108H93.1719C93.0585 12.0933 92.9433 12.103 92.8338 12.1363C92.7244 12.1696 92.6231 12.2259 92.5367 12.3014C92.4503 12.3769 92.3806 12.4699 92.3322 12.5745C92.2839 12.679 92.2579 12.7926 92.256 12.908V23.384C92.256 23.384 92.1926 24.184 93.1798 24.184L98.116 24.204Z" fill="#0545B1"/>
<path d="M117.619 13.432V24.732C117.619 26.532 115.898 28.02 113.789 28.02H107.402C101.102 28.02 101.102 22.904 101.102 22.904V20.372C101.102 20.372 101.498 15.748 107.398 15.772H110.098V13.456C110.098 13.456 110.098 12.256 108.615 12.256H105.189C103.936 12.256 102.723 11.512 102.723 10.444C102.723 9.37599 103.873 8.35199 105.102 8.35199H111.565C117.619 8.39999 117.619 13.432 117.619 13.432ZM107.096 24.144H110.09V19.636H107.096C105.463 19.636 105.621 21.888 105.621 21.888C105.621 21.888 105.463 24.144 107.096 24.144Z" fill="#0545B1"/>
<path d="M135.198 3.392C135.198 3.392 135.198 1.664 132.93 1.664H117.202C114.93 1.664 114.93 3.34 114.93 3.34C114.93 3.34 114.93 5 117.055 5H120.346C121.761 5 121.761 6.084 121.761 6.084V16.316C121.761 17.996 123.117 19.28 125.001 19.28C126.884 19.28 128.383 17.996 128.383 16.44V6.068C128.406 5.832 128.585 5.048 129.79 5.048H133.077C135.198 5.048 135.198 3.392 135.198 3.392Z" fill="#0545B1"/>
<path d="M16.5251 13.424V24.732C16.5251 26.532 14.8004 28.02 12.6952 28.02H6.3C0 28.02 0 22.9 0 22.9V20.368C0 20.368 0.396476 15.744 6.3 15.764H9V13.448C9 13.448 9 12.248 7.51718 12.248H4.09163C2.83877 12.248 1.61762 11.508 1.61762 10.436C1.61762 9.36399 2.77533 8.34399 4.02423 8.34399H10.4908C16.5251 8.37599 16.5251 13.424 16.5251 13.424ZM5.99471 24.14H8.98811V19.636H5.99471C4.30176 19.636 4.51982 21.888 4.51982 21.888C4.51982 21.888 4.36123 24.14 5.99471 24.14Z" fill="#0545B1"/>
<path d="M56.9933 8.34796C63.3171 8.34796 63.3171 13.472 63.3171 13.472V18.8C63.3171 19.868 62.2902 20.652 61.0413 20.652H54.0713V22.932C54.0713 22.932 54.1387 24.132 55.7484 24.132H59.6576C60.9144 24.132 61.9017 24.976 61.9017 26.044C61.9017 27.112 60.8827 28.044 59.6576 28.044H52.7906C46.7603 28.044 46.7603 22.988 46.7603 22.988V13.472C46.7603 13.472 46.8078 8.40396 52.8343 8.34796H56.9933ZM55.7801 12.348C54.1387 12.348 54.1387 13.548 54.1387 13.548V16.848H58.8052V13.648C58.8052 13.648 58.8052 12.356 57.3263 12.356L55.7801 12.348Z" fill="#0545B1"/>
<path d="M149.035 2.23198C147.556 1.22798 145.467 1.74798 144.373 3.39598L138.425 11.46L136.265 6.79998C135.868 5.92398 134.155 5.50798 133.247 5.93198C132.339 6.35598 131.776 7.67198 132.177 8.54798L136.11 17.664C136.419 18.328 137.117 18.864 138.223 19.148C138.973 19.293 139.749 19.2121 140.454 18.9156C141.159 18.619 141.762 18.1197 142.188 17.48L149.721 7.03598C150.839 5.37598 150.518 3.23198 149.035 2.23198Z" fill="#0545B1"/>
<path d="M172.554 0.508007C172.613 0.627726 172.646 0.758832 172.65 0.892429C172.654 1.02603 172.63 1.15899 172.579 1.28229C172.528 1.4056 172.451 1.51637 172.354 1.60707C172.256 1.69778 172.141 1.76631 172.015 1.80801L166.421 4.37201C166.151 4.50878 165.851 4.57665 165.549 4.56968C165.247 4.5627 164.952 4.4811 164.688 4.33201L161.072 2.60401C160.961 2.53475 160.865 2.44252 160.792 2.33338C160.718 2.22423 160.668 2.10063 160.646 1.97069C160.623 1.84076 160.627 1.70741 160.659 1.57942C160.691 1.45142 160.749 1.33167 160.83 1.22801C160.908 1.12957 161.006 1.04835 161.116 0.989387C161.226 0.930419 161.348 0.89496 161.472 0.885209C161.597 0.875458 161.722 0.891623 161.84 0.9327C161.958 0.973778 162.066 1.03889 162.159 1.12401L164.934 3.38001C165.052 3.48159 165.192 3.55343 165.343 3.58959C165.494 3.62576 165.651 3.62521 165.802 3.58801C165.916 3.55507 166.024 3.50518 166.123 3.44001L171.242 0.132007C171.351 0.0650908 171.473 0.0216515 171.6 0.00439838C171.727 -0.0128547 171.856 -0.00355139 171.979 0.031728C172.102 0.0670074 172.217 0.127506 172.316 0.20945C172.415 0.291395 172.496 0.393027 172.554 0.508007Z" fill="#0545B1"/>
<mask id="mask0_345_1009" style="mask-type:luminance" maskUnits="userSpaceOnUse" x="152" y="5" width="27" height="26">
<path d="M153.492 26C152.918 23.1283 152.634 20.2054 152.643 17.276C152.626 14.989 152.802 12.7046 153.171 10.448C153.239 10.0726 153.333 9.70243 153.452 9.34C153.655 8.73426 153.984 8.17978 154.419 7.71448C154.853 7.24918 155.382 6.88403 155.97 6.644C156.593 6.37198 157.239 6.15647 157.901 6C160.387 5.38979 162.934 5.07168 165.493 5.052H165.671C168.2 5.05788 170.717 5.37625 173.169 6C173.861 6.18629 174.543 6.41063 175.211 6.672C175.211 6.672 177.221 7.472 177.756 9.34C177.863 9.68821 177.95 10.0421 178.018 10.4C178.368 12.6778 178.549 14.9789 178.557 17.284C178.558 20.2301 178.266 23.1688 177.685 26.056C177.528 26.8126 177.157 27.5075 176.619 28.0573C176.08 28.6071 175.396 28.9886 174.648 29.156L174.505 29.184C171.572 29.7703 168.59 30.065 165.6 30.064C162.616 30.0691 159.639 29.7798 156.711 29.2L156.513 29.16C155.603 28.9531 154.794 28.429 154.229 27.68C153.841 27.1954 153.586 26.6158 153.492 26Z" fill="white"/>
</mask>
<g mask="url(#mask0_345_1009)">
<path d="M179.699 10.952C179.302 7.99201 178.628 6.30001 174.81 5.42801C172.188 4.82788 169.514 4.48363 166.825 4.40001C166.393 4.38001 165.957 4.38001 165.521 4.40001C162.834 4.48497 160.161 4.83057 157.54 5.43201C154.713 6.08001 153.607 7.17201 153.064 8.90001C152.969 9.20401 153.88 8.72001 153.813 9.06401C153.746 9.40801 154.023 13.948 153.972 14.332C153.575 17.248 152.291 17.376 152.291 17.48C152.277 19.6585 152.395 21.8359 152.643 24C153.04 26.96 153.718 28.648 157.536 29.524C160.977 30.324 163.483 30.256 165.517 30.348H166.821C168.867 30.256 171.361 30.308 174.806 29.524C178.624 28.648 179.302 26.96 179.695 24C179.947 21.8348 180.066 19.656 180.052 17.476C180.052 17.42 179.477 16.276 178.91 14.764C178.854 14.616 178.482 15.392 178.426 15.24C178.03 14.144 177.994 11.992 177.867 10.9C177.851 10.724 179.723 11.124 179.699 10.952Z" fill="#0545B1"/>
<path d="M170.037 13.424C170.009 12.4 169.997 11.392 170.037 10.38C170.03 9.999 170.121 9.62269 170.3 9.28718C170.479 8.95167 170.741 8.66822 171.06 8.46403C171.408 8.26086 171.799 8.14436 172.201 8.12419C172.603 8.10402 173.004 8.18075 173.371 8.34803C174.56 8.88003 176.075 9.69603 176.075 9.69603C176.951 10.176 177.689 10.58 178.609 11.184C178.657 11.2082 178.703 11.2363 178.747 11.268C179.061 11.47 179.32 11.748 179.501 12.0768C179.681 12.4056 179.777 12.7747 179.78 13.1504C179.782 13.5262 179.692 13.8966 179.516 14.2281C179.341 14.5595 179.086 14.8414 178.775 15.048C177.903 15.632 177.146 16.188 176.249 16.748C175.491 17.2338 174.706 17.6758 173.898 18.072C173.516 18.2798 173.093 18.399 172.66 18.4212C172.226 18.4433 171.794 18.3678 171.393 18.2C171.049 17.9945 170.761 17.7067 170.553 17.3621C170.346 17.0174 170.225 16.6266 170.203 16.224C170.203 16.224 170.088 15.108 170.037 13.424Z" fill="#00BBED"/>
<path d="M171.575 21.572C168.677 24.292 162.393 24.296 159.574 21.572C159.464 21.4719 159.32 21.4188 159.172 21.4239C159.024 21.429 158.883 21.4919 158.78 21.5993C158.678 21.7068 158.62 21.8503 158.62 21.9997C158.62 22.1491 158.678 22.2926 158.781 22.4C162.036 25.536 169.01 25.54 172.344 22.4C172.399 22.3488 172.443 22.2872 172.474 22.2188C172.505 22.1504 172.522 22.0764 172.525 22.0012C172.528 21.926 172.516 21.851 172.49 21.7804C172.464 21.7099 172.425 21.6452 172.374 21.59C172.323 21.5349 172.262 21.4903 172.194 21.459C172.126 21.4276 172.053 21.41 171.979 21.4073C171.904 21.4045 171.83 21.4165 171.76 21.4427C171.69 21.4689 171.626 21.5088 171.571 21.56L171.575 21.572Z" fill="white"/>
<path d="M169.259 17.04C169.258 17.0308 169.258 17.0213 169.259 17.012V16.84L168.863 12.532V12.412C168.852 12.3189 168.835 12.2267 168.811 12.136C168.709 11.7186 168.488 11.3403 168.176 11.047C167.864 10.7537 167.475 10.5582 167.055 10.484C166.933 10.4631 166.81 10.4524 166.686 10.452H164.494C164.388 10.4519 164.282 10.4599 164.177 10.476C163.747 10.5416 163.346 10.7338 163.025 11.0284C162.703 11.323 162.475 11.707 162.369 12.132C162.369 12.204 162.337 12.28 162.325 12.352L162.305 12.584L161.909 16.864V16.964C161.907 16.9893 161.907 17.0147 161.909 17.04C161.907 17.068 161.907 17.0961 161.909 17.124C161.909 17.6146 162.071 18.0912 162.367 18.4797C162.664 18.8682 163.08 19.1467 163.55 19.272C163.732 19.3219 163.92 19.3474 164.109 19.348H167.087C167.208 19.3475 167.328 19.3368 167.448 19.316C167.961 19.2283 168.428 18.9601 168.764 18.559C169.101 18.1579 169.286 17.6496 169.287 17.124L169.259 17.04Z" fill="#1AC62F"/>
<path d="M161.013 14.668C160.168 17.512 157.643 18.96 154.852 18.472C151.953 17.968 149.86 13.832 151.303 11.272C152.54 9.08804 155.236 7.47204 158.043 8.34404C161.037 9.28404 161.865 11.796 161.013 14.668Z" fill="#F2338A"/>
<path d="M174.092 15.184C175.119 15.184 175.952 14.3441 175.952 13.308C175.952 12.2719 175.119 11.432 174.092 11.432C173.065 11.432 172.233 12.2719 172.233 13.308C172.233 14.3441 173.065 15.184 174.092 15.184Z" fill="#1A1919"/>
<path d="M156.79 15.184C157.817 15.184 158.65 14.3441 158.65 13.308C158.65 12.2719 157.817 11.432 156.79 11.432C155.763 11.432 154.931 12.2719 154.931 13.308C154.931 14.3441 155.763 15.184 156.79 15.184Z" fill="#1A1919"/>
</g>
</g>
<defs>
<clipPath id="clip0_345_1009">
<rect width="180" height="30" fill="white"/>
</clipPath>
</defs>
</svg>
