<svg width="300" height="222" viewBox="0 0 300 222" fill="none" xmlns="http://www.w3.org/2000/svg">
<g clip-path="url(#clip0_345_489)">
<path d="M145.569 219.629L5.83725 137.159C1.38662 134.666 -2.42821 130.566 1.90752 127.889L142.152 47.1475C144.259 45.8396 147.453 44.9905 149.59 46.2296L296.239 131.247C300.69 133.824 301.486 141.029 297.013 143.615L163.984 219.491C158.3 222.788 151.299 222.834 145.561 219.621L145.569 219.629Z" fill="#FFC34B"/>
<path d="M245.62 132.707L158.752 179.817L111.343 160.825L193.752 112.69L245.62 132.707Z" fill="url(#paint0_linear_345_489)"/>
<path d="M195.966 110.518L85.581 172.275L27.2249 133.817L166.589 59.8905L195.966 110.518Z" fill="url(#paint1_linear_345_489)"/>
<path d="M70.5897 71.1343L193.491 0.512504C195.284 -0.527739 197.582 0.07652 198.624 1.86635C198.907 2.35588 199.076 2.89894 199.122 3.46496L207.004 101.324C207.127 102.778 206.391 104.162 205.127 104.889L84.8378 172.917C83.0376 173.942 80.7395 173.315 79.7207 171.51C79.4756 171.074 79.3147 170.6 79.2534 170.103L68.7282 74.7751C68.575 73.3065 69.3027 71.8762 70.5897 71.1419V71.1343Z" fill="#F7F7F7"/>
<g opacity="0.9">
<path d="M199.505 8.49794L199.099 3.46501C198.938 1.39982 197.138 -0.145248 195.069 0.0153778C194.503 0.0612708 193.959 0.229545 193.468 0.512553L70.5897 71.1343C69.2951 71.8686 68.552 73.3066 68.7129 74.7905L69.6551 83.0971C71.5319 81.5291 199.512 8.49794 199.512 8.49794H199.505Z" fill="#E2E2E2"/>
</g>
<g opacity="0.72">
<path d="M74.1211 77.1464C74.8403 77.1464 75.4233 76.2012 75.4233 75.0353C75.4233 73.8694 74.8403 72.9242 74.1211 72.9242C73.4019 72.9242 72.8188 73.8694 72.8188 75.0353C72.8188 76.2012 73.4019 77.1464 74.1211 77.1464Z" fill="#FF5F57"/>
<path d="M78.2424 74.7369C78.9616 74.7369 79.5447 73.7918 79.5447 72.6258C79.5447 71.4599 78.9616 70.5148 78.2424 70.5148C77.5232 70.5148 76.9402 71.4599 76.9402 72.6258C76.9402 73.7918 77.5232 74.7369 78.2424 74.7369Z" fill="#FEBC2E"/>
<path d="M81.835 72.9165C82.5542 72.9165 83.1372 71.9713 83.1372 70.8054C83.1372 69.6395 82.5542 68.6943 81.835 68.6943C81.1158 68.6943 80.5327 69.6395 80.5327 70.8054C80.5327 71.9713 81.1158 72.9165 81.835 72.9165Z" fill="#28C840"/>
</g>
<g opacity="0.76">
<path d="M122.228 98.104L120.037 69.1532C120.022 68.3654 119.371 67.7382 118.582 67.7534C118.344 67.7534 118.114 67.8223 117.915 67.937L86.347 86.9673C85.9104 87.2197 85.6499 87.6863 85.6499 88.1835L88.5378 114.863C88.5532 115.65 89.2043 116.278 89.9933 116.262C90.2308 116.262 90.4606 116.194 90.6597 116.079L121.523 99.3355C123.116 98.4712 121.692 96.0465 120.106 96.9108L89.2349 113.631L91.3568 114.847L89.5567 98.2876C89.2732 95.6794 89.6026 91.5949 88.5685 89.1779C87.948 87.7246 88.9515 88.956 87.8714 89.3308C88.4612 89.0478 89.0204 88.7113 89.5413 88.3212L119.34 70.4076L117.218 69.1608L119.393 98.0888C119.531 99.9092 122.35 99.9245 122.22 98.1193L122.228 98.104Z" fill="#121212"/>
<path d="M93.2871 130.076L125.736 112.537C127.329 111.673 125.912 109.248 124.319 110.113L91.8699 127.613C90.2766 128.478 91.6938 130.902 93.2871 130.038V130.076Z" fill="#121212"/>
<path d="M94.9495 138.811L127.398 121.272C128.992 120.408 127.575 117.983 125.981 118.848L93.5323 136.386C91.939 137.251 93.3561 139.675 94.9495 138.811Z" fill="#121212"/>
<path d="M94.9495 146.636L127.398 129.135C128.992 128.271 127.575 125.846 125.981 126.711L93.5323 144.211C91.939 145.076 93.3561 147.5 94.9495 146.636Z" fill="#121212"/>
<path d="M128.302 69.8722L160.751 52.3334C162.345 51.4691 160.928 49.0444 159.334 49.9087L126.885 67.4475C125.292 68.3118 126.709 70.7365 128.302 69.8722Z" fill="#121212"/>
<path d="M129.965 78.6454L162.414 61.1066C164.007 60.2423 162.59 57.8176 160.997 58.6819L128.532 76.2207C126.939 77.085 128.356 79.5097 129.949 78.6454H129.957H129.965Z" fill="#121212"/>
<path d="M129.965 86.4702L162.414 68.9314C164.007 68.0671 162.59 65.6424 160.997 66.5067L128.532 84.0455C126.939 84.9098 128.356 87.3345 129.949 86.4702H129.957H129.965Z" fill="#121212"/>
<path d="M131.78 98.2035L164.229 80.6647C165.823 79.8004 164.405 77.3757 162.812 78.24L130.363 95.7788C128.77 96.6431 130.187 99.0678 131.78 98.2035Z" fill="#121212"/>
<path d="M133.442 106.938L165.891 89.3997C167.485 88.5353 166.068 86.1107 164.474 86.975L132.025 104.514C130.432 105.378 131.849 107.803 133.442 106.938Z" fill="#121212"/>
<path d="M135.457 116.897L167.906 99.3585C169.5 98.4942 168.082 96.0695 166.489 96.9338L134.048 114.465C132.454 115.329 133.871 117.754 135.465 116.89H135.457V116.897Z" fill="#121212"/>
<path d="M135.457 125.663L167.906 108.124C169.5 107.26 168.082 104.835 166.489 105.699L134.048 123.238C132.454 124.102 133.871 126.527 135.465 125.663H135.457Z" fill="#121212"/>
<path d="M86.6916 89.5144C90.4452 90.0804 94.237 90.5928 98.0595 91.0518C100.878 91.3883 106.256 92.9716 108.83 91.1895C111.71 89.1855 113.426 83.6248 114.882 80.6264C116.605 77.0697 118.26 73.49 119.853 69.8721C120.382 68.6713 119.24 67.1568 117.93 67.9523L86.3546 86.952C85.6958 87.365 85.5043 88.237 85.9179 88.8948C86.3163 89.5144 87.1206 89.7285 87.7717 89.3843L119.34 70.3923L117.417 68.4724C116.168 71.356 114.851 74.2167 113.472 77.0697C111.894 80.3893 110.293 85.7282 107.604 88.3211C105.842 90.0115 100.564 88.5812 98.0518 88.3211C94.5051 87.8928 90.9584 87.4186 87.427 86.8908C85.6728 86.5543 84.8991 89.2619 86.6916 89.522V89.5144Z" fill="#121212"/>
</g>
<path d="M200.018 124.707L195.966 70.882L137.196 106.212L142.589 155.868L200.018 124.707Z" fill="#F4F4F4"/>
<path d="M137.196 106.212C137.196 106.212 171.928 111.405 175.513 110.197C179.098 108.988 195.958 70.8284 195.958 70.8284L137.196 106.212Z" fill="#F97803"/>
<path d="M245.62 132.708L241.552 78.8751L182.798 114.213L188.175 163.861L245.62 132.708Z" fill="white"/>
<path d="M182.798 114.213C182.798 114.213 217.529 119.406 221.114 118.198C224.699 116.989 241.56 78.8291 241.56 78.8291L182.798 114.213Z" fill="#F97803"/>
</g>
<defs>
<linearGradient id="paint0_linear_345_489" x1="144.532" y1="167.203" x2="189.134" y2="134.322" gradientUnits="userSpaceOnUse">
<stop offset="0.09" stop-color="#E69415" stop-opacity="0"/>
<stop offset="1" stop-color="#E69415" stop-opacity="0.8"/>
</linearGradient>
<linearGradient id="paint1_linear_345_489" x1="61.2983" y1="157.407" x2="77.9677" y2="144.304" gradientUnits="userSpaceOnUse">
<stop offset="0.09" stop-color="#E69415" stop-opacity="0"/>
<stop offset="1" stop-color="#E69415" stop-opacity="0.8"/>
</linearGradient>
<clipPath id="clip0_345_489">
<rect width="300" height="222" fill="white"/>
</clipPath>
</defs>
</svg>
