<svg width="56" height="56" viewBox="0 0 56 56" fill="none" xmlns="http://www.w3.org/2000/svg">
<mask id="mask0_94_253" style="mask-type:luminance" maskUnits="userSpaceOnUse" x="0" y="0" width="56" height="56">
<path d="M56 0H0V56H56V0Z" fill="white"/>
</mask>
<g mask="url(#mask0_94_253)">
<path d="M56.0117 28C56.0117 12.5417 43.4674 0 28.0058 0C12.5443 0 0 12.5417 0 28C0 41.9767 10.2455 53.5617 23.6299 55.6617V36.0967H16.5234V28H23.6299V21.8283C23.6299 14.805 27.8075 10.9317 34.2138 10.9317C37.2828 10.9317 40.4801 11.48 40.4801 11.48V18.375H36.9444C33.467 18.375 32.3817 20.5333 32.3817 22.75V28H40.1534L38.9164 36.0967H32.3934V55.6617C45.7779 53.5617 56.0233 41.9767 56.0233 28H56.0117Z" fill="#767676"/>
</g>
<path d="M38.9047 36.0969L40.1416 28.0002H32.37V22.7502C32.37 20.5336 33.4552 18.3752 36.9326 18.3752H40.4684V11.4802C40.4684 11.4802 37.2594 10.9319 34.2021 10.9319C27.8074 10.9319 23.6182 14.8052 23.6182 21.8286V28.0002H16.5117V36.0969H23.6182V55.6619C25.0418 55.8835 26.5005 56.0002 27.9941 56.0002C29.4878 56.0002 30.9464 55.8835 32.37 55.6619V36.0969H38.893H38.9047Z" fill="white"/>
</svg>
