<svg width="56" height="56" viewBox="0 0 56 56" fill="none" xmlns="http://www.w3.org/2000/svg">
<circle cx="28" cy="28" r="28" fill="#767676"/>
<path fill-rule="evenodd" clip-rule="evenodd" d="M25.7702 39.6493C27.363 39.6726 28.9581 39.6726 30.5508 39.6516C32.292 39.6283 34.0355 39.5793 35.7767 39.5093C36.007 39.4999 36.2481 39.4921 36.4974 39.4841C39.3551 39.3918 43.2942 39.2647 44.4449 36.327C45.4367 33.7966 45.4353 31.1062 45.4339 28.4363C45.4338 28.1694 45.4337 27.9026 45.4345 27.6363C45.4357 27.2946 45.4403 26.9497 45.4449 26.6028C45.4775 24.138 45.5115 21.5724 44.3342 19.3492C42.9673 16.7655 39.5348 16.6451 36.8452 16.5508C36.5815 16.5416 36.325 16.5326 36.0783 16.5215C30.8854 16.2882 25.6831 16.2719 20.4878 16.4749C20.3716 16.4794 20.2534 16.4838 20.1335 16.4883C17.1202 16.6005 13.032 16.7528 12.2979 20.3384C11.7418 23.0588 11.7088 25.8118 11.6853 28.5742C11.6834 28.8316 11.6802 29.0905 11.677 29.3502C11.6484 31.6679 11.6189 34.0607 12.4981 36.2383C13.1272 37.7921 14.5456 38.7114 16.1548 39.059C18.7022 39.6076 21.4263 39.6216 24.0693 39.6351C24.641 39.6381 25.2088 39.641 25.7702 39.6493ZM27.4933 24.3432C26.7481 23.9165 26.0034 23.4901 25.2589 23.0637C25.191 23.1608 25.1955 23.2699 25.2001 23.3778C25.2012 23.4046 25.2023 23.4314 25.2023 23.458V32.4566C25.2023 32.484 25.201 32.5117 25.1997 32.5394C25.1947 32.6464 25.1896 32.7546 25.2589 32.8509C25.2589 32.8509 31.1115 29.5449 33.8564 27.9888C31.7244 26.7659 29.6065 25.5532 27.4933 24.3432Z" fill="white"/>
</svg>
