<svg width="25" height="33" viewBox="0 0 25 33" fill="none" xmlns="http://www.w3.org/2000/svg">
<path d="M20.5909 10.03C20.4309 10.01 20.2609 10 20.0909 10L19.3109 9C18.7609 8.39 17.9709 8 17.0909 8H16.0909C15.3209 8 14.6209 8.3 14.0909 8.78C13.5609 8.3 12.8609 8 12.0909 8H11.0909C10.7409 8 10.4009 8.07 10.0909 8.18V3.5C10.0909 1.57 8.52092 0 6.59092 0C4.66092 0 3.09092 1.57 3.09092 3.5V17L0.880923 19.77C-0.189077 21.11 -0.289077 22.97 0.630923 24.42L4.92092 31.15C5.65092 32.3 6.93092 33 8.29092 33H20.0909C22.3009 33 24.0909 31.21 24.0909 29V14C24.0909 11.96 22.5609 10.28 20.5909 10.03ZM22.0909 29C22.0909 30.1 21.1909 31 20.0909 31H8.29092C7.60092 31 6.97092 30.65 6.60092 30.07L2.31092 23.34C1.85092 22.62 1.90092 21.68 2.44092 21.02L4.65092 18.25C4.93092 17.9 5.09092 17.45 5.09092 17V3.5C5.09092 2.67 5.76092 2 6.59092 2C7.42092 2 8.09092 2.67 8.09092 3.5V15C8.09092 15.55 8.54092 16 9.09092 16C9.64092 16 10.0909 15.55 10.0909 15V11C10.0909 10.45 10.5409 10 11.0909 10H12.0909C12.6409 10 13.0909 10.45 13.0909 11V15C13.0909 15.55 13.5409 16 14.0909 16C14.6409 16 15.0909 15.55 15.0909 15V11C15.0909 10.45 15.5409 10 16.0909 10H17.0909C17.6409 10 18.0909 10.45 18.0909 11V15C18.0909 15.55 18.5409 16 19.0909 16C19.6409 16 20.0909 15.55 20.0909 15V12C21.1909 12 22.0909 12.9 22.0909 14V29Z" fill="white"/>
</svg>
