<svg width="24" height="24" viewBox="0 0 24 24" fill="none" xmlns="http://www.w3.org/2000/svg">
<g clip-path="url(#clip0_218_342)">
<path d="M12 2C8.06 2 4.5 5.22 4.5 10.2C4.5 13.52 7 17.45 12 22C17 17.45 19.5 13.52 19.5 10.2C19.5 5.22 15.94 2 12 2ZM12 19.25C7.49 14.82 6.5 11.91 6.5 10.2C6.5 6.17 9.33 4 12 4C14.67 4 17.5 6.17 17.5 10.2C17.5 11.91 16.51 14.82 12 19.25Z" fill="black"/>
<path d="M12 11.5C13.1046 11.5 14 10.6046 14 9.5C14 8.39543 13.1046 7.5 12 7.5C10.8954 7.5 10 8.39543 10 9.5C10 10.6046 10.8954 11.5 12 11.5Z" fill="black"/>
</g>
<defs>
<clipPath id="clip0_218_342">
<rect width="24" height="24" fill="white"/>
</clipPath>
</defs>
</svg>
