<svg width="24" height="24" viewBox="0 0 24 24" fill="none" xmlns="http://www.w3.org/2000/svg">
<g clip-path="url(#clip0_218_350)">
<path d="M21 5H3C2.45 5 2 5.45 2 6V18C2 18.55 2.45 19 3 19H21C21.55 19 22 18.55 22 18V6C22 5.45 21.55 5 21 5ZM18.57 7L12 11.38L5.43 7H18.57ZM4 17V8.45L11.45 13.41C11.62 13.52 11.81 13.58 12 13.58C12.19 13.58 12.39 13.52 12.55 13.41L20 8.45V17H4Z" fill="black"/>
</g>
<defs>
<clipPath id="clip0_218_350">
<rect width="24" height="24" fill="white"/>
</clipPath>
</defs>
</svg>
