<svg width="24" height="24" viewBox="0 0 24 24" fill="none" xmlns="http://www.w3.org/2000/svg">
<g clip-path="url(#clip0_218_353)">
<path d="M18 2H6C5.45 2 5 2.45 5 3V21C5 21.55 5.45 22 6 22H18C18.55 22 19 21.55 19 21V3C19 2.45 18.55 2 18 2ZM17 19.5C17 19.78 16.78 20 16.5 20H7.5C7.22 20 7 19.78 7 19.5V4.5C7 4.22 7.22 4 7.5 4H16.5C16.78 4 17 4.22 17 4.5V19.5Z" fill="black"/>
<path d="M12 18.75C12.6904 18.75 13.25 18.1904 13.25 17.5C13.25 16.8096 12.6904 16.25 12 16.25C11.3096 16.25 10.75 16.8096 10.75 17.5C10.75 18.1904 11.3096 18.75 12 18.75Z" fill="black"/>
</g>
<defs>
<clipPath id="clip0_218_353">
<rect width="24" height="24" fill="white"/>
</clipPath>
</defs>
</svg>
