<svg width="89" height="88" viewBox="0 0 89 88" fill="none" xmlns="http://www.w3.org/2000/svg">
<path d="M44.5 88C68.8005 88 88.5 68.3005 88.5 44C88.5 19.6995 68.8005 0 44.5 0C20.1995 0 0.5 19.6995 0.5 44C0.5 68.3005 20.1995 88 44.5 88Z" fill="#2E6D50"/>
<path d="M69.0224 43.1501C69.0224 32.3001 58.0474 23.4751 44.5224 23.4751C30.9974 23.4751 20.0225 32.2751 20.0225 43.1501C20.0225 54.0251 30.9974 62.8251 44.5224 62.8251C47.8474 62.8251 51.0224 62.3001 53.8974 61.3251L59.4724 64.1251L58.5225 59.2751C64.8725 55.7251 69.0224 49.8251 69.0224 43.1501Z" fill="white"/>
<mask id="mask0_307_807" style="mask-type:luminance" maskUnits="userSpaceOnUse" x="20" y="23" width="50" height="42">
<path d="M69.0244 43.1506C69.0244 32.3006 58.0494 23.4756 44.5244 23.4756C30.9994 23.4756 20.0244 32.2756 20.0244 43.1506C20.0244 54.0256 30.9994 62.8256 44.5244 62.8256C47.8494 62.8256 51.0244 62.3006 53.8994 61.3256L59.4744 64.1256L58.5244 59.2756C64.8744 55.7256 69.0244 49.8256 69.0244 43.1506Z" fill="white"/>
</mask>
<g mask="url(#mask0_307_807)">
<path d="M14.4998 44.2999C17.5498 42.7749 32.5998 29.4749 38.3998 30.2499C44.1998 31.0249 43.9998 35.1249 48.3748 36.0249C52.7498 36.9249 52.3248 34.6248 56.8998 35.5998C61.4748 36.5748 74.3748 50.3498 74.8248 52.0748C75.2748 53.7998 60.4748 65.2998 55.5748 66.0498C50.6748 66.8248 39.1248 69.8748 31.6248 66.6248C24.1248 63.3748 14.3498 58.9498 13.2498 56.9998C12.1498 55.0498 14.5248 44.2748 14.5248 44.2748L14.4998 44.2999Z" fill="#2E6D50"/>
<path d="M46.4734 41.3746C46.4734 42.6246 45.6484 43.5246 44.4984 43.5246C43.3484 43.5246 42.5234 42.6246 42.5234 41.3746C42.5234 40.1246 43.3484 39.2246 44.4984 39.2246C45.6484 39.2246 46.4734 40.1246 46.4734 41.3746Z" fill="white"/>
<path d="M46.0994 45.3242H42.8994V53.5992H46.0994V45.3242Z" fill="white"/>
</g>
<path d="M44.5006 26.2251C56.5006 26.2251 66.2506 33.8251 66.2506 43.1501C66.2506 48.7751 63.3506 53.3751 57.8756 56.4501C57.0756 56.9001 56.5506 57.7251 56.4756 58.6501L56.3756 60.0001L54.7256 59.0751C54.3006 58.8501 53.8506 58.7251 53.3756 58.7251C53.0756 58.7251 52.8006 58.7751 52.5006 58.8751C49.9756 59.7251 47.5506 60.0751 44.4756 60.0751C32.4756 60.0751 22.7256 52.4751 22.7256 43.1501C22.7256 33.8251 32.4756 26.2251 44.4756 26.2251M44.4756 23.4751C30.9506 23.4751 19.9756 32.2751 19.9756 43.1501C19.9756 54.0251 30.9506 62.8251 44.4756 62.8251C47.8006 62.8251 50.4756 62.4501 53.3756 61.4751L58.8256 64.5251L59.2256 58.8501C65.5756 55.3001 69.0006 49.8251 69.0006 43.1501C69.0006 32.3001 58.0256 23.4751 44.5006 23.4751H44.4756Z" fill="white"/>
</svg>
