<svg width="89" height="88" viewBox="0 0 89 88" fill="none" xmlns="http://www.w3.org/2000/svg">
<path d="M44.5 88C68.8005 88 88.5 68.3005 88.5 44C88.5 19.6995 68.8005 0 44.5 0C20.1994 0 0.5 19.6995 0.5 44C0.5 68.3005 20.1994 88 44.5 88Z" fill="#2E6D50"/>
<path d="M44.5 29.1499V29.0499C44.5 29.0499 28.8 24.5749 19.75 28.6499V59.9499C19.75 59.9499 35.225 57.0249 44.5 61.0749V29.1499Z" fill="white" stroke="white" stroke-width="0.5" stroke-linecap="round" stroke-linejoin="round"/>
<path d="M44.751 29.1499V29.0499C44.751 29.0499 60.451 24.5749 69.501 28.6499V59.9499C69.501 59.9499 54.026 57.0249 44.751 61.0749V29.1499Z" fill="white" stroke="white" stroke-width="0.5" stroke-linecap="round" stroke-linejoin="round"/>
<path d="M44.5254 33.5996V57.1246" stroke="#2E6D50" stroke-width="0.5" stroke-miterlimit="10" stroke-linecap="round"/>
</svg>
