<svg width="521" height="220" viewBox="0 0 521 220" fill="none" xmlns="http://www.w3.org/2000/svg">
<g clip-path="url(#clip0_307_1033)">
<path d="M199.869 151.744H199.672C199.152 151.744 198.73 152.165 198.73 152.684V164.63C198.73 165.149 199.152 165.57 199.672 165.57H199.869C200.39 165.57 200.811 165.149 200.811 164.63V152.684C200.811 152.165 200.39 151.744 199.869 151.744Z" fill="#8E6254"/>
<path d="M205.74 151.831C205.433 149.315 204.666 146.646 204.447 146.209C203.374 144.065 200.768 141.155 197.701 143.824C195.905 145.399 194.853 147.477 194.284 149.665C193.758 151.481 194.087 155.419 194.196 157.301C194.525 161.107 199.366 161.304 202.476 160.801C205.586 160.298 206.046 154.347 205.74 151.831Z" fill="#2B9044"/>
<path d="M204.425 146.209C203.681 144.721 202.169 142.839 200.307 142.752C204.163 148.834 203.527 158.766 200.264 160.998C201.03 160.998 201.797 160.91 202.476 160.801C205.586 160.298 206.046 154.347 205.74 151.831C205.433 149.315 204.666 146.646 204.447 146.209H204.425Z" fill="#186935"/>
<path d="M252.329 220.264C362.825 220.264 452.399 194.161 452.399 161.96C452.399 129.76 362.825 103.656 252.329 103.656C141.833 103.656 52.2588 129.76 52.2588 161.96C52.2588 194.161 141.833 220.264 252.329 220.264Z" fill="#D1E187"/>
<path d="M170.803 168.765H170.606C170.097 168.765 169.686 169.176 169.686 169.684V181.301C169.686 181.808 170.097 182.219 170.606 182.219H170.803C171.311 182.219 171.723 181.808 171.723 181.301V169.684C171.723 169.176 171.311 168.765 170.803 168.765Z" fill="#8E6254"/>
<path d="M174.745 167.233C173.497 164.608 166.619 165.658 165.414 168.524C164.713 170.427 165.129 171.521 165.02 173.578C164.954 177.756 168.831 178.26 171.788 178.238C173.497 178.238 175.928 177.122 176.322 175.087C176.563 173.862 176.87 171.674 174.767 167.233H174.745Z" fill="#2B9044"/>
<path d="M171.153 165.724C172.292 166.555 172.599 167.364 173.147 169.005C173.804 171.018 174.877 176.159 171.81 178.216C173.519 178.216 175.928 177.078 176.301 175.065C176.542 173.84 176.848 171.652 174.746 167.211C174.242 166.139 172.774 165.68 171.153 165.724Z" fill="#186935"/>
<path d="M151.855 124.156C150.322 125.075 140.093 129.625 136.588 130.107C133.084 130.588 108.508 131.638 106.361 132.251C104.236 132.863 73.7024 130.128 72.2568 129.056C70.8111 127.984 73.0891 114.114 73.0891 114.114L81.1717 88.4953C81.1717 88.4953 90.5027 70.2055 90.9408 69.593C91.3789 68.9804 97.3367 68.2147 98.6948 68.0615C100.075 67.9084 102.966 62.1108 104.193 61.6514C105.419 61.1919 112.166 58.1291 112.888 58.3041C113.611 58.4791 115.648 60.1637 116.393 61.0826C117.16 62.0014 123.38 69.4617 123.862 70.5337C124.344 71.6057 124.958 71.4526 126.644 73.1153C128.331 74.778 155.272 115.842 155.601 116.805C155.601 116.805 153.367 123.259 151.834 124.178L151.855 124.156Z" fill="#3DA568"/>
<path opacity="0.24" d="M128.506 75.6312L139.326 91.7331L155.601 116.805C153.498 123.018 151.833 124.178 151.833 124.178L123.052 75.6093L123.884 70.5337C125.746 71.912 127.323 73.6403 128.484 75.6531L128.506 75.6312Z" fill="#261910"/>
<path opacity="0.24" d="M72.2344 129.035C79.7255 131.704 106.339 132.229 106.339 132.229L126.074 130.807L116.086 109.213L111.661 89.5672L96.022 85.1479L72.2344 129.035Z" fill="#261910"/>
<path opacity="0.4" d="M81.1715 88.4735L76.0241 103.744L73.089 114.07C70.9424 128.991 72.2566 129.013 72.2566 129.013L90.9406 103.897C90.9406 103.897 96.0223 87.4234 96.0223 85.1262C96.0223 82.8509 90.9406 69.5493 90.9406 69.5493L81.1715 88.4516V88.4735Z" fill="#0C1712"/>
<path opacity="0.4" d="M129.996 87.2701L123.074 89.6985L111.662 89.611L119.854 87.2701L123.074 75.5874L129.996 87.2701Z" fill="#0C1712"/>
<path d="M159.019 122.581H158.077C157.351 122.581 156.763 123.168 156.763 123.893V144.852C156.763 145.577 157.351 146.165 158.077 146.165H159.019C159.745 146.165 160.333 145.577 160.333 144.852V123.893C160.333 123.168 159.745 122.581 159.019 122.581Z" fill="#8E6254"/>
<path d="M167.342 127.394C166.531 123.828 162.873 108.163 156.412 112.801C153.104 115.164 152.162 118.861 150.848 122.449C149.622 125.425 148.921 128.575 148.745 131.769C148.636 138.289 155.273 139.098 160.355 139.054C163.268 139.054 167.473 137.304 168.152 134.132C168.568 132.185 167.868 129.953 167.451 128.072L167.364 127.35L167.342 127.394Z" fill="#2B9044"/>
<path d="M167.649 128.094L167.496 127.394C166.773 124.243 163.838 111.62 158.734 111.948C160.267 118.599 162.501 125.622 161.319 132.448C160.946 134.832 160.004 137.086 158.603 139.033H160.618C163.531 139.033 167.736 137.283 168.415 134.11C168.788 132.229 168.087 129.975 167.671 128.094H167.649Z" fill="#186935"/>
<path d="M136.524 124.572H136.173C135.205 124.572 134.421 125.355 134.421 126.322V148.353C134.421 149.319 135.205 150.103 136.173 150.103H136.524C137.491 150.103 138.276 149.319 138.276 148.353V126.322C138.276 125.355 137.491 124.572 136.524 124.572Z" fill="#8E6254"/>
<path d="M147.322 124.747C146.774 120.109 145.329 115.186 144.913 114.355C142.941 110.417 138.122 105.013 132.471 109.957C129.164 112.867 127.192 116.718 126.163 120.743C125.199 124.09 125.812 131.376 125.988 134.854C126.579 141.899 135.516 142.249 141.277 141.308C147.037 140.367 147.848 129.385 147.3 124.747H147.322Z" fill="#2B9044"/>
<path d="M144.913 114.355C143.533 111.598 140.773 108.141 137.29 107.988C144.409 119.212 143.226 137.545 137.225 141.68C138.648 141.658 140.05 141.505 141.299 141.308C147.059 140.367 147.87 129.385 147.322 124.747C146.775 120.109 145.329 115.186 144.913 114.355Z" fill="#186935"/>
<path d="M120.468 134.263H120.249C119.644 134.263 119.153 134.753 119.153 135.357V149.074C119.153 149.678 119.644 150.168 120.249 150.168H120.468C121.072 150.168 121.563 149.678 121.563 149.074V135.357C121.563 134.753 121.072 134.263 120.468 134.263Z" fill="#8E6254"/>
<path d="M127.192 134.351C126.842 131.463 125.943 128.4 125.702 127.875C124.476 125.425 121.475 122.056 117.949 125.14C115.89 126.956 114.663 129.341 114.028 131.857C113.414 133.935 113.809 138.486 113.918 140.652C114.291 145.027 119.854 145.246 123.446 144.677C127.039 144.086 127.542 137.239 127.192 134.351Z" fill="#2B9044"/>
<path d="M125.702 127.897C124.848 126.19 123.118 124.025 120.949 123.937C125.374 130.916 124.651 142.358 120.905 144.918C121.803 144.918 122.658 144.808 123.446 144.677C127.038 144.086 127.542 137.239 127.192 134.351C126.841 131.463 125.943 128.4 125.702 127.875V127.897Z" fill="#186935"/>
<path d="M150.717 136.713H150.454C149.716 136.713 149.118 137.311 149.118 138.048V154.741C149.118 155.478 149.716 156.075 150.454 156.075H150.717C151.455 156.075 152.053 155.478 152.053 154.741V138.048C152.053 137.311 151.455 136.713 150.717 136.713Z" fill="#8E6254"/>
<path d="M157.792 140.673C157.113 137.742 154.134 124.878 148.811 128.663C146.095 130.61 145.329 133.629 144.234 136.582C143.248 139.033 142.678 141.614 142.547 144.261C142.459 149.621 147.913 150.278 152.097 150.256C154.506 150.256 157.945 148.834 158.493 146.208C158.843 144.633 158.252 142.774 157.923 141.242L157.792 140.673Z" fill="#2E9846"/>
<path d="M158.055 141.242L157.924 140.673C157.332 138.092 154.923 127.722 150.695 128.006C151.944 133.476 153.806 139.251 152.82 144.83C152.513 146.777 151.747 148.637 150.586 150.234H152.229C154.638 150.234 158.077 148.812 158.625 146.187C158.931 144.611 158.384 142.752 158.033 141.22L158.055 141.242Z" fill="#186935"/>
<path d="M141.189 146.493H140.948C140.367 146.493 139.896 146.963 139.896 147.543V160.911C139.896 161.491 140.367 161.961 140.948 161.961H141.189C141.769 161.961 142.24 161.491 142.24 160.911V147.543C142.24 146.963 141.769 146.493 141.189 146.493Z" fill="#8E6254"/>
<path d="M145.701 144.743C144.277 141.724 136.348 142.927 134.968 146.231C134.157 148.418 134.617 149.665 134.53 152.028C134.464 156.819 138.91 157.41 142.305 157.388C144.255 157.388 147.059 156.097 147.519 153.778C147.803 152.356 148.132 149.84 145.723 144.743H145.701Z" fill="#2B9044"/>
<path d="M141.583 143.015C142.875 143.977 143.248 144.896 143.861 146.778C144.628 149.097 145.832 155.004 142.328 157.366C144.277 157.366 147.059 156.076 147.497 153.757C147.782 152.335 148.11 149.819 145.701 144.721C145.11 143.474 143.445 142.971 141.583 142.993V143.015Z" fill="#186935"/>
<path d="M128.506 145.268H128.243C127.505 145.268 126.907 145.866 126.907 146.603V163.295C126.907 164.032 127.505 164.63 128.243 164.63H128.506C129.244 164.63 129.842 164.032 129.842 163.295V146.603C129.842 145.866 129.244 145.268 128.506 145.268Z" fill="#8E6254"/>
<path d="M135.581 149.228C134.902 146.296 131.923 133.432 126.601 137.217C123.884 139.164 123.118 142.183 122.023 145.136C121.037 147.587 120.467 150.168 120.336 152.816C120.248 158.176 125.702 158.832 129.886 158.81C132.296 158.81 135.734 157.388 136.282 154.763C136.633 153.187 136.041 151.328 135.713 149.796L135.581 149.228Z" fill="#2B9044"/>
<path d="M135.844 149.796L135.713 149.228C135.121 146.646 132.712 136.276 128.485 136.56C129.733 142.03 131.595 147.806 130.609 153.384C130.303 155.331 129.536 157.191 128.375 158.788H130.018C132.427 158.788 135.866 157.366 136.414 154.741C136.742 153.209 136.173 151.306 135.822 149.775L135.844 149.796Z" fill="#186935"/>
<path d="M229.483 139.755L236.799 161.457L249.635 185.129C248.277 190.445 242.144 197.38 242.144 197.38L215.553 161.698C215.553 161.698 208.324 138.289 208.324 135.051C208.324 131.813 215.553 112.933 215.553 112.933L229.483 139.798V139.755Z" fill="#259856"/>
<path d="M168.766 114.18C168.131 115.689 167.254 115.47 164.867 117.855C162.479 120.262 124.191 178.565 123.731 179.922C123.731 179.922 126.908 189.089 129.076 190.401C131.244 191.714 145.789 198.212 150.761 198.846C155.733 199.481 190.648 200.99 193.692 201.865C196.737 202.762 240.107 198.824 242.144 197.315C244.181 195.805 240.961 176.093 240.961 176.093L229.462 139.711C229.462 139.711 216.232 113.742 215.574 112.845C214.917 111.948 206.462 110.876 204.513 110.657L168.744 114.136L168.766 114.18Z" fill="#259856"/>
<path opacity="0.24" d="M162.238 121.465L146.862 144.327L123.731 179.922C126.754 188.761 129.076 190.401 129.076 190.401L169.949 121.377L168.766 114.158C166.115 116.105 163.903 118.599 162.238 121.443V121.465Z" fill="#261910"/>
<path opacity="0.24" d="M242.165 197.314C242.516 196.921 248.32 190.27 249.612 185.107L236.777 161.435L229.461 139.732L215.53 112.867C215.53 112.867 208.302 131.747 208.302 134.985H208.346L242.143 197.293L242.165 197.314Z" fill="#261910"/>
<path opacity="0.1" d="M242.165 197.314L208.368 135.007H208.324L186.113 141.329L179.783 169.223L165.611 199.874L193.758 201.909C193.758 201.909 231.542 201.165 242.209 197.358V197.314H242.165Z" fill="#331A0E"/>
<path opacity="0.4" d="M170.036 121.246L174.045 130.96L186.114 141.33L208.105 134.854L182.018 131.638L170.036 121.246Z" fill="#0C1712"/>
<path d="M0.5 158.679C0.959982 157.279 40.2117 97.4869 42.665 95.0366C45.1182 92.5863 45.9944 92.827 46.6953 91.2737C47.3962 89.7204 56.4863 78.8472 57.5815 77.5126C58.6767 76.1781 61.6118 73.7497 62.6851 73.4872C63.7584 73.2246 73.5714 77.7095 75.3675 78.3659C77.1636 79.0222 81.3692 87.467 83.3624 87.6858C85.3557 87.9045 94.0296 89.0203 94.6648 89.8954C95.3 90.7924 108.88 117.439 108.88 117.439L120.665 154.741C120.665 154.741 123.95 174.956 121.869 176.509C119.789 178.084 75.3237 182.066 72.2133 181.169C69.103 180.272 33.312 178.741 28.2084 178.062C23.1048 177.362 8.21017 170.733 5.97597 169.399C3.74178 168.064 0.5 158.679 0.5 158.679Z" fill="#259856"/>
<path opacity="0.24" d="M46.6734 91.2739L47.9 98.6686L5.99787 169.421C5.99787 169.421 3.56654 167.714 0.5 158.679L24.2 122.187L39.9708 98.7342C41.6793 95.8245 43.9573 93.2867 46.6734 91.2958V91.2739Z" fill="#261910"/>
<path opacity="0.24" d="M87.2835 112.604L64.5035 119.058L58.0418 147.653L43.5195 179.091L72.2574 181.169C72.2574 181.169 111.005 180.403 121.914 176.509L87.2835 112.604Z" fill="#261910"/>
<path opacity="0.4" d="M94.6867 89.939C94.6867 89.939 87.2832 109.301 87.2832 112.604C87.2832 115.908 94.6867 139.929 94.6867 139.929L121.891 176.531C121.891 176.531 123.819 176.487 120.687 154.762L116.415 139.711L108.924 117.461L94.6867 89.939Z" fill="#0C1712"/>
<path opacity="0.4" d="M47.8785 98.6685L52.566 115.689L64.5036 119.08L47.8785 119.233L37.8027 115.689L47.8785 98.6685Z" fill="#0C1712"/>
<path d="M167.364 170.165H83.1434C71.9414 170.165 62.8604 179.23 62.8604 190.412C62.8604 201.595 71.9414 210.66 83.1434 210.66H167.364C178.566 210.66 187.647 201.595 187.647 190.412C187.647 179.23 178.566 170.165 167.364 170.165Z" fill="#D8EBD3"/>
<path d="M97.9501 184.822V182.853H91.4884V180.972H100.075V184.582C100.075 185.697 100.009 186.769 99.8557 187.754H103.623V180.666H105.77V198.54H103.623V189.613H99.5052C98.432 193.639 95.8692 196.352 91.3789 197.489V195.455C95.913 194.142 97.972 190.423 97.972 184.844L97.9501 184.822Z" fill="#20614D"/>
<path d="M109.494 191.539V189.679H125.593V191.539H118.803V194.842H116.678V191.539H109.472H109.494ZM124.432 180.884V187.688H110.676V180.884H124.432ZM112.801 193.42V196.767H124.761V198.627H110.676V193.42H112.801ZM112.801 185.894H122.285V182.7H112.801V185.894Z" fill="#20614D"/>
<path d="M128.856 186.113C128.856 184.472 129.513 183.225 130.609 182.328C131.923 181.256 133.894 180.775 136.26 180.775C138.625 180.775 140.619 181.256 141.933 182.328C143.028 183.225 143.685 184.472 143.685 186.113C143.685 187.754 143.006 189.023 141.933 189.92C140.838 190.817 139.261 191.298 137.355 191.429V195.892H144.189V197.752H128.309V195.892H135.23V191.429C133.325 191.32 131.726 190.817 130.587 189.92C129.491 189.023 128.834 187.798 128.834 186.113H128.856ZM131.003 186.113C131.003 187.163 131.397 187.929 132.098 188.498C133.018 189.263 134.485 189.592 136.26 189.592C138.034 189.592 139.523 189.263 140.443 188.498C141.144 187.929 141.539 187.163 141.539 186.113C141.539 185.063 141.144 184.319 140.443 183.728C139.523 182.985 138.034 182.635 136.26 182.635C134.485 182.635 133.018 182.963 132.098 183.728C131.397 184.319 131.003 185.107 131.003 186.113Z" fill="#20614D"/>
<path d="M146.949 191.692V189.942H163.049V191.692H146.949ZM150.257 185.632V186.901H161.997V188.607H148.132V183.925H159.741V182.613H148.132V180.884H161.888V185.632H150.257ZM161.888 198.715H148.132V193.136H161.888V198.715ZM159.741 196.986V194.886H150.257V196.986H159.741Z" fill="#20614D"/>
<path d="M490.183 132.907C489.854 130.085 488.058 124.331 487.817 123.828C486.612 121.443 484.794 120.152 481.333 123.15C479.318 124.922 478.508 128.553 477.894 130.982C477.303 132.995 476.996 134.285 477.106 136.386C477.347 139.12 479.669 140.192 482.231 140.455V144.568C482.231 145.159 482.713 145.465 483.305 145.465H483.524C484.028 145.465 484.444 145.202 484.531 144.743C484.531 144.677 484.575 144.634 484.575 144.568V140.499C485.232 140.455 485.846 140.389 486.415 140.302C489.92 139.733 490.511 135.707 490.183 132.907Z" fill="#528C4A"/>
<path d="M320.537 115.886H320.252C319.43 115.886 318.763 116.552 318.763 117.374V136.036C318.763 136.857 319.43 137.523 320.252 137.523H320.537C321.36 137.523 322.026 136.857 322.026 136.036V117.374C322.026 116.552 321.36 115.886 320.537 115.886Z" fill="#BB5328"/>
<path d="M328.467 120.305C327.722 117.046 324.37 102.65 318.435 106.894C315.39 109.06 314.536 112.451 313.331 115.755C312.236 118.489 311.601 121.377 311.447 124.331C311.36 130.325 317.449 131.047 322.114 131.025C324.809 131.025 328.642 129.428 329.277 126.519C329.649 124.746 329.014 122.69 328.642 120.962L328.488 120.327L328.467 120.305Z" fill="#528C4A"/>
<path d="M500.5 156.032C443.506 75.6532 443.199 76.7689 425.829 69.8337C387.936 54.7162 355.671 82.129 347.391 91.5145C339.221 100.769 308.337 139.623 297.034 153.888C294.362 157.257 294.45 162.048 297.253 165.308C304.986 174.365 321.479 189.505 337.6 193.836C358.672 199.503 372.209 200.618 384.365 197.752C396.5 194.886 401.341 192.392 413.103 189.811C424.866 187.251 445.389 189.111 458.773 185.195C466.724 182.854 498.441 166.992 500.522 156.01L500.5 156.032Z" fill="#EAD1B3"/>
<path d="M419.302 70.7524C396.018 60.6887 361.278 79.0878 361.322 85.8699C361.344 90.4861 363.513 91.4049 371.902 93.9427C391.55 99.9372 415.228 92.8488 417.637 91.9956C420.069 91.1205 437.263 78.519 419.28 70.7524H419.302Z" fill="#A0B591"/>
<mask id="mask0_307_1033" style="mask-type:luminance" maskUnits="userSpaceOnUse" x="373" y="80" width="48" height="22">
<path d="M414.921 83.0258C398.318 75.8499 373.545 88.9765 373.566 93.8115C373.566 97.115 375.122 97.7495 381.101 99.5653C395.12 103.831 411.986 98.7777 413.716 98.1651C415.447 97.5526 427.713 88.5608 414.899 83.0039L414.921 83.0258Z" fill="white"/>
</mask>
<g mask="url(#mask0_307_1033)">
<path opacity="0.2" d="M419.302 70.7524C396.018 60.6887 361.278 79.0878 361.322 85.8699C361.344 90.4861 363.513 91.4049 371.902 93.9427C391.55 99.9372 415.228 92.8488 417.637 91.9956C420.069 91.1205 437.263 78.519 419.28 70.7524H419.302Z" fill="#776255"/>
</g>
<mask id="mask1_307_1033" style="mask-type:luminance" maskUnits="userSpaceOnUse" x="373" y="80" width="48" height="22">
<path d="M414.921 83.0258C398.318 75.8499 373.545 88.9765 373.566 93.8115C373.566 97.115 375.122 97.7495 381.101 99.5653C395.12 103.831 411.986 98.7777 413.716 98.1651C415.447 97.5526 427.713 88.5608 414.899 83.0039L414.921 83.0258Z" fill="white"/>
</mask>
<g mask="url(#mask1_307_1033)">
<path opacity="0.2" d="M419.302 70.7524C396.018 60.6887 361.278 79.0878 361.322 85.8699C361.344 90.4861 363.513 91.4049 371.902 93.9427C391.55 99.9372 415.228 92.8488 417.637 91.9956C420.069 91.1205 437.263 78.519 419.28 70.7524H419.302Z" fill="#776255"/>
</g>
<path opacity="0.3" d="M423.31 68.9151C422.894 68.7619 422.456 68.6088 422.04 68.4775C421.799 68.39 421.558 68.3244 421.317 68.2369C420.923 68.1056 420.55 67.9962 420.156 67.8868C419.893 67.8212 419.652 67.7337 419.411 67.668C419.039 67.5587 418.666 67.4493 418.272 67.3618C418.031 67.2961 417.768 67.2305 417.527 67.1649C417.155 67.0774 416.761 66.9898 416.388 66.9023C416.148 66.8586 415.907 66.7929 415.666 66.7492C415.249 66.6617 414.855 66.5742 414.461 66.5085C414.242 66.4648 414.045 66.421 413.826 66.3773C413.322 66.2898 412.818 66.2022 412.314 66.1147C412.205 66.1147 412.095 66.071 411.986 66.071C411.373 65.9835 410.759 65.896 410.146 65.8303C410.014 65.8303 409.905 65.8084 409.774 65.7866C409.292 65.7428 408.81 65.6772 408.35 65.6334C408.153 65.6334 407.955 65.6115 407.758 65.5897C407.342 65.5678 406.948 65.524 406.554 65.5022C406.335 65.5022 406.137 65.4803 405.918 65.4803C405.524 65.4803 405.152 65.4365 404.758 65.4365C404.538 65.4365 404.319 65.4365 404.1 65.4365C403.706 65.4365 403.334 65.4365 402.961 65.4365C402.764 65.4365 402.545 65.4365 402.348 65.4365C401.954 65.4365 401.538 65.4365 401.143 65.4584C400.968 65.4584 400.793 65.4584 400.596 65.4584C400.136 65.4584 399.676 65.5022 399.216 65.524C399.106 65.524 398.997 65.524 398.887 65.524C397.726 65.6115 396.587 65.7209 395.448 65.8522C395.448 65.8522 395.426 65.8522 395.405 65.8522C403.816 65.0646 412.336 65.8303 419.827 69.0682C431.809 74.2313 429.487 81.626 424.997 87.1829C421.054 92.0398 415.425 95.2339 409.248 96.3497C400.048 98.0124 383.489 100.047 370.566 96.3497C370.566 96.3497 355.846 179.375 357.095 198.125C367.915 199.809 376.436 199.634 384.343 197.775C396.478 194.909 401.319 192.414 413.081 189.833C424.843 187.273 445.367 189.133 458.751 185.217C460.941 184.582 464.927 182.898 469.615 180.601C469.922 180.447 470.206 180.294 470.513 180.141C470.666 180.054 470.842 179.988 470.995 179.9C471.28 179.747 471.586 179.594 471.893 179.441C472.068 179.354 472.221 179.266 472.397 179.178C472.901 178.916 473.404 178.653 473.908 178.369C474.127 178.26 474.324 178.15 474.543 178.041C474.828 177.888 475.091 177.735 475.376 177.603C475.617 177.472 475.836 177.341 476.077 177.21C476.339 177.056 476.602 176.925 476.865 176.772C477.303 176.531 477.741 176.269 478.201 176.028C478.42 175.897 478.661 175.766 478.88 175.634C479.165 175.459 479.45 175.306 479.756 175.131C479.975 175 480.216 174.869 480.435 174.715C480.764 174.519 481.093 174.322 481.421 174.125C481.596 174.015 481.772 173.906 481.947 173.797C482.407 173.512 482.889 173.206 483.349 172.921C483.546 172.812 483.721 172.681 483.918 172.571C484.247 172.353 484.575 172.156 484.904 171.937C485.079 171.828 485.254 171.696 485.43 171.587C485.911 171.281 486.371 170.952 486.831 170.646C486.919 170.581 487.029 170.515 487.116 170.449C487.51 170.187 487.883 169.902 488.255 169.64C488.408 169.53 488.562 169.421 488.715 169.312C489.066 169.049 489.416 168.808 489.745 168.546C489.854 168.458 489.986 168.371 490.095 168.283C490.533 167.955 490.971 167.627 491.387 167.277C491.497 167.19 491.606 167.102 491.716 167.015C492.044 166.752 492.373 166.489 492.68 166.227C492.811 166.118 492.921 166.03 493.052 165.921C493.424 165.614 493.775 165.286 494.125 164.98C494.169 164.958 494.191 164.914 494.235 164.892C494.607 164.542 494.98 164.214 495.33 163.864C495.44 163.777 495.527 163.667 495.615 163.58C495.878 163.317 496.141 163.055 496.381 162.792C496.469 162.705 496.557 162.617 496.644 162.53C496.951 162.201 497.258 161.851 497.542 161.523C497.586 161.479 497.63 161.414 497.674 161.37C497.915 161.086 498.134 160.801 498.353 160.517C498.419 160.429 498.484 160.32 498.572 160.232C498.769 159.97 498.944 159.686 499.119 159.423C499.163 159.357 499.207 159.292 499.251 159.226C499.448 158.898 499.623 158.57 499.777 158.263C499.82 158.176 499.842 158.11 499.886 158.023C499.996 157.782 500.105 157.52 500.193 157.279C500.237 157.191 500.258 157.104 500.28 157.016C500.39 156.71 500.478 156.382 500.521 156.076C499.492 154.632 498.506 153.232 497.52 151.853C497.389 151.678 497.28 151.503 497.148 151.328C496.338 150.191 495.549 149.075 494.761 147.981C494.498 147.609 494.235 147.237 493.972 146.865C493.315 145.924 492.658 145.006 492.001 144.087C491.76 143.737 491.497 143.387 491.256 143.037C490.577 142.074 489.898 141.133 489.241 140.193C489.044 139.908 488.825 139.624 488.628 139.339C487.861 138.267 487.116 137.217 486.371 136.189C486.284 136.058 486.196 135.926 486.109 135.817C485.254 134.636 484.444 133.476 483.612 132.338C483.546 132.251 483.48 132.163 483.436 132.076C482.713 131.07 481.991 130.063 481.29 129.079C481.114 128.816 480.939 128.575 480.764 128.335C480.194 127.547 479.647 126.76 479.077 125.994C478.858 125.688 478.639 125.381 478.42 125.075C477.895 124.331 477.369 123.609 476.865 122.909C476.668 122.647 476.471 122.362 476.274 122.1C475.726 121.334 475.179 120.568 474.631 119.824C474.5 119.649 474.368 119.452 474.237 119.277C472.857 117.374 471.542 115.558 470.272 113.808C470.228 113.742 470.184 113.699 470.141 113.633C469.571 112.845 469.002 112.058 468.432 111.314C468.323 111.161 468.213 111.008 468.104 110.855C467.622 110.198 467.14 109.542 466.658 108.886C466.526 108.711 466.417 108.557 466.286 108.382C465.804 107.726 465.344 107.092 464.862 106.479C464.774 106.37 464.687 106.238 464.599 106.129C462.912 103.854 461.335 101.753 459.846 99.7845C459.802 99.7407 459.78 99.6969 459.736 99.6532C459.276 99.0625 458.838 98.4718 458.4 97.903C458.334 97.8155 458.269 97.728 458.203 97.6404C457.787 97.1154 457.393 96.5903 456.998 96.0871C456.933 95.9996 456.867 95.9121 456.801 95.8465C456.385 95.3214 455.969 94.7963 455.575 94.2713C455.553 94.2494 455.531 94.2057 455.487 94.1619C454.173 92.4773 452.924 90.9459 451.763 89.5457C451.741 89.5238 451.719 89.502 451.698 89.4582C451.347 89.0206 450.997 88.605 450.646 88.2112C450.602 88.1674 450.559 88.1018 450.515 88.058C450.186 87.6642 449.858 87.2704 449.529 86.8985C449.507 86.8548 449.463 86.8329 449.441 86.7891C448.018 85.1264 446.703 83.6825 445.477 82.3917C445.477 82.3917 445.433 82.348 445.411 82.3261C445.126 82.0198 444.842 81.7354 444.557 81.451C444.535 81.4291 444.513 81.4072 444.491 81.3853C444.206 81.1009 443.922 80.8165 443.637 80.5321C443.243 80.1383 442.848 79.7664 442.454 79.4163C441.687 78.6944 440.943 78.0599 440.22 77.4692C439.125 76.5941 438.095 75.8284 437.066 75.1721C437.066 75.1721 437.066 75.1721 437.044 75.1721C436.014 74.5158 435.007 73.9251 433.977 73.4C433.977 73.4 433.934 73.4 433.934 73.3781C433.254 73.0281 432.554 72.6999 431.831 72.3717C431.48 72.2186 431.13 72.0655 430.757 71.9123C430.714 71.9123 430.692 71.8904 430.648 71.8686C429.925 71.5623 429.202 71.256 428.436 70.9497C428.392 70.9497 428.348 70.9278 428.326 70.9059C427.954 70.7528 427.559 70.5997 427.165 70.4465C426.727 70.2715 426.289 70.0965 425.829 69.9214C425.194 69.6589 424.559 69.4183 423.923 69.1995C423.726 69.1338 423.507 69.0463 423.31 68.9807V68.9151Z" fill="url(#paint0_linear_307_1033)"/>
<path d="M307.329 165.461H307.132C306.539 165.461 306.059 165.941 306.059 166.533V179.681C306.059 180.273 306.539 180.753 307.132 180.753H307.329C307.922 180.753 308.402 180.273 308.402 179.681V166.533C308.402 165.941 307.922 165.461 307.329 165.461Z" fill="#BB5328"/>
<path opacity="0.2" d="M307.31 165.531L307.091 165.531C306.511 165.533 306.041 166.004 306.042 166.584L306.072 179.689C306.074 180.268 306.545 180.738 307.126 180.736L307.345 180.736C307.926 180.734 308.395 180.263 308.394 179.683L308.364 166.579C308.363 165.999 307.891 165.529 307.31 165.531Z" fill="url(#paint1_linear_307_1033)"/>
<path d="M314.01 168.196C313.681 165.373 311.885 159.62 311.644 159.116C310.439 156.732 308.621 155.441 305.16 158.438C303.145 160.21 302.335 163.842 301.722 166.27C301.13 168.283 300.824 169.574 300.933 171.674C301.305 175.94 306.759 176.159 310.264 175.59C313.769 175.022 314.36 170.996 314.032 168.196H314.01Z" fill="#6DBF64"/>
<path opacity="0.3" d="M314.01 168.196C313.681 165.373 311.885 159.62 311.644 159.116C310.439 156.732 308.621 155.441 305.16 158.438C303.145 160.21 302.335 163.842 301.722 166.27C301.13 168.283 300.824 169.574 300.933 171.674C301.305 175.94 306.759 176.159 310.264 175.59C313.769 175.022 314.36 170.996 314.032 168.196H314.01Z" fill="url(#paint2_linear_307_1033)"/>
<path d="M339.638 185.348H339.857C340.448 185.348 340.93 185.829 340.93 186.398V199.743C340.93 200.334 340.448 200.64 339.857 200.64H339.638C339.046 200.64 338.564 200.334 338.564 199.743V186.398C338.564 185.807 339.046 185.348 339.638 185.348Z" fill="#BB5328"/>
<path opacity="0.2" d="M339.839 185.453L339.62 185.454C339.039 185.455 338.569 185.926 338.571 186.506L338.601 199.611C338.602 200.191 339.074 200.66 339.654 200.659L339.873 200.658C340.454 200.657 340.924 200.186 340.922 199.606L340.893 186.501C340.891 185.921 340.419 185.452 339.839 185.453Z" fill="url(#paint3_linear_307_1033)"/>
<path d="M346.537 188.082C346.208 185.26 344.412 179.506 344.171 179.003C342.967 176.618 341.149 175.328 337.688 178.325C335.673 180.097 334.862 183.729 334.249 186.157C333.658 188.17 333.351 189.461 333.46 191.561C333.833 195.827 339.287 196.046 342.791 195.477C346.296 194.908 346.888 190.883 346.559 188.082H346.537Z" fill="#6DBF64"/>
<path opacity="0.3" d="M346.537 188.082C346.208 185.26 344.412 179.506 344.171 179.003C342.967 176.618 341.149 175.328 337.688 178.325C335.673 180.097 334.862 183.729 334.249 186.157C333.658 188.17 333.351 189.461 333.46 191.561C333.833 195.827 339.287 196.046 342.791 195.477C346.296 194.908 346.888 190.883 346.559 188.082H346.537Z" fill="url(#paint4_linear_307_1033)"/>
<path opacity="0.2" d="M346.537 188.082C346.208 185.26 344.412 179.506 344.171 179.003C342.967 176.618 341.149 175.328 337.688 178.325C335.673 180.097 334.862 183.729 334.249 186.157C333.658 188.17 333.351 189.461 333.46 191.561C333.701 194.296 336.023 195.368 338.586 195.63V199.743C338.586 200.334 339.068 200.64 339.659 200.64H339.878C340.382 200.64 340.798 200.378 340.886 199.918C340.886 199.853 340.93 199.809 340.93 199.743V195.674C341.587 195.63 342.2 195.565 342.77 195.477C346.274 194.908 346.866 190.883 346.537 188.082Z" fill="#181818"/>
<path d="M332.672 180.075H332.387C331.662 180.075 331.073 180.663 331.073 181.388V197.665C331.073 198.39 331.662 198.977 332.387 198.977H332.672C333.398 198.977 333.986 198.39 333.986 197.665V181.388C333.986 180.663 333.398 180.075 332.672 180.075Z" fill="#BB5328"/>
<path opacity="0.2" d="M332.38 180.198L332.643 180.197C333.366 180.196 333.937 180.785 333.938 181.485L333.975 197.674C333.977 198.396 333.387 198.967 332.686 198.968L332.423 198.969C331.7 198.97 331.129 198.381 331.128 197.681L331.091 181.491C331.089 180.769 331.679 180.199 332.38 180.198Z" fill="url(#paint5_linear_307_1033)"/>
<path d="M340.799 180.206C340.383 176.728 339.288 173.052 338.981 172.44C337.491 169.486 333.855 165.439 329.606 169.158C327.109 171.346 325.641 174.212 324.853 177.231C324.13 179.725 324.59 185.194 324.721 187.798C325.16 193.07 331.906 193.333 336.243 192.633C340.58 191.933 341.193 183.707 340.777 180.228L340.799 180.206Z" fill="#6DBF64"/>
<path opacity="0.2" d="M340.799 180.206C340.383 176.728 339.288 173.052 338.981 172.44C337.491 169.486 333.855 165.439 329.606 169.158C327.109 171.346 325.641 174.212 324.853 177.231C324.13 179.725 324.59 185.194 324.721 187.798C325.16 193.07 331.906 193.333 336.243 192.633C340.58 191.933 341.193 183.707 340.777 180.228L340.799 180.206Z" fill="url(#paint6_linear_307_1033)"/>
<path d="M491.606 155.944H491.869C492.592 155.944 493.183 156.535 493.183 157.257V173.753C493.183 174.475 492.592 174.869 491.869 174.869H491.606C490.883 174.869 490.292 174.475 490.292 173.753V157.257C490.292 156.535 490.883 155.944 491.606 155.944Z" fill="#BB5328"/>
<path opacity="0.2" d="M491.587 156.056L491.85 156.056C492.573 156.054 493.144 156.643 493.145 157.343L493.182 173.533C493.184 174.255 492.594 174.825 491.893 174.827L491.63 174.827C490.907 174.829 490.336 174.239 490.335 173.539L490.298 157.35C490.296 156.628 490.886 156.058 491.587 156.056Z" fill="url(#paint7_linear_307_1033)"/>
<path d="M500.018 156.075C499.601 152.597 498.506 148.921 498.2 148.309C496.71 145.355 493.074 141.308 488.825 145.027C486.328 147.215 484.86 150.081 484.072 153.1C483.349 155.594 483.809 161.064 483.94 163.667C484.378 168.939 491.125 169.202 495.462 168.502C499.799 167.802 500.412 159.576 499.996 156.097L500.018 156.075Z" fill="#6DBF64"/>
<path opacity="0.3" d="M500.018 156.075C499.601 152.597 498.506 148.921 498.2 148.309C496.71 145.355 493.074 141.308 488.825 145.027C486.328 147.215 484.86 150.081 484.072 153.1C483.349 155.594 483.809 161.064 483.94 163.667C484.378 168.939 491.125 169.202 495.462 168.502C499.799 167.802 500.412 159.576 499.996 156.097L500.018 156.075Z" fill="url(#paint8_linear_307_1033)"/>
<path d="M452.399 170.165H352.408C341.206 170.165 332.125 179.235 332.125 190.423V192.261C332.125 203.45 341.206 212.52 352.408 212.52H452.399C463.601 212.52 472.682 203.45 472.682 192.261V190.423C472.682 179.235 463.601 170.165 452.399 170.165Z" fill="#D8EBD3"/>
<path d="M363.403 200.531H355.649V184.188H364.258V186.07H357.774V198.649H363.798C365.44 198.649 366.733 198.299 367.477 197.621V183.86H369.624V191.145H372.428V193.027H369.624V201.734H367.477V199.415C366.755 200.115 365.199 200.531 363.403 200.531Z" fill="#20614D"/>
<path d="M382.175 193.814H374.158V188.017H380.729V185.873H374.158V184.079H382.854V189.811H376.305V192.042H382.745C384.365 192.042 385.461 191.823 386.227 191.255V183.86H388.374V188.082H390.98V189.964H388.374V194.842H386.227V192.917C385.483 193.53 384.19 193.814 382.175 193.814ZM374.947 198.759C374.947 197.687 375.472 196.943 376.392 196.396C377.619 195.652 379.547 195.324 381.89 195.324C384.234 195.324 386.14 195.63 387.366 196.396C388.264 196.943 388.812 197.687 388.812 198.759C388.812 199.831 388.286 200.574 387.366 201.121C386.14 201.843 384.212 202.15 381.89 202.15C379.568 202.15 377.619 201.843 376.392 201.121C375.494 200.574 374.947 199.787 374.947 198.759ZM377.093 198.759C377.093 199.109 377.29 199.459 377.685 199.677C378.473 200.137 379.963 200.334 381.89 200.334C383.818 200.334 385.285 200.137 386.074 199.677C386.468 199.437 386.665 199.109 386.665 198.759C386.665 198.365 386.468 198.058 386.074 197.84C385.285 197.358 383.84 197.161 381.89 197.161C379.941 197.161 378.473 197.358 377.685 197.84C377.29 198.058 377.093 198.365 377.093 198.759Z" fill="#20614D"/>
<path d="M405.59 193.749V183.86H407.736V201.734H405.59V195.521C404.823 196.155 403.487 196.483 401.516 196.483H399.063V201.756H396.916V196.483H392.688V194.624H402.085C403.619 194.624 404.801 194.361 405.59 193.77V193.749ZM398.471 189.461C397.529 190.926 395.624 192.305 393.214 192.983V191.101C395.536 190.248 397.332 188.564 397.332 185.96V184.079H399.479V185.96C399.479 188.564 401.275 190.095 403.618 190.883V192.764C401.297 192.151 399.413 190.926 398.449 189.482L398.471 189.461Z" fill="#20614D"/>
<path d="M411.898 189.307C411.898 187.667 412.555 186.42 413.65 185.523C414.965 184.451 416.936 183.969 419.302 183.969C421.667 183.969 423.661 184.451 424.975 185.523C426.07 186.42 426.727 187.667 426.727 189.307C426.727 190.948 426.048 192.217 424.975 193.114C423.88 194.011 422.303 194.492 420.397 194.624V199.087H427.231V200.946H411.351V199.087H418.272V194.624C416.367 194.514 414.768 194.011 413.629 193.114C412.533 192.217 411.876 190.992 411.876 189.307H411.898ZM414.045 189.307C414.045 190.358 414.439 191.123 415.14 191.692C416.06 192.458 417.527 192.786 419.302 192.786C421.076 192.786 422.565 192.458 423.485 191.692C424.186 191.123 424.581 190.358 424.581 189.307C424.581 188.257 424.186 187.513 423.485 186.923C422.565 186.179 421.076 185.829 419.302 185.829C417.527 185.829 416.06 186.157 415.14 186.923C414.439 187.513 414.045 188.301 414.045 189.307Z" fill="#20614D"/>
<path d="M429.97 194.886V193.136H446.069V194.886H429.97ZM433.277 188.826V190.095H445.018V191.801H431.153V187.12H442.762V185.807H431.153V184.079H444.908V188.826H433.277ZM444.908 201.909H431.153V196.33H444.908V201.909ZM442.762 200.181V198.08H433.277V200.181H442.762Z" fill="#20614D"/>
<path d="M315.434 97.6837C313.265 112.517 271.232 123.149 239.449 121.64C211.697 120.327 198.095 103.35 200.263 88.517C202.432 73.6839 239.23 66.4424 266.982 67.1644C297.867 67.952 317.58 82.8506 315.434 97.6837Z" fill="#151F1B"/>
<path d="M315.303 96.8307C313.135 111.664 271.101 122.296 239.318 120.787C211.566 119.474 197.964 102.497 200.132 87.6639C202.301 72.8309 239.099 65.5894 266.852 66.3113C297.736 67.0989 317.45 81.9976 315.303 96.8307Z" fill="#E7E6E2"/>
<path opacity="0.2" d="M315.303 96.8307C313.135 111.664 271.101 122.296 239.318 120.787C211.566 119.474 197.964 102.497 200.132 87.6639C202.301 72.8309 239.099 65.5894 266.852 66.3113C297.736 67.0989 317.45 81.9976 315.303 96.8307Z" fill="url(#paint9_linear_307_1033)"/>
<path d="M200.833 96.4585V102.3C200.833 108.841 209.836 114.136 220.941 114.136C232.046 114.136 241.049 108.841 241.049 102.3V96.4585H200.833Z" fill="#BFBEBE"/>
<path opacity="0.3" d="M200.833 96.4585V102.3C200.833 108.841 209.836 114.136 220.941 114.136C232.046 114.136 241.049 108.841 241.049 102.3V96.4585H200.833Z" fill="url(#paint10_linear_307_1033)"/>
<path d="M220.941 108.601C232.046 108.601 241.049 103.302 241.049 96.765C241.049 90.2283 232.046 84.9292 220.941 84.9292C209.836 84.9292 200.833 90.2283 200.833 96.765C200.833 103.302 209.836 108.601 220.941 108.601Z" fill="#D2D2D2"/>
<path opacity="0.2" d="M220.941 108.601C232.046 108.601 241.049 103.302 241.049 96.765C241.049 90.2283 232.046 84.9292 220.941 84.9292C209.836 84.9292 200.833 90.2283 200.833 96.765C200.833 103.302 209.836 108.601 220.941 108.601Z" fill="url(#paint11_linear_307_1033)"/>
<path d="M237.259 72.5463C237.259 72.3932 237.259 72.2619 237.259 72.1088C237.259 65.086 229.746 59.376 220.481 59.376C211.215 59.376 203.702 65.0642 203.702 72.1088V96.4367C203.702 101.622 211.215 105.8 220.481 105.8C229.746 105.8 237.259 101.6 237.259 96.4367C237.259 96.3274 237.259 72.5463 237.259 72.5463Z" fill="#BFBEBE"/>
<path opacity="0.55" d="M237.259 72.5463C237.259 72.3932 237.259 72.2619 237.259 72.1088C237.259 65.086 229.746 59.376 220.481 59.376C211.215 59.376 203.702 65.0642 203.702 72.1088V96.4367C203.702 101.622 211.215 105.8 220.481 105.8C229.746 105.8 237.259 101.6 237.259 96.4367C237.259 96.3274 237.259 72.5463 237.259 72.5463Z" fill="url(#paint12_linear_307_1033)"/>
<path opacity="0.5" d="M220.503 59.3979C215.816 59.3979 211.61 60.8638 208.565 63.2047C210.055 67.7115 213.45 71.2338 220.569 71.2338C227.688 71.2338 231.061 67.7552 232.55 63.2703C229.506 60.8856 225.234 59.3979 220.503 59.3979Z" fill="#959494"/>
<path d="M216.779 86.4823H211.588C210.646 86.4823 209.901 85.7166 209.901 84.7977L209.003 69.0239V74.1433L207.908 88.0137L211.851 96.8304L216.976 97.268C218.4 97.268 219.561 96.1085 219.561 94.6864V89.2389C219.561 87.7293 218.334 86.4823 216.801 86.4823H216.779Z" fill="#959494"/>
<path d="M224.205 86.3948H229.155H229.396C230.338 86.3948 231.082 85.651 231.082 84.7102L231.981 69.0239V74.1214L233.076 87.9262L229.133 97.1367L224.161 97.268C222.737 97.268 221.423 95.9772 221.423 94.5552V89.1295C221.423 87.6199 222.649 86.3948 224.183 86.3948H224.205Z" fill="#959494"/>
<path opacity="0.3" d="M216.779 86.4823H211.588C210.646 86.4823 209.901 85.7166 209.901 84.7977L209.003 69.0239V74.1433L207.908 88.0137L211.851 96.8304L216.976 97.268C218.4 97.268 219.561 96.1085 219.561 94.6864V89.2389C219.561 87.7293 218.334 86.4823 216.801 86.4823H216.779Z" fill="url(#paint13_linear_307_1033)"/>
<path opacity="0.3" d="M224.205 86.3948H229.155H229.396C230.338 86.3948 231.082 85.651 231.082 84.7102L231.981 69.0239V74.1214L233.076 87.9262L229.133 97.1367L224.161 97.268C222.737 97.268 221.423 95.9772 221.423 94.5552V89.1295C221.423 87.6199 222.649 86.3948 224.183 86.3948H224.205Z" fill="url(#paint14_linear_307_1033)"/>
<path d="M237.259 71.518L232.002 69.0239V85.6947C232.002 86.5917 231.28 87.3137 230.381 87.3137H224.643C223.547 87.3137 222.649 88.2106 222.649 89.3045V95.3865C222.649 96.4148 223.482 97.268 224.533 97.268H228.147C235.178 97.268 237.303 93.5707 237.303 89.5671C237.303 85.5634 237.303 71.518 237.303 71.518H237.259Z" fill="#BFBEBE"/>
<path opacity="0.2" d="M237.259 71.518L232.002 69.0239V85.6947C232.002 86.5917 231.28 87.3137 230.381 87.3137H224.643C223.547 87.3137 222.649 88.2106 222.649 89.3045V95.3865C222.649 96.4148 223.482 97.268 224.533 97.268H228.147C235.178 97.268 237.303 93.5707 237.303 89.5671C237.303 85.5634 237.303 71.518 237.303 71.518H237.259Z" fill="url(#paint15_linear_307_1033)"/>
<path opacity="0.1" d="M237.259 72.5463C237.259 72.3932 237.259 72.2619 237.259 72.1088C237.259 65.086 229.746 59.376 220.481 59.376C211.215 59.376 203.702 65.0642 203.702 72.1088V96.4367C203.702 101.622 211.215 105.8 220.481 105.8C229.746 105.8 237.259 101.6 237.259 96.4367C237.259 96.3274 237.259 72.5463 237.259 72.5463Z" fill="url(#paint16_linear_307_1033)"/>
<path d="M216.363 87.3137H210.624C209.726 87.3137 209.003 86.5917 209.003 85.6947V69.0239L203.746 71.518C203.746 71.518 203.746 85.5634 203.746 89.5671C203.746 93.5707 205.849 97.268 212.902 97.268H216.516C217.546 97.268 218.4 96.4366 218.4 95.3865V89.3045C218.4 88.2106 217.502 87.3137 216.407 87.3137H216.363Z" fill="#BFBEBE"/>
<path opacity="0.2" d="M216.363 87.3137H210.624C209.726 87.3137 209.003 86.5917 209.003 85.6947V69.0239L203.746 71.518C203.746 71.518 203.746 85.5634 203.746 89.5671C203.746 93.5707 205.849 97.268 212.902 97.268H216.516C217.546 97.268 218.4 96.4366 218.4 95.3865V89.3045C218.4 88.2106 217.502 87.3137 216.407 87.3137H216.363Z" fill="url(#paint17_linear_307_1033)"/>
<path d="M220.502 42.2456C231.695 42.2456 232.966 47.9338 232.966 54.9784C232.966 62.023 230.688 69.5489 220.502 69.5489C210.317 69.5489 208.039 62.023 208.039 54.9784C208.039 47.9338 209.309 42.2456 220.502 42.2456Z" fill="#BFBEBE"/>
<path opacity="0.12" d="M220.502 42.2456C231.695 42.2456 232.966 47.9338 232.966 54.9784C232.966 62.023 230.688 69.5489 220.502 69.5489C210.317 69.5489 208.039 62.023 208.039 54.9784C208.039 47.9338 209.309 42.2456 220.502 42.2456Z" fill="url(#paint18_linear_307_1033)"/>
<path opacity="0.3" d="M220.502 42.2456C231.695 42.2456 232.966 47.9338 232.966 54.9784C232.966 62.023 230.688 69.5489 220.502 69.5489C210.317 69.5489 208.039 62.023 208.039 54.9784C208.039 47.9338 209.309 42.2456 220.502 42.2456Z" fill="url(#paint19_linear_307_1033)"/>
<path d="M221.467 62.7453H219.539C218.948 62.7453 218.466 62.264 218.466 61.6733V54.935C218.466 53.9286 219.276 53.1191 220.284 53.1191H220.744C221.751 53.1191 222.562 53.9286 222.562 54.935V61.6733C222.562 62.264 222.08 62.7453 221.489 62.7453H221.467Z" fill="#CDCDCD"/>
<path opacity="0.1" d="M220.262 53.1191H220.722C221.729 53.1191 222.54 53.9286 222.54 54.935V61.6733C222.54 62.264 222.058 62.7453 221.467 62.7453H219.539C218.948 62.7453 218.466 62.264 218.466 61.6733V54.935C218.466 53.9286 219.276 53.1191 220.284 53.1191H220.262Z" fill="url(#paint20_linear_307_1033)"/>
<path opacity="0.2" d="M220.94 52.7035C225.715 52.7035 229.965 51.894 232.681 50.6689C231.958 45.7902 229.308 42.2898 220.678 42.2241C219.845 42.2241 219.035 42.2679 218.224 42.3116C211.434 42.8586 209.09 45.9871 208.346 50.2313C210.974 51.6971 215.618 52.6816 220.919 52.6816L220.94 52.7035Z" fill="#959494"/>
<path d="M234.083 44.1275C231.586 42.4648 226.636 41.3271 220.941 41.3271C215.246 41.3271 210.296 42.4648 207.799 44.1275H206.068V46.8841H206.09C206.55 49.6407 213.012 51.8066 220.919 51.8066C228.826 51.8066 235.288 49.6188 235.748 46.8841H235.77V44.1275H234.04H234.083Z" fill="#BFBEBE"/>
<path opacity="0.3" d="M234.083 44.1275C231.586 42.4648 226.636 41.3271 220.941 41.3271C215.246 41.3271 210.296 42.4648 207.799 44.1275H206.068V46.8841H206.09C206.55 49.6407 213.012 51.8066 220.919 51.8066C228.826 51.8066 235.288 49.6188 235.748 46.8841H235.77V44.1275H234.04H234.083Z" fill="url(#paint21_linear_307_1033)"/>
<path d="M220.941 49.356C229.143 49.356 235.792 47.015 235.792 44.1272C235.792 41.2394 229.143 38.8984 220.941 38.8984C212.739 38.8984 206.09 41.2394 206.09 44.1272C206.09 47.015 212.739 49.356 220.941 49.356Z" fill="#D2D2D2"/>
<path opacity="0.2" d="M220.941 49.356C229.143 49.356 235.792 47.015 235.792 44.1272C235.792 41.2394 229.143 38.8984 220.941 38.8984C212.739 38.8984 206.09 41.2394 206.09 44.1272C206.09 47.015 212.739 49.356 220.941 49.356Z" fill="url(#paint22_linear_307_1033)"/>
<path d="M221.007 46.0088C224.314 46.0088 227.403 45.6806 230.053 45.1118C231.105 44.893 231.586 43.6678 231.017 42.749C228.651 39.0517 224.818 36.667 220.503 36.667C216.188 36.667 212.508 38.9641 210.143 42.5083C209.529 43.4053 210.011 44.6305 211.063 44.893C213.888 45.5931 217.327 46.0088 221.029 46.0088H221.007Z" fill="#BFBEBE"/>
<path opacity="0.3" d="M221.007 46.0088C224.314 46.0088 227.403 45.6806 230.053 45.1118C231.105 44.893 231.586 43.6678 231.017 42.749C228.651 39.0517 224.818 36.667 220.503 36.667C216.188 36.667 212.508 38.9641 210.143 42.5083C209.529 43.4053 210.011 44.6305 211.063 44.893C213.888 45.5931 217.327 46.0088 221.029 46.0088H221.007Z" fill="url(#paint23_linear_307_1033)"/>
<path d="M308.491 105.254H274.847L276.577 91.7988H306.739L308.491 105.254Z" fill="#D2D2D2"/>
<path opacity="0.2" d="M308.491 105.254H274.847L276.577 91.7988H306.739L308.491 105.254Z" fill="url(#paint24_linear_307_1033)"/>
<path d="M308.535 105.253H274.891V110.679H308.535V105.253Z" fill="#BFBEBE"/>
<path opacity="0.3" d="M308.535 105.253H274.891V110.679H308.535V105.253Z" fill="url(#paint25_linear_307_1033)"/>
<path d="M304.264 64.014C304.264 56.9913 298.612 51.2812 291.647 51.2812C284.681 51.2812 279.03 56.9694 279.03 64.014L279.074 100.987H304.198L304.242 64.014H304.264Z" fill="#BFBEBE"/>
<path opacity="0.3" d="M304.264 64.014C304.264 56.9913 298.612 51.2812 291.647 51.2812C284.681 51.2812 279.03 56.9694 279.03 64.014L279.074 100.987H304.198L304.242 64.014H304.264Z" fill="url(#paint26_linear_307_1033)"/>
<path d="M289.479 78.3657L286.083 77.9938C285.623 77.9501 285.229 77.6438 285.032 77.2281C283.805 74.3184 283.236 63.7515 283.236 63.7515L282.82 67.777L282.338 78.2564L284.835 79.0221L285.492 79.4159V85.3228H289.566C290.705 85.3228 291.647 84.4477 291.647 83.3538V80.4879C291.647 79.3284 290.661 78.3876 289.457 78.3876L289.479 78.3657Z" fill="#959494"/>
<path opacity="0.3" d="M289.478 78.3657L286.083 77.9938C285.623 77.9501 285.229 77.6438 285.032 77.2281C283.805 74.3184 283.236 63.7515 283.236 63.7515L282.359 67.0112V78.2564L284.856 79.0221L285.514 79.4159V85.3228H289.588C290.727 85.3228 291.669 84.4477 291.669 83.3538V80.4879C291.669 79.3284 290.683 78.3876 289.478 78.3876V78.3657Z" fill="url(#paint27_linear_307_1033)"/>
<path d="M295.546 73.5968H298.853H299.006C299.642 73.5968 300.145 73.028 300.145 72.3061L300.759 60.2515V64.1676L301.503 74.7563L299.423 74.2313L298.875 74.6251V80.5321H295.458C294.494 80.5321 293.728 79.6569 293.728 78.5631V75.6971C293.728 74.5376 294.56 73.5968 295.567 73.5968H295.546Z" fill="#959494"/>
<path opacity="0.3" d="M295.546 73.5968H298.853H299.006C299.642 73.5968 300.145 73.028 300.145 72.3061L300.759 60.2515V64.1676L301.503 74.7563L299.423 74.2313L298.875 74.6251V80.5321H295.458C294.494 80.5321 293.728 79.6569 293.728 78.5631V75.6971C293.728 74.5376 294.56 73.5968 295.567 73.5968H295.546Z" fill="url(#paint28_linear_307_1033)"/>
<path opacity="0.3" d="M288.449 43.1431H294.845V53.0099C294.845 54.0819 293.969 54.9351 292.918 54.9351H290.399C289.325 54.9351 288.471 54.06 288.471 53.0099V43.1431H288.449Z" fill="url(#paint29_linear_307_1033)"/>
<path d="M304.263 62.1548L300.759 60.2515V72.9843C300.759 73.6625 300.277 74.2313 299.663 74.2313H295.83C295.086 74.2313 294.494 74.9095 294.494 75.7627V79.11C294.494 79.8976 295.064 80.5539 295.743 80.5539H298.152C302.861 80.5539 304.263 79.0225 304.263 75.9815C304.263 72.9405 304.263 62.1986 304.263 62.1986V62.1548Z" fill="#BFBEBE"/>
<path opacity="0.2" d="M304.263 62.1548L300.759 60.2515V72.9843C300.759 73.6625 300.277 74.2313 299.663 74.2313H295.83C295.086 74.2313 294.494 74.9095 294.494 75.7627V79.11C294.494 79.8976 295.064 80.5539 295.743 80.5539H298.152C302.861 80.5539 304.263 79.0225 304.263 75.9815C304.263 72.9405 304.263 62.1986 304.263 62.1986V62.1548Z" fill="url(#paint30_linear_307_1033)"/>
<path d="M289.149 79.0444C289.149 79.0444 286.455 78.7819 285.579 78.6068C282.228 77.9068 283.257 60.9297 283.257 60.9297L279.052 62.833C279.052 62.833 279.052 73.575 279.052 76.616C279.052 79.657 280.738 85.3452 286.368 85.3452H289.259C290.091 85.3452 290.77 84.7107 290.77 83.9012V80.5539C290.77 79.7226 290.047 79.0225 289.171 79.0225L289.149 79.0444Z" fill="#BFBEBE"/>
<path opacity="0.2" d="M289.149 79.0444C289.149 79.0444 286.455 78.7819 285.579 78.6068C282.228 77.9068 283.257 60.9297 283.257 60.9297L279.052 62.833C279.052 62.833 279.052 73.575 279.052 76.616C279.052 79.657 280.738 85.3452 286.368 85.3452H289.259C290.091 85.3452 290.77 84.7107 290.77 83.9012V80.5539C290.77 79.7226 290.047 79.0225 289.171 79.0225L289.149 79.0444Z" fill="url(#paint31_linear_307_1033)"/>
<path opacity="0.5" d="M293.881 51.5002C293.312 51.4783 292.742 51.4346 292.151 51.4346C290.968 51.4346 289.807 51.5221 288.668 51.6533C285.098 52.5285 283.039 53.4473 281.374 56.6415C281.987 58.326 283.17 62.264 292.063 62.264C297.342 62.264 300.956 60.9295 301.898 56.6415C300.211 52.9222 297.977 52.244 293.859 51.5002H293.881Z" fill="#959494"/>
<path d="M291.668 33.9761C298.459 33.9761 304.285 39.7518 304.285 46.862C304.285 53.9723 301.788 61.6076 291.668 61.6076C281.549 61.6076 279.052 53.9723 279.052 46.862C279.052 39.7518 284.878 33.9761 291.668 33.9761Z" fill="#BFBEBE"/>
<path opacity="0.2" d="M291.668 33.9761C298.459 33.9761 304.285 39.7518 304.285 46.862C304.285 53.9723 301.788 61.6076 291.668 61.6076C281.549 61.6076 279.052 53.9723 279.052 46.862C279.052 39.7518 284.878 33.9761 291.668 33.9761Z" fill="url(#paint32_linear_307_1033)"/>
<path opacity="0.3" d="M291.668 33.9761C298.459 33.9761 304.285 39.7518 304.285 46.862C304.285 53.9723 301.788 61.6076 291.668 61.6076C281.549 61.6076 279.052 53.9723 279.052 46.862C279.052 39.7518 284.878 33.9761 291.668 33.9761Z" fill="url(#paint33_linear_307_1033)"/>
<path opacity="0.71" d="M289.435 42.9243H293.903V52.5942C293.903 53.4694 293.202 54.1694 292.326 54.1694H291.012C290.135 54.1694 289.435 53.4694 289.435 52.5942V42.9243Z" fill="#CDCDCD"/>
<path opacity="0.15" d="M289.435 43.1431H293.903V52.5942C293.903 53.4474 293.202 54.1475 292.348 54.1475H291.012C290.157 54.1475 289.456 53.4474 289.456 52.5942V43.1431H289.435Z" fill="url(#paint34_linear_307_1033)"/>
<path opacity="0.5" d="M282.404 38.1986C281.024 39.73 280.016 41.5677 279.469 43.6242C282.075 44.8275 286.763 45.637 292.107 45.637C296.948 45.637 301.219 44.9806 303.935 43.9524C303.41 41.6552 302.249 39.5769 300.694 37.936C298.262 37.4547 295.305 37.1484 292.107 37.1484C288.384 37.1484 285.01 37.5422 282.404 38.1767V38.1986Z" fill="#959494"/>
<path d="M305.249 37.4765C302.752 36.1201 297.824 35.2231 292.107 35.2231C286.39 35.2231 281.462 36.142 278.965 37.4765H277.234V39.7081H277.278C277.738 41.9396 284.178 43.7117 292.085 43.7117C299.993 43.7117 306.432 41.9396 306.892 39.7081H306.936V37.4765H305.206H305.249Z" fill="#BFBEBE"/>
<path opacity="0.3" d="M305.249 37.4765C302.752 36.1201 297.824 35.2231 292.107 35.2231C286.39 35.2231 281.462 36.142 278.965 37.4765H277.234V39.7081H277.278C277.738 41.9396 284.178 43.7117 292.085 43.7117C299.993 43.7117 306.432 41.9396 306.892 39.7081H306.936V37.4765H305.206H305.249Z" fill="url(#paint35_linear_307_1033)"/>
<path d="M292.107 41.721C300.309 41.721 306.958 39.8207 306.958 37.4767C306.958 35.1326 300.309 33.2324 292.107 33.2324C283.905 33.2324 277.256 35.1326 277.256 37.4767C277.256 39.8207 283.905 41.721 292.107 41.721Z" fill="#D2D2D2"/>
<path opacity="0.2" d="M292.107 41.721C300.309 41.721 306.958 39.8207 306.958 37.4767C306.958 35.1326 300.309 33.2324 292.107 33.2324C283.905 33.2324 277.256 35.1326 277.256 37.4767C277.256 39.8207 283.905 41.721 292.107 41.721Z" fill="url(#paint36_linear_307_1033)"/>
<path d="M292.239 39.905C296.028 39.905 299.577 39.4456 302.599 38.6361C303.804 38.308 304.374 36.5578 303.695 35.267C300.978 29.9945 296.598 26.5815 291.647 26.5815C286.697 26.5815 282.492 29.8632 279.776 34.9388C279.075 36.2296 279.622 37.9579 280.827 38.3298C284.069 39.3362 287.989 39.9269 292.239 39.9269V39.905Z" fill="#BFBEBE"/>
<path opacity="0.3" d="M292.239 39.905C296.028 39.905 299.577 39.4456 302.599 38.6361C303.804 38.308 304.374 36.5578 303.695 35.267C300.978 29.9945 296.598 26.5815 291.647 26.5815C286.697 26.5815 282.492 29.8632 279.776 34.9388C279.075 36.2296 279.622 37.9579 280.827 38.3298C284.069 39.3362 287.989 39.9269 292.239 39.9269V39.905Z" fill="url(#paint37_linear_307_1033)"/>
<path d="M240.173 65.3267V71.168C240.173 77.7094 248.014 83.0038 257.718 83.0038C267.421 83.0038 275.263 77.7094 275.263 71.168V65.3267H240.195H240.173Z" fill="#BFBEBE"/>
<path opacity="0.3" d="M240.173 65.3267V71.168C240.173 77.7094 248.014 83.0038 257.718 83.0038C267.421 83.0038 275.263 77.7094 275.263 71.168V65.3267H240.195H240.173Z" fill="url(#paint38_linear_307_1033)"/>
<path d="M257.718 77.469C267.408 77.469 275.263 72.1699 275.263 65.6332C275.263 59.0964 267.408 53.7974 257.718 53.7974C248.028 53.7974 240.173 59.0964 240.173 65.6332C240.173 72.1699 248.028 77.469 257.718 77.469Z" fill="#D2D2D2"/>
<path opacity="0.2" d="M257.718 77.469C267.408 77.469 275.263 72.1699 275.263 65.6332C275.263 59.0964 267.408 53.7974 257.718 53.7974C248.028 53.7974 240.173 59.0964 240.173 65.6332C240.173 72.1699 248.028 77.469 257.718 77.469Z" fill="url(#paint39_linear_307_1033)"/>
<path d="M271.934 37.3452C271.934 37.192 271.934 37.0607 271.934 36.9076C271.934 29.8849 265.384 24.1748 257.302 24.1748C249.219 24.1748 242.67 29.863 242.67 36.9076V62.942C242.67 62.942 242.67 63.1608 242.67 63.2702C242.67 68.4552 249.219 72.6338 257.302 72.6338C265.384 72.6338 271.934 68.4333 271.934 63.2702C271.934 63.1608 271.934 63.0514 271.934 62.942V37.3452Z" fill="#BFBEBE"/>
<path opacity="0.55" d="M271.934 37.3452C271.934 37.192 271.934 37.0607 271.934 36.9076C271.934 29.8849 265.384 24.1748 257.302 24.1748C249.219 24.1748 242.67 29.863 242.67 36.9076V62.942C242.67 62.942 242.67 63.1608 242.67 63.2702C242.67 68.4552 249.219 72.6338 257.302 72.6338C265.384 72.6338 271.934 68.4333 271.934 63.2702C271.934 63.1608 271.934 63.0514 271.934 62.942V37.3452Z" fill="url(#paint40_linear_307_1033)"/>
<path opacity="0.1" d="M271.934 37.3452C271.934 37.192 271.934 37.0607 271.934 36.9076C271.934 29.8849 265.384 24.1748 257.302 24.1748C249.219 24.1748 242.67 29.863 242.67 36.9076V62.942C242.67 62.942 242.67 63.1608 242.67 63.2702C242.67 68.4552 249.219 72.6338 257.302 72.6338C265.384 72.6338 271.934 68.4333 271.934 63.2702C271.934 63.1608 271.934 63.0514 271.934 62.942V37.3452Z" fill="url(#paint41_linear_307_1033)"/>
<path opacity="0.5" d="M267.422 27.719C264.793 25.5312 261.245 24.1748 257.324 24.1748C253.403 24.1748 249.767 25.5531 247.139 27.7846C248.475 31.8757 251.388 35.0042 257.28 35.0042C263.172 35.0042 266.129 31.8539 267.444 27.719H267.422Z" fill="#959494"/>
<path d="M257.258 6.12598C267.268 6.12598 268.385 11.8142 268.385 18.8588C268.385 25.9034 266.436 33.4293 257.258 33.4293C248.08 33.4293 246.131 25.9034 246.131 18.8588C246.131 11.8142 247.27 6.12598 257.258 6.12598Z" fill="#BFBEBE"/>
<path d="M248.387 9.75757C246.832 11.639 246.306 14.2425 246.175 17.1741C248.891 18.3774 253.031 19.1431 257.718 19.1431C261.902 19.1431 265.669 18.5305 268.363 17.5241C268.232 14.2862 267.684 11.4203 265.866 9.45128C263.523 8.90434 260.719 8.57617 257.718 8.57617C254.192 8.57617 250.95 9.01372 248.409 9.73569L248.387 9.75757Z" fill="#959494"/>
<path opacity="0.2" d="M257.258 6.12598C267.268 6.12598 268.385 11.8142 268.385 18.8588C268.385 25.9034 266.436 33.4293 257.258 33.4293C248.08 33.4293 246.131 25.9034 246.131 18.8588C246.131 11.8142 247.27 6.12598 257.258 6.12598Z" fill="url(#paint42_linear_307_1033)"/>
<path d="M258.813 25.378H255.703C254.783 25.378 254.104 24.5247 254.301 23.6278L255.221 19.471C255.221 19.0116 255.593 18.6396 256.053 18.6396H258.484C258.944 18.6396 259.317 19.0116 259.317 19.471L260.237 23.6278C260.434 24.5247 259.755 25.378 258.835 25.378H258.813Z" fill="#CDCDCD"/>
<path opacity="0.15" d="M258.813 25.378H255.703C254.783 25.378 254.104 24.5247 254.301 23.6278L255.221 19.471C255.221 19.0116 255.593 18.6396 256.053 18.6396H258.484C258.944 18.6396 259.317 19.0116 259.317 19.471L260.237 23.6278C260.434 24.5247 259.755 25.378 258.835 25.378H258.813Z" fill="url(#paint43_linear_307_1033)"/>
<path d="M255.177 19.2303C255.505 18.9021 258.638 18.8146 259.273 19.2959C260.543 18.3333 264.135 18.6396 264.135 18.6396C264.135 18.6396 262.558 16.9769 258.966 18.4646C258.813 18.5302 257.236 17.8739 255.374 18.4646C255.374 18.4646 252.504 17.0644 250.643 18.4646C250.643 18.4646 254.41 18.574 255.177 19.2522V19.2303Z" fill="#959494"/>
<path d="M260.544 48.9185H264.859H265.078C265.888 48.9185 266.567 48.1528 266.567 47.2339V31.0444L267.356 36.6014L268.32 50.4718L265.582 49.7936L264.881 50.3187V59.7479H260.412C259.164 59.7479 258.156 58.5884 258.156 57.1664V51.7188C258.156 50.2093 259.23 48.9622 260.566 48.9622L260.544 48.9185Z" fill="#959494"/>
<path opacity="0.3" d="M260.544 48.9185H264.859H265.078C265.888 48.9185 266.567 48.1528 266.567 47.2339V31.0444L267.356 36.6014L268.32 50.4718L265.582 49.7936L264.881 50.3187V59.7479H260.412C259.164 59.7479 258.156 58.5884 258.156 57.1664V51.7188C258.156 50.2093 259.23 48.9622 260.566 48.9622L260.544 48.9185Z" fill="url(#paint44_linear_307_1033)"/>
<path d="M271.934 36.4044L266.567 31.0225L267.356 48.1308C267.356 49.0278 266.72 49.7497 265.932 49.7497H260.916C259.952 49.7497 259.186 50.6467 259.186 51.7406V57.8226C259.186 58.8508 259.908 59.7041 260.828 59.7041H263.983C270.116 59.7041 271.956 56.0068 271.956 52.0031C271.956 47.9995 271.956 36.4044 271.956 36.4044H271.934Z" fill="#BFBEBE"/>
<path opacity="0.2" d="M271.934 36.4044L266.567 31.0225L267.356 48.1308C267.356 49.0278 266.72 49.7497 265.932 49.7497H260.916C259.952 49.7497 259.186 50.6467 259.186 51.7406V57.8226C259.186 58.8508 259.908 59.7041 260.828 59.7041H263.983C270.116 59.7041 271.956 56.0068 271.956 52.0031C271.956 47.9995 271.956 36.4044 271.956 36.4044H271.934Z" fill="url(#paint45_linear_307_1033)"/>
<path d="M254.082 54.541H249.547C248.737 54.541 248.058 53.7753 248.058 52.8565V36.667L247.269 42.2239L246.306 56.0944L249.044 55.4161L249.745 55.9412V65.3705H254.213C255.461 65.3705 256.469 64.211 256.469 62.7889V57.3414C256.469 55.8318 255.396 54.5848 254.06 54.5848L254.082 54.541Z" fill="#959494"/>
<path opacity="0.3" d="M254.082 54.541H249.547C248.737 54.541 248.058 53.7753 248.058 52.8565V36.667L247.269 42.2239L246.306 56.0944L249.044 55.4161L249.745 55.9412V65.3705H254.213C255.461 65.3705 256.469 64.211 256.469 62.7889V57.3414C256.469 55.8318 255.396 54.5848 254.06 54.5848L254.082 54.541Z" fill="url(#paint46_linear_307_1033)"/>
<path d="M253.709 55.3943H248.693C247.905 55.3943 247.269 54.6723 247.269 53.7753L248.058 36.667L242.691 39.5986C242.691 39.5986 242.691 53.6441 242.691 57.6477C242.691 61.6513 244.531 65.3486 250.664 65.3486H253.819C254.717 65.3486 255.461 64.5173 255.461 63.4671V57.3851C255.461 56.2913 254.673 55.3943 253.731 55.3943H253.709Z" fill="#BFBEBE"/>
<path opacity="0.2" d="M253.709 55.3943H248.693C247.905 55.3943 247.269 54.6723 247.269 53.7753L248.058 36.667L242.691 39.5986C242.691 39.5986 242.691 53.6441 242.691 57.6477C242.691 61.6513 244.531 65.3486 250.664 65.3486H253.819C254.717 65.3486 255.461 64.5173 255.461 63.4671V57.3851C255.461 56.2913 254.673 55.3943 253.731 55.3943H253.709Z" fill="url(#paint47_linear_307_1033)"/>
<path d="M270.838 10.6543C268.341 8.99164 263.413 7.854 257.696 7.854C251.979 7.854 247.051 8.99164 244.554 10.6543H242.823V13.4109H242.867C243.327 16.1675 249.767 18.3334 257.674 18.3334C265.581 18.3334 272.021 16.1456 272.481 13.4109H272.525V10.6543H270.795H270.838Z" fill="#BFBEBE"/>
<path opacity="0.3" d="M270.838 10.6543C268.341 8.99164 263.413 7.854 257.696 7.854C251.979 7.854 247.051 8.99164 244.554 10.6543H242.823V13.4109H242.867C243.327 16.1675 249.767 18.3334 257.674 18.3334C265.581 18.3334 272.021 16.1456 272.481 13.4109H272.525V10.6543H270.795H270.838Z" fill="url(#paint48_linear_307_1033)"/>
<path d="M257.718 15.8833C265.92 15.8833 272.569 13.5423 272.569 10.6545C272.569 7.76678 265.92 5.42578 257.718 5.42578C249.516 5.42578 242.867 7.76678 242.867 10.6545C242.867 13.5423 249.516 15.8833 257.718 15.8833Z" fill="#D2D2D2"/>
<path opacity="0.2" d="M257.718 15.8833C265.92 15.8833 272.569 13.5423 272.569 10.6545C272.569 7.76678 265.92 5.42578 257.718 5.42578C249.516 5.42578 242.867 7.76678 242.867 10.6545C242.867 13.5423 249.516 15.8833 257.718 15.8833Z" fill="url(#paint49_linear_307_1033)"/>
<path d="M257.279 14.4393C260.587 14.4393 263.675 13.9361 266.326 13.061C267.377 12.7109 267.859 10.8076 267.289 9.40739C264.924 3.69733 261.091 0 256.776 0C252.46 0 248.781 3.54418 246.415 9.03547C245.802 10.4356 246.284 12.3171 247.335 12.7109C250.161 13.7829 253.599 14.4393 257.301 14.4393H257.279Z" fill="#BFBEBE"/>
<path opacity="0.3" d="M257.279 14.4393C260.587 14.4393 263.675 13.9361 266.326 13.061C267.377 12.7109 267.859 10.8076 267.289 9.40739C264.924 3.69733 261.091 0 256.776 0C252.46 0 248.781 3.54418 246.415 9.03547C245.802 10.4356 246.284 12.3171 247.335 12.7109C250.161 13.7829 253.599 14.4393 257.301 14.4393H257.279Z" fill="url(#paint50_linear_307_1033)"/>
<path d="M282.491 97.8809H233.82C224.082 97.8809 216.188 105.766 216.188 115.492C216.188 125.219 224.082 133.104 233.82 133.104H282.491C292.229 133.104 300.123 125.219 300.123 115.492C300.123 105.766 292.229 97.8809 282.491 97.8809Z" fill="#D8EBD3"/>
<path d="M252.308 112.67C252.308 111.97 252.658 111.401 253.403 111.007C254.498 110.373 256.469 110.088 259.207 110.088C261.945 110.088 263.917 110.373 265.034 111.007C265.735 111.401 266.107 111.948 266.107 112.67C266.107 113.392 265.735 113.939 264.99 114.332C264.004 114.879 262.383 115.164 260.259 115.208V116.411H267.29V118.161H251.19V116.411H258.156V115.208C256.075 115.142 254.542 114.857 253.556 114.332C252.789 113.939 252.373 113.37 252.373 112.648L252.308 112.67ZM266.611 107.594V109.235H251.76V107.594H258.068V106.216H260.259V107.594H266.611ZM266.085 124.877H252.329V119.474H266.085V124.877ZM254.454 112.67C254.454 112.889 254.607 113.064 254.936 113.195C255.615 113.501 257.039 113.676 259.207 113.676C261.376 113.676 262.8 113.567 263.457 113.217C263.763 113.085 263.938 112.889 263.938 112.67C263.938 112.407 263.763 112.21 263.435 112.079C262.734 111.773 261.354 111.641 259.207 111.641C257.061 111.641 255.571 111.751 254.914 112.101C254.629 112.232 254.454 112.429 254.454 112.67ZM263.938 123.149V121.224H254.454V123.149H263.938Z" fill="#20614D"/>
</g>
<defs>
<linearGradient id="paint0_linear_307_1033" x1="568.445" y1="100.791" x2="284.504" y2="150.919" gradientUnits="userSpaceOnUse">
<stop offset="0.11" stop-color="#2C1C2A" stop-opacity="0.85"/>
<stop offset="0.51" stop-color="#1E0C0D" stop-opacity="0.9"/>
<stop offset="0.66" stop-color="#1E0C0D" stop-opacity="0"/>
</linearGradient>
<linearGradient id="paint1_linear_307_1033" x1="306.057" y1="173.161" x2="308.401" y2="173.161" gradientUnits="userSpaceOnUse">
<stop offset="0.43" stop-color="#1E0C0D" stop-opacity="0"/>
<stop offset="0.76" stop-color="#1E0C0D" stop-opacity="0.9"/>
<stop offset="0.95" stop-color="#102011" stop-opacity="0.85"/>
</linearGradient>
<linearGradient id="paint2_linear_307_1033" x1="300.911" y1="166.249" x2="316.025" y2="166.249" gradientUnits="userSpaceOnUse">
<stop offset="0.35" stop-color="#1E0C0D" stop-opacity="0"/>
<stop offset="0.76" stop-color="#102011" stop-opacity="0.6"/>
<stop offset="0.95" stop-color="#041D30" stop-opacity="0.85"/>
</linearGradient>
<linearGradient id="paint3_linear_307_1033" x1="338.562" y1="193.069" x2="340.928" y2="193.069" gradientUnits="userSpaceOnUse">
<stop offset="0.43" stop-color="#1E0C0D" stop-opacity="0"/>
<stop offset="0.76" stop-color="#1E0C0D" stop-opacity="0.9"/>
<stop offset="0.95" stop-color="#102011" stop-opacity="0.85"/>
</linearGradient>
<linearGradient id="paint4_linear_307_1033" x1="333.438" y1="186.157" x2="348.552" y2="186.157" gradientUnits="userSpaceOnUse">
<stop offset="0.35" stop-color="#1E0C0D" stop-opacity="0"/>
<stop offset="0.76" stop-color="#102011" stop-opacity="0.6"/>
<stop offset="0.95" stop-color="#041D30" stop-opacity="0.85"/>
</linearGradient>
<linearGradient id="paint5_linear_307_1033" x1="331.072" y1="189.591" x2="333.985" y2="189.591" gradientUnits="userSpaceOnUse">
<stop offset="0.43" stop-color="#1E0C0D" stop-opacity="0"/>
<stop offset="0.76" stop-color="#1E0C0D" stop-opacity="0.9"/>
<stop offset="0.95" stop-color="#102011" stop-opacity="0.85"/>
</linearGradient>
<linearGradient id="paint6_linear_307_1033" x1="324.459" y1="180.272" x2="343.318" y2="180.272" gradientUnits="userSpaceOnUse">
<stop offset="0.35" stop-color="#1E0C0D" stop-opacity="0"/>
<stop offset="0.76" stop-color="#102011" stop-opacity="0.6"/>
<stop offset="0.95" stop-color="#041D30" stop-opacity="0.85"/>
</linearGradient>
<linearGradient id="paint7_linear_307_1033" x1="490.268" y1="165.46" x2="493.181" y2="165.46" gradientUnits="userSpaceOnUse">
<stop offset="0.43" stop-color="#1E0C0D" stop-opacity="0"/>
<stop offset="0.76" stop-color="#1E0C0D" stop-opacity="0.9"/>
<stop offset="0.95" stop-color="#102011" stop-opacity="0.85"/>
</linearGradient>
<linearGradient id="paint8_linear_307_1033" x1="483.677" y1="156.141" x2="502.515" y2="156.141" gradientUnits="userSpaceOnUse">
<stop offset="0.35" stop-color="#1E0C0D" stop-opacity="0"/>
<stop offset="0.76" stop-color="#102011" stop-opacity="0.6"/>
<stop offset="0.95" stop-color="#041D30" stop-opacity="0.85"/>
</linearGradient>
<linearGradient id="paint9_linear_307_1033" x1="224.533" y1="125.315" x2="288.985" y2="60.7866" gradientUnits="userSpaceOnUse">
<stop offset="0.44" stop-opacity="0"/>
<stop offset="1" stop-opacity="0.5"/>
</linearGradient>
<linearGradient id="paint10_linear_307_1033" x1="200.833" y1="105.297" x2="241.049" y2="105.297" gradientUnits="userSpaceOnUse">
<stop offset="0.33" stop-opacity="0.1"/>
<stop offset="1" stop-opacity="0.5"/>
</linearGradient>
<linearGradient id="paint11_linear_307_1033" x1="209.266" y1="85.1042" x2="232.588" y2="108.454" gradientUnits="userSpaceOnUse">
<stop offset="0.23" stop-opacity="0"/>
<stop offset="1" stop-opacity="0.5"/>
</linearGradient>
<linearGradient id="paint12_linear_307_1033" x1="208.543" y1="63.0077" x2="231.829" y2="103.374" gradientUnits="userSpaceOnUse">
<stop offset="0.44" stop-opacity="0"/>
<stop offset="1" stop-opacity="0.6"/>
</linearGradient>
<linearGradient id="paint13_linear_307_1033" x1="207.886" y1="83.135" x2="219.539" y2="83.135" gradientUnits="userSpaceOnUse">
<stop offset="0.33" stop-opacity="0.1"/>
<stop offset="1" stop-opacity="0.5"/>
</linearGradient>
<linearGradient id="paint14_linear_307_1033" x1="233.098" y1="83.135" x2="221.467" y2="83.135" gradientUnits="userSpaceOnUse">
<stop offset="0.33" stop-opacity="0.1"/>
<stop offset="1" stop-opacity="0.5"/>
</linearGradient>
<linearGradient id="paint15_linear_307_1033" x1="229.943" y1="69.0239" x2="229.943" y2="97.268" gradientUnits="userSpaceOnUse">
<stop offset="0.44" stop-opacity="0"/>
<stop offset="1" stop-opacity="0.5"/>
</linearGradient>
<linearGradient id="paint16_linear_307_1033" x1="203.724" y1="82.6101" x2="237.281" y2="82.6101" gradientUnits="userSpaceOnUse">
<stop offset="0.44" stop-opacity="0"/>
<stop offset="1" stop-opacity="0.5"/>
</linearGradient>
<linearGradient id="paint17_linear_307_1033" x1="211.04" y1="69.0239" x2="211.04" y2="97.268" gradientUnits="userSpaceOnUse">
<stop offset="0.44" stop-opacity="0"/>
<stop offset="1" stop-opacity="0.5"/>
</linearGradient>
<linearGradient id="paint18_linear_307_1033" x1="230.447" y1="45.3741" x2="210.56" y2="65.2847" gradientUnits="userSpaceOnUse">
<stop offset="0.33" stop-opacity="0"/>
<stop offset="1" stop-opacity="0.5"/>
</linearGradient>
<linearGradient id="paint19_linear_307_1033" x1="220.502" y1="69.5271" x2="220.502" y2="42.2456" gradientUnits="userSpaceOnUse">
<stop offset="0.33" stop-opacity="0"/>
<stop offset="1"/>
</linearGradient>
<linearGradient id="paint20_linear_307_1033" x1="220.503" y1="53.1191" x2="220.503" y2="62.7453" gradientUnits="userSpaceOnUse">
<stop offset="0.23" stop-opacity="0.1"/>
<stop offset="1" stop-opacity="0.8"/>
</linearGradient>
<linearGradient id="paint21_linear_307_1033" x1="206.09" y1="46.5778" x2="235.792" y2="46.5778" gradientUnits="userSpaceOnUse">
<stop offset="0.33" stop-opacity="0"/>
<stop offset="1" stop-opacity="0.5"/>
</linearGradient>
<linearGradient id="paint22_linear_307_1033" x1="213.055" y1="36.2512" x2="228.807" y2="52.0001" gradientUnits="userSpaceOnUse">
<stop offset="0.23" stop-opacity="0"/>
<stop offset="1" stop-opacity="0.5"/>
</linearGradient>
<linearGradient id="paint23_linear_307_1033" x1="214.764" y1="37.4765" x2="226.381" y2="49.1074" gradientUnits="userSpaceOnUse">
<stop offset="0.23" stop-opacity="0"/>
<stop offset="1" stop-opacity="0.5"/>
</linearGradient>
<linearGradient id="paint24_linear_307_1033" x1="274.847" y1="98.5371" x2="308.491" y2="98.5371" gradientUnits="userSpaceOnUse">
<stop offset="0.23" stop-opacity="0"/>
<stop offset="1" stop-opacity="0.5"/>
</linearGradient>
<linearGradient id="paint25_linear_307_1033" x1="274.891" y1="107.966" x2="308.535" y2="107.966" gradientUnits="userSpaceOnUse">
<stop offset="0.33" stop-opacity="0.1"/>
<stop offset="1" stop-opacity="0.5"/>
</linearGradient>
<linearGradient id="paint26_linear_307_1033" x1="274.781" y1="62.9639" x2="308.494" y2="96.7178" gradientUnits="userSpaceOnUse">
<stop offset="0.44" stop-opacity="0"/>
<stop offset="1" stop-opacity="0.5"/>
</linearGradient>
<linearGradient id="paint27_linear_307_1033" x1="282.381" y1="74.5153" x2="291.69" y2="74.5153" gradientUnits="userSpaceOnUse">
<stop offset="0.33" stop-opacity="0.1"/>
<stop offset="1" stop-opacity="0.5"/>
</linearGradient>
<linearGradient id="paint28_linear_307_1033" x1="293.706" y1="70.4027" x2="301.482" y2="70.4027" gradientUnits="userSpaceOnUse">
<stop offset="0.33" stop-opacity="0.1"/>
<stop offset="1" stop-opacity="0.5"/>
</linearGradient>
<linearGradient id="paint29_linear_307_1033" x1="291.669" y1="54.957" x2="291.669" y2="43.1431" gradientUnits="userSpaceOnUse">
<stop offset="0.33" stop-opacity="0.1"/>
<stop offset="1" stop-opacity="0.5"/>
</linearGradient>
<linearGradient id="paint30_linear_307_1033" x1="299.379" y1="60.2515" x2="299.379" y2="80.5321" gradientUnits="userSpaceOnUse">
<stop offset="0.44" stop-opacity="0"/>
<stop offset="1" stop-opacity="0.5"/>
</linearGradient>
<linearGradient id="paint31_linear_307_1033" x1="279.052" y1="73.1374" x2="290.748" y2="73.1374" gradientUnits="userSpaceOnUse">
<stop offset="0.44" stop-opacity="0"/>
<stop offset="1" stop-opacity="0.5"/>
</linearGradient>
<linearGradient id="paint32_linear_307_1033" x1="279.052" y1="47.7809" x2="304.263" y2="47.7809" gradientUnits="userSpaceOnUse">
<stop offset="0.33" stop-opacity="0"/>
<stop offset="1" stop-opacity="0.5"/>
</linearGradient>
<linearGradient id="paint33_linear_307_1033" x1="291.668" y1="61.6076" x2="291.668" y2="33.9761" gradientUnits="userSpaceOnUse">
<stop offset="0.33" stop-opacity="0"/>
<stop offset="1"/>
</linearGradient>
<linearGradient id="paint34_linear_307_1033" x1="291.669" y1="54.1694" x2="291.669" y2="43.1431" gradientUnits="userSpaceOnUse">
<stop offset="0.33" stop-opacity="0.1"/>
<stop offset="1" stop-opacity="0.5"/>
</linearGradient>
<linearGradient id="paint35_linear_307_1033" x1="277.256" y1="39.4674" x2="306.958" y2="39.4674" gradientUnits="userSpaceOnUse">
<stop offset="0.33" stop-opacity="0"/>
<stop offset="1" stop-opacity="0.5"/>
</linearGradient>
<linearGradient id="paint36_linear_307_1033" x1="277.256" y1="37.4767" x2="306.958" y2="37.4767" gradientUnits="userSpaceOnUse">
<stop offset="0.23" stop-opacity="0"/>
<stop offset="1" stop-opacity="0.5"/>
</linearGradient>
<linearGradient id="paint37_linear_307_1033" x1="279.447" y1="33.2324" x2="303.979" y2="33.2324" gradientUnits="userSpaceOnUse">
<stop offset="0.23" stop-opacity="0"/>
<stop offset="1" stop-opacity="0.5"/>
</linearGradient>
<linearGradient id="paint38_linear_307_1033" x1="240.173" y1="74.1652" x2="275.241" y2="74.1652" gradientUnits="userSpaceOnUse">
<stop offset="0.33" stop-opacity="0.1"/>
<stop offset="1" stop-opacity="0.5"/>
</linearGradient>
<linearGradient id="paint39_linear_307_1033" x1="240.173" y1="65.6332" x2="275.241" y2="65.6332" gradientUnits="userSpaceOnUse">
<stop offset="0.23" stop-opacity="0"/>
<stop offset="1" stop-opacity="0.5"/>
</linearGradient>
<linearGradient id="paint40_linear_307_1033" x1="245.276" y1="28.5722" x2="268.737" y2="69.289" gradientUnits="userSpaceOnUse">
<stop offset="0.44" stop-opacity="0"/>
<stop offset="1" stop-opacity="0.6"/>
</linearGradient>
<linearGradient id="paint41_linear_307_1033" x1="242.692" y1="48.4153" x2="271.955" y2="48.4153" gradientUnits="userSpaceOnUse">
<stop offset="0.44" stop-opacity="0"/>
<stop offset="1" stop-opacity="0.5"/>
</linearGradient>
<linearGradient id="paint42_linear_307_1033" x1="246.131" y1="19.7776" x2="268.385" y2="19.7776" gradientUnits="userSpaceOnUse">
<stop offset="0.33" stop-opacity="0"/>
<stop offset="1" stop-opacity="0.5"/>
</linearGradient>
<linearGradient id="paint43_linear_307_1033" x1="254.257" y1="22.0088" x2="260.259" y2="22.0088" gradientUnits="userSpaceOnUse">
<stop offset="0.33" stop-opacity="0.1"/>
<stop offset="1" stop-opacity="0.5"/>
</linearGradient>
<linearGradient id="paint44_linear_307_1033" x1="268.32" y1="45.3524" x2="258.156" y2="45.3524" gradientUnits="userSpaceOnUse">
<stop offset="0.33" stop-opacity="0.1"/>
<stop offset="1" stop-opacity="0.5"/>
</linearGradient>
<linearGradient id="paint45_linear_307_1033" x1="271.956" y1="45.3523" x2="259.186" y2="45.3523" gradientUnits="userSpaceOnUse">
<stop offset="0.44" stop-opacity="0"/>
<stop offset="1" stop-opacity="0.5"/>
</linearGradient>
<linearGradient id="paint46_linear_307_1033" x1="246.328" y1="50.9969" x2="256.469" y2="50.9969" gradientUnits="userSpaceOnUse">
<stop offset="0.33" stop-opacity="0.1"/>
<stop offset="1" stop-opacity="0.5"/>
</linearGradient>
<linearGradient id="paint47_linear_307_1033" x1="242.691" y1="50.9969" x2="255.461" y2="50.9969" gradientUnits="userSpaceOnUse">
<stop offset="0.44" stop-opacity="0"/>
<stop offset="1" stop-opacity="0.5"/>
</linearGradient>
<linearGradient id="paint48_linear_307_1033" x1="242.845" y1="13.1046" x2="272.569" y2="13.1046" gradientUnits="userSpaceOnUse">
<stop offset="0.33" stop-opacity="0"/>
<stop offset="1" stop-opacity="0.5"/>
</linearGradient>
<linearGradient id="paint49_linear_307_1033" x1="242.845" y1="10.6545" x2="272.569" y2="10.6545" gradientUnits="userSpaceOnUse">
<stop offset="0.23" stop-opacity="0"/>
<stop offset="1" stop-opacity="0.5"/>
</linearGradient>
<linearGradient id="paint50_linear_307_1033" x1="246.13" y1="7.21963" x2="267.53" y2="7.21963" gradientUnits="userSpaceOnUse">
<stop offset="0.23" stop-opacity="0"/>
<stop offset="1" stop-opacity="0.5"/>
</linearGradient>
<clipPath id="clip0_307_1033">
<rect width="520" height="220" fill="white" transform="translate(0.5)"/>
</clipPath>
</defs>
</svg>
