<svg width="88" height="88" viewBox="0 0 88 88" fill="none" xmlns="http://www.w3.org/2000/svg">
<path d="M44 88C68.3005 88 88 68.3005 88 44C88 19.6995 68.3005 0 44 0C19.6995 0 0 19.6995 0 44C0 68.3005 19.6995 88 44 88Z" fill="#2E6D50"/>
<path d="M39.5988 33.6256L38.3738 32.4006L40.6488 30.0756C38.0488 29.8006 35.9238 29.1506 34.2238 28.2006C32.5238 27.2256 31.6738 26.0006 31.6738 24.5256C31.6738 23.0256 32.7738 21.7506 34.9988 20.6756C37.2238 19.6256 39.9238 19.1006 43.0988 19.1006C46.2738 19.1006 48.9988 19.6256 51.2238 20.6756C53.4238 21.7256 54.5488 23.0256 54.5488 24.5256C54.5488 25.6506 53.9488 26.6506 52.7238 27.5006C51.4988 28.3506 49.8738 29.0256 47.8738 29.5006V27.6506C49.3988 27.2756 50.5988 26.7756 51.4988 26.1756C52.3988 25.5756 52.8488 25.0256 52.8488 24.5506C52.8488 23.9506 52.0488 23.1756 50.4738 22.2256C48.8988 21.2756 46.4488 20.8256 43.1488 20.8256C39.8488 20.8256 37.4238 21.3006 35.8238 22.2256C34.2238 23.1506 33.4238 23.9256 33.4238 24.5506C33.4238 25.4006 33.9738 26.1506 35.0738 26.7756C36.1738 27.4006 38.0738 27.9506 40.7738 28.4756L38.3988 26.1506L39.6238 24.9256L43.9988 29.2756L39.6238 33.6756L39.5988 33.6256Z" fill="white" stroke="white" stroke-width="0.3" stroke-miterlimit="10"/>
<path d="M27.1234 55.0493C27.1234 52.6743 26.1484 51.7993 23.9484 51.7993H22.2234V47.7743H23.9484C25.5484 47.7743 26.5734 47.0493 26.5734 45.0993C26.5734 43.5993 25.7984 42.7493 24.5234 42.7493C23.2484 42.7493 22.4734 43.5993 22.4734 45.0993V45.4993H17.4234V44.8743C17.4234 41.1993 20.0234 38.6743 24.5234 38.6743C29.0234 38.6743 31.6484 41.2243 31.6484 44.7993C31.6484 47.5243 30.2484 49.0493 28.1984 49.6743C30.8984 50.3243 32.3484 52.3743 32.3484 55.2993C32.3484 59.3993 29.2234 62.0993 24.5484 62.0993C19.8734 62.0993 16.7734 59.3993 16.7734 55.2993V54.5993H21.9734V55.0743C21.9734 56.9743 22.8984 58.0243 24.5484 58.0243C26.1984 58.0243 27.1234 56.9743 27.1234 55.0743V55.0493Z" fill="white"/>
<path d="M43.5713 44.7493C43.4463 43.2993 42.7963 42.5993 41.5213 42.5993C39.6963 42.5993 38.9463 44.3243 38.8463 48.8743C39.5463 47.7243 40.9713 46.9993 42.6713 46.9993C46.2713 46.9993 49.1713 49.7243 49.1713 54.4743C49.1713 59.2243 46.1963 62.0743 41.5713 62.0743C38.7713 62.0743 36.5213 61.0493 35.1963 58.8743C33.9963 56.9243 33.6963 54.1743 33.6963 50.9743C33.6963 42.0243 36.2213 38.6743 41.6213 38.6743C45.8213 38.6743 48.4463 40.9493 48.7463 44.7743H43.5963L43.5713 44.7493ZM41.4713 57.9993C43.0963 57.9993 43.9713 56.7743 43.9713 54.4493C43.9713 52.1243 43.0963 50.8743 41.4713 50.8743C39.8463 50.8743 38.9713 52.0993 38.9713 54.4493C38.9713 56.7993 39.8213 57.9993 41.4713 57.9993Z" fill="white"/>
<path d="M63.7725 59.8993C62.5225 61.3493 60.6475 62.0743 58.1475 62.0743C55.6475 62.0743 53.7475 61.3493 52.4975 59.8993C50.8475 57.9743 50.1475 55.0743 50.1475 50.3743C50.1475 45.6743 50.8475 42.7743 52.4975 40.8493C53.7475 39.3993 55.6225 38.6743 58.1475 38.6743C60.6725 38.6743 62.5225 39.3993 63.7725 40.8493C65.4225 42.7743 66.1225 45.6743 66.1225 50.3743C66.1225 55.0743 65.4225 57.9743 63.7725 59.8993ZM60.1225 43.7993C59.6475 43.0493 59.0225 42.7493 58.1725 42.7493C57.3225 42.7493 56.6475 43.0493 56.1975 43.7993C55.5975 44.7993 55.3975 46.8243 55.3975 50.3743C55.3975 53.9243 55.5975 55.9243 56.1975 56.9493C56.6475 57.6743 57.3225 57.9993 58.1725 57.9993C59.0225 57.9993 59.6475 57.6743 60.1225 56.9493C60.7225 55.9243 60.9225 53.9243 60.9225 50.3743C60.9225 46.8243 60.7225 44.7993 60.1225 43.7993Z" fill="white"/>
<path d="M72.925 37.1756C72.925 39.5506 71.2 41.3256 68.6 41.3256C66 41.3256 64.25 39.5756 64.25 37.1756C64.25 34.7756 65.975 32.9756 68.6 32.9756C71.225 32.9756 72.925 34.7256 72.925 37.1756ZM67.225 37.1756C67.225 38.1006 67.775 38.6506 68.6 38.6506C69.425 38.6506 69.95 38.1006 69.95 37.1756C69.95 36.2506 69.4 35.6506 68.6 35.6506C67.8 35.6506 67.225 36.2256 67.225 37.1756Z" fill="white"/>
</svg>
