<svg width="88" height="88" viewBox="0 0 88 88" fill="none" xmlns="http://www.w3.org/2000/svg">
<path d="M44 88C68.3006 88 88.0001 68.3005 88.0001 44C88.0001 19.6995 68.3006 0 44 0C19.6995 0 0 19.6995 0 44C0 68.3005 19.6995 88 44 88Z" fill="#2E6D50"/>
<path d="M62.145 65.9997H25.8327C24.2714 65.9997 23 64.6952 23 63.0812V30.7118C23.0446 29.8938 23.7138 29.2305 24.5167 29.2305H63.4833C64.2862 29.2305 64.9554 29.8717 65 30.7118V63.0812C65 64.6952 63.7286 65.9997 62.1673 65.9997H62.145Z" fill="white"/>
<path d="M30.3604 29.2521V24.1668C30.3604 22.9728 31.3418 22 32.5462 22H55.3195C56.5239 22 57.5053 22.9728 57.5053 24.1668V29.2521" stroke="white" stroke-width="1.5" stroke-linejoin="round"/>
<path d="M35.5762 47.9128C35.5762 42.938 39.078 39.2456 43.9405 39.2456C48.8029 39.2456 52.2825 42.938 52.2825 47.9128C52.2825 48.2887 52.2825 48.7309 52.2156 49.1289H38.5873C38.8996 51.959 40.9739 54.0594 43.9405 54.0594C46.2156 54.0594 48 53.0202 48.6022 51.6715H51.658C50.7658 54.5237 47.7546 56.58 43.9405 56.58C39.078 56.58 35.5762 52.8876 35.5762 47.9128ZM43.9405 41.7662C40.9293 41.7662 38.8996 43.8445 38.5873 46.6967H49.3383C48.9814 43.8003 46.9516 41.7662 43.9405 41.7662Z" fill="#2E6D50" stroke="#2D6E51" stroke-width="0.5" stroke-miterlimit="10"/>
</svg>
