<svg width="89" height="88" viewBox="0 0 89 88" fill="none" xmlns="http://www.w3.org/2000/svg">
<path d="M44.5 88C68.8005 88 88.5 68.3006 88.5 44C88.5 19.6995 68.8005 0 44.5 0C20.1995 0 0.5 19.6995 0.5 44C0.5 68.3006 20.1995 88 44.5 88Z" fill="#2E6D50"/>
<path d="M28.4516 27.4501V21.7251H63.6516V63.1501C63.6516 65.4251 62.8766 67.3501 61.3016 68.9251C59.7266 70.5001 57.8016 71.2751 55.5266 71.2751H27.0016C25.7516 71.2751 24.6766 70.8001 23.7516 69.8751C22.8266 68.9501 22.3516 67.8501 22.3516 66.6251V58.8751H28.4516V27.4251V27.4501ZM33.1016 47.5001V58.8751H52.0516V63.1251C52.0516 64.1501 52.3766 65.0001 53.0266 65.6501C53.6766 66.3001 54.5016 66.6251 55.5516 66.6251C56.6016 66.6251 57.4266 66.3001 58.0766 65.6501C58.7266 65.0001 59.0516 64.1751 59.0516 63.1251V26.3501H33.1266V47.5001H33.1016Z" fill="white"/>
<path d="M44.6777 36.3997C43.5277 36.3997 42.9027 37.1747 42.9027 38.4497V38.8247H38.5527V38.4497C38.5527 35.1747 40.6277 32.8247 44.6777 32.8247C48.7277 32.8247 50.8027 35.1747 50.8027 38.4497C50.8027 40.5997 50.1527 41.8247 48.5027 43.2997C46.9777 44.6497 46.7027 45.2497 46.7027 46.4497V47.3247H42.3777V46.0497C42.3777 44.0247 42.8777 42.9997 44.5527 41.5497C46.0277 40.2497 46.4527 39.5997 46.4527 38.4497C46.4527 37.1497 45.8277 36.3997 44.6777 36.3997ZM42.3777 48.9747H46.7027V52.9497H42.3777V48.9747Z" fill="white"/>
</svg>
