<svg width="40" height="40" viewBox="0 0 40 40" fill="none" xmlns="http://www.w3.org/2000/svg">
<circle cx="20" cy="20" r="20" fill="#181818"/>
<g clip-path="url(#clip0_302_838)">
<path d="M28.706 23.9942V14.6647L20.6265 10V13.5782L23.7929 15.4056C23.9067 15.4698 23.9109 15.6478 23.7929 15.7119L20.0305 17.8849C19.9167 17.9512 19.7821 17.947 19.6766 17.8849L15.9142 15.7119C15.7983 15.6498 15.7962 15.4677 15.9142 15.4056L19.0785 13.5782V10L10.999 14.6647V23.9942L14.0971 22.2061V18.5513C14.0951 18.4209 14.2482 18.3278 14.362 18.3982L18.1244 20.5712C18.2383 20.6374 18.3024 20.7554 18.3024 20.8775V25.2214C18.3045 25.3518 18.1513 25.445 18.0375 25.3746L14.8711 23.5472L11.773 25.3353L19.8525 30L27.932 25.3353L24.8339 23.5472L21.6675 25.3746C21.5557 25.4429 21.3984 25.3539 21.4026 25.2214V20.8775C21.4026 20.7471 21.475 20.6312 21.5806 20.5712L25.343 18.3982C25.4547 18.3299 25.612 18.4168 25.6079 18.5513V22.2061L28.706 23.9942Z" fill="#CCCCCC"/>
<path d="M19.8525 30.0001L27.932 25.3353L24.8339 23.5472L21.6675 25.3746C21.5558 25.4429 21.3985 25.354 21.4026 25.2215V20.8775C21.4026 20.7472 21.4751 20.6313 21.5806 20.5713L25.343 18.3982C25.4548 18.3299 25.6121 18.4169 25.6079 18.5514V22.2062L28.706 23.9943V14.6648L19.8525 19.7765V30.0001Z" fill="#A6A6A6"/>
<path d="M20.6265 10V13.5782L23.7929 15.4056C23.9067 15.4698 23.9109 15.6478 23.7929 15.7119L20.0305 17.8849C19.9167 17.9512 19.7821 17.947 19.6766 17.8849L15.9142 15.7119C15.7983 15.6498 15.7962 15.4677 15.9142 15.4056L19.0785 13.5782V10L10.999 14.6647L19.8525 19.7765L28.706 14.6647L20.6265 10Z" fill="white"/>
<path d="M18.0396 25.3746L14.8732 23.5472L11.7751 25.3353L19.8546 30.0001V19.7765L10.999 14.6648V23.9943L14.0971 22.2062V18.5514C14.0951 18.421 14.2482 18.3279 14.362 18.3982L18.1244 20.5713C18.2383 20.6375 18.3024 20.7554 18.3024 20.8775V25.2215C18.3045 25.3519 18.1513 25.445 18.0375 25.3746H18.0396Z" fill="#CCCCCC"/>
</g>
<defs>
<clipPath id="clip0_302_838">
<rect width="17.707" height="20" fill="white" transform="translate(10.999 10)"/>
</clipPath>
</defs>
</svg>
