<svg width="89" height="88" viewBox="0 0 89 88" fill="none" xmlns="http://www.w3.org/2000/svg">
<path d="M44.5 88C68.8005 88 88.5 68.3005 88.5 44C88.5 19.6994 68.8005 0 44.5 0C20.1995 0 0.5 19.6994 0.5 44C0.5 68.3005 20.1995 88 44.5 88Z" fill="#2E6D50"/>
<path d="M52.5763 31.4494C52.3513 31.4494 52.1013 31.4244 51.8763 31.3494L47.1013 29.9744C45.7513 29.5994 44.9513 28.1744 45.3513 26.8244C45.7513 25.4744 47.1513 24.6744 48.5013 25.0744L53.2763 26.4494C54.6263 26.8244 55.4263 28.2494 55.0263 29.5994C54.7013 30.7244 53.6763 31.4494 52.5763 31.4494Z" fill="white"/>
<path d="M70.426 69.1001C70.426 69.1001 29.551 69.0751 23.926 69.0751C20.651 69.0751 18.001 66.4001 18.001 63.1251C18.001 61.4251 18.701 59.8001 19.926 58.6501C21.076 57.5751 22.551 57.0751 24.051 57.1751C25.276 57.1751 27.801 57.9751 28.826 60.8751C29.126 61.7751 28.676 62.7501 27.776 63.0501C26.901 63.3501 25.901 62.9001 25.601 62.0001C25.151 60.7001 24.101 60.6001 23.901 60.5751C23.126 60.5251 22.601 60.8501 22.276 61.1501C21.751 61.6501 21.426 62.3751 21.426 63.1251C21.426 64.5251 22.551 65.6751 23.951 65.6751C29.576 65.6751 70.451 65.7001 70.451 65.7001V69.1251L70.426 69.1001Z" fill="white"/>
<path d="M69.2762 52.9503H60.5262C59.5762 52.9503 58.8262 52.1753 58.8262 51.2503C58.8262 50.3253 59.6012 49.5503 60.5262 49.5503H69.2762C70.2262 49.5503 70.9762 50.3253 70.9762 51.2503C70.9762 52.1753 70.2012 52.9503 69.2762 52.9503Z" fill="white"/>
<path d="M40.7535 63.1246H33.9285C32.9785 63.1246 32.2285 62.3496 32.2285 61.4246C32.2285 60.4996 33.0035 59.7246 33.9285 59.7246H40.7535C41.7035 59.7246 42.4535 60.4996 42.4535 61.4246C42.4535 62.3496 41.6785 63.1246 40.7535 63.1246Z" fill="white"/>
<path d="M65.549 58.649H58.074C57.124 58.649 56.374 57.874 56.374 56.949C56.374 56.024 57.149 55.249 58.074 55.249H65.549C66.499 55.249 67.249 56.024 67.249 56.949C67.249 57.874 66.474 58.649 65.549 58.649Z" fill="white"/>
<path d="M67.9772 23.9247L52.2272 18.9997C50.9272 18.5997 49.5522 19.2747 49.0772 20.5497C48.8772 21.0997 48.6522 21.7247 48.4022 22.3747L54.7772 24.3997C57.4772 25.1747 59.0522 27.9997 58.2772 30.6997C57.5022 33.3997 54.6772 34.9747 51.9772 34.1997L44.4772 32.2497C44.0022 33.1997 43.3022 34.4997 42.7772 35.4497C42.3522 36.2497 41.5272 36.7247 40.6022 36.7247L31.0772 37.3997C24.7522 37.5247 22.5022 42.1997 21.8522 44.4747L20.6272 48.4247C19.8522 51.0997 21.5022 53.8497 24.2272 54.4747L57.7522 62.3747C58.9522 62.6497 60.1272 61.9747 60.6022 60.8997H58.1272C55.9272 60.8997 54.1522 59.1247 54.1522 56.9247C54.1522 54.7247 55.9272 52.9497 58.1272 52.9497H62.8022L69.7272 26.9997C70.0772 25.6747 69.3272 24.3247 68.0272 23.8997L67.9772 23.9247Z" fill="white"/>
</svg>
