<svg width="306" height="230" viewBox="0 0 306 230" fill="none" xmlns="http://www.w3.org/2000/svg">
<path d="M39.0684 161.149L140.625 219.779C141.913 220.517 143.372 220.906 144.856 220.906C146.341 220.906 147.8 220.517 149.088 219.779L266.251 153.197C266.975 152.781 267.577 152.181 267.995 151.458C268.414 150.735 268.634 149.914 268.634 149.079C268.634 148.243 268.414 147.423 267.995 146.7C267.577 145.977 266.975 145.377 266.251 144.961L161.886 84.6075C161.382 84.3125 160.808 84.157 160.224 84.157C159.64 84.157 159.066 84.3125 158.561 84.6075L39.0198 155.47C38.5273 155.765 38.1203 156.183 37.8394 156.684C37.5584 157.184 37.4132 157.75 37.4181 158.324C37.423 158.898 37.5779 159.46 37.8674 159.956C38.1568 160.452 38.5709 160.863 39.0684 161.149Z" fill="#FFD348"/>
<path style="mix-blend-mode:multiply" d="M136.313 126.677L50.7832 164.515L72.8858 175.785L150.423 130.172L136.313 126.677Z" fill="url(#paint0_linear_307_2771)"/>
<path d="M88.0641 33.3072L107.092 22.3287C107.53 22.0761 108.026 21.943 108.532 21.9429C109.037 21.9428 109.534 22.0756 109.971 22.3281C110.409 22.5806 110.773 22.9438 111.026 23.3813C111.279 23.8188 111.412 24.3152 111.413 24.8205V37.1662C111.413 37.6677 111.283 38.1606 111.035 38.5962C110.786 39.0318 110.429 39.395 109.997 39.65L90.9685 50.8549C90.5308 51.1134 90.0326 51.2514 89.5243 51.2549C89.0161 51.2585 88.516 51.1275 88.0747 50.8752C87.6335 50.623 87.2668 50.2584 87.0121 49.8187C86.7573 49.3789 86.6234 48.8795 86.624 48.3712V35.799C86.6245 35.2938 86.7577 34.7977 87.0105 34.3603C87.2633 33.923 87.6266 33.5598 88.0641 33.3072Z" fill="#ED1C24"/>
<path d="M97.2699 31.956C97.2699 34.0676 97.2699 40.0463 97.2699 42.4167C97.2705 42.5008 97.295 42.583 97.3404 42.6537C97.3859 42.7245 97.4504 42.7809 97.5266 42.8165C97.6028 42.8521 97.6876 42.8653 97.771 42.8547C97.8544 42.8441 97.9331 42.81 97.998 42.7565L105.748 36.3328C105.805 36.2858 105.848 36.2256 105.876 36.1576C105.903 36.0896 105.913 36.0159 105.905 35.9431C105.897 35.8702 105.871 35.8005 105.83 35.7401C105.788 35.6796 105.733 35.6304 105.668 35.5966L97.9333 31.5515C97.8643 31.5126 97.7862 31.4928 97.707 31.4941C97.6278 31.4954 97.5505 31.5178 97.4828 31.5591C97.4152 31.6003 97.3599 31.6588 97.3224 31.7286C97.285 31.7984 97.2668 31.8769 97.2699 31.956Z" fill="white"/>
<path d="M75.0449 88.612V166.529C75.0444 167.373 75.2672 168.202 75.6908 168.932C76.1143 169.662 76.7236 170.267 77.4566 170.685C78.1896 171.103 79.0202 171.32 79.8641 171.314C80.708 171.307 81.5351 171.077 82.2614 170.647L194.271 104.542C194.657 104.315 194.978 103.991 195.201 103.602C195.423 103.213 195.541 102.773 195.541 102.325V26.042C195.541 25.2841 195.343 24.5393 194.965 23.8823C194.587 23.2252 194.043 22.6789 193.388 22.298C192.733 21.9171 191.989 21.715 191.231 21.7118C190.473 21.7087 189.727 21.9046 189.069 22.2801L76.3475 86.3791C75.9526 86.6032 75.6241 86.9279 75.3954 87.3201C75.1666 87.7123 75.0457 88.158 75.0449 88.612ZM184.312 97.7702L87.8032 153.383C87.4118 153.609 86.9677 153.727 86.5157 153.727C86.0637 153.727 85.6197 153.608 85.2284 153.381C84.8372 153.155 84.5125 152.829 84.287 152.438C84.0616 152.046 83.9433 151.602 83.9442 151.15V92.4791C83.9442 92.0259 84.0638 91.5807 84.2911 91.1886C84.5185 90.7965 84.8453 90.4714 85.2386 90.2462L181.747 35.0384C182.138 34.8144 182.582 34.6971 183.033 34.6984C183.483 34.6996 183.926 34.8193 184.316 35.0454C184.706 35.2716 185.03 35.5962 185.255 35.9869C185.48 36.3775 185.598 36.8205 185.598 37.2713V95.5696C185.593 96.0166 185.472 96.4545 185.247 96.8404C185.021 97.2263 184.699 97.5467 184.312 97.7702Z" fill="#68E1FD"/>
<path d="M181.189 23.3967L200.21 12.3859C200.647 12.1332 201.144 12.0001 201.649 12C202.154 11.9999 202.651 12.1328 203.089 12.3852C203.526 12.6377 203.89 13.001 204.143 13.4385C204.396 13.876 204.529 14.3723 204.53 14.8777V27.2638C204.53 27.7652 204.4 28.2581 204.152 28.6937C203.903 29.1294 203.546 29.4926 203.114 29.7475L184.086 40.9525C183.648 41.2109 183.15 41.3489 182.642 41.3525C182.133 41.3561 181.633 41.2251 181.192 40.9728C180.751 40.7205 180.384 40.356 180.129 39.9162C179.874 39.4765 179.741 38.9771 179.741 38.4688V25.8885C179.742 25.3825 179.877 24.8859 180.131 24.4484C180.385 24.011 180.75 23.6482 181.189 23.3967Z" fill="#F24C4C"/>
<path d="M190.696 36.4139L194.143 40.5561L196.958 32.6357" fill="#F24C4C"/>
<path d="M192.225 25.7751C192.225 25.7751 189.895 22.005 187.597 24.8609C186.279 26.4789 188.673 31.4706 192.104 31.9884C195.21 32.4576 199.579 21.8108 195.226 21.6976C192.403 21.6167 192.225 25.7751 192.225 25.7751Z" fill="white"/>
<path d="M84.6967 91.6136C80.9671 93.0293 83.8877 163.237 83.8877 163.237L161.991 115.383L190.687 89.1865L185.372 31.5111L84.6967 91.6136Z" fill="#4F4E6E"/>
<path opacity="0.27" d="M125.812 108.563V86.7191C125.812 84.0332 127.64 81.4928 130.294 81.1207C131.039 81.0115 131.8 81.0642 132.523 81.2751C133.247 81.486 133.917 81.8502 134.487 82.343C135.057 82.8357 135.515 83.4455 135.828 84.1308C136.142 84.8161 136.304 85.5609 136.305 86.3146V121.103C132.423 117.26 128.91 113.062 125.812 108.563Z" fill="black"/>
<path d="M185.381 83.305C185.381 83.305 132.39 79.9394 129.008 81.5009C125.626 83.0623 124.251 88.6769 125.537 96.4921C126.824 104.307 152.09 135.794 152.09 135.794" fill="#68E1FD"/>
<path opacity="0.51" d="M149.047 99.72C141.353 95.0115 133.335 90.8774 125.585 86.2497C125.923 84.5859 126.798 83.0793 128.077 81.9619C142.825 89.1865 157.363 96.8237 172.039 104.194L167.606 111.184C161.376 107.438 155.236 103.522 149.047 99.72Z" fill="white"/>
<path opacity="0.51" d="M150.933 106.338C142.365 100.893 133.45 95.9499 125.044 90.2139C125.044 89.866 125.044 89.5101 125.084 89.1703C132.536 93.5795 140.229 97.5761 147.616 102.115C153.797 105.901 159.897 109.8 166.102 113.53L165.01 115.253C160.309 112.308 155.625 109.315 150.933 106.338Z" fill="white"/>
<path d="M201.747 100.303C201.593 99.7524 196.189 75.1095 171.716 85.5945C149.597 95.0763 148.926 123.271 150.423 130.172C151.644 135.786 157.372 143.432 168.456 146.199" fill="#8C0000"/>
<path d="M199.308 125.211C206.275 109.127 202.646 92.0699 191.203 87.1132C179.76 82.1566 164.836 91.1774 157.869 107.262C150.902 123.346 154.53 140.403 165.974 145.36C177.417 150.317 192.341 141.296 199.308 125.211Z" fill="#CE4242"/>
<path d="M154.823 117.656L178.803 123.934L184.053 112.794L162.355 99.2832C162.355 99.2832 156.142 108.781 154.823 117.656Z" fill="white"/>
<path d="M185.513 120.453C187.059 117.41 186.33 113.935 183.884 112.692C181.439 111.449 178.202 112.909 176.656 115.952C175.109 118.995 175.838 122.47 178.284 123.713C180.73 124.955 183.966 123.496 185.513 120.453Z" fill="#F7D600"/>
<path d="M245.807 89.1299C245.491 89.4292 245.184 89.7286 244.876 90.036C245.007 89.7003 245.007 89.328 244.876 88.9923C244.842 88.8735 244.774 88.7671 244.681 88.686C244.588 88.6049 244.473 88.5526 244.35 88.5355C244.228 88.5183 244.103 88.5371 243.991 88.5895C243.879 88.6418 243.785 88.7256 243.719 88.8305C243.024 89.8823 242.32 90.9286 241.608 91.9696L241.535 91.7188C241.429 91.1757 241.211 90.6605 240.896 90.2059C240.216 89.502 239.723 90.3839 239.796 91.2091C239.885 92.3174 240.321 93.3044 239.933 94.4452C239.652 95.0187 239.252 95.526 238.76 95.9338C238.302 96.4084 237.835 96.8722 237.36 97.3253C237.267 97.4231 237.208 97.548 237.191 97.6819C237.175 97.8158 237.201 97.9516 237.267 98.0692C237.333 98.1869 237.435 98.2803 237.558 98.3357C237.682 98.3911 237.819 98.4055 237.951 98.377C237.901 98.4729 237.877 98.5803 237.882 98.6883C237.887 98.7963 237.92 98.9011 237.978 98.9922C238.037 99.0833 238.118 99.1573 238.214 99.207C238.31 99.2567 238.417 99.2801 238.525 99.275C238.525 99.809 239.156 100.294 239.561 99.7766C240.555 98.5132 241.672 97.3506 242.894 96.3059C244.199 95.4645 245.48 94.5854 246.737 93.6685C247.376 93.1993 246.794 92.1071 246.114 92.5763L246.017 92.641L247.109 91.743C247.651 91.2981 246.915 90.3191 246.349 90.7479L246.211 90.8531L245.839 91.1363L246.308 90.6185C246.467 90.4893 246.598 90.3283 246.691 90.1458C246.784 89.9633 246.839 89.7633 246.85 89.5587C246.839 89.4433 246.796 89.3333 246.727 89.2403C246.658 89.1474 246.564 89.075 246.457 89.0309C246.35 88.9869 246.233 88.9728 246.118 88.9902C246.004 89.0077 245.896 89.0559 245.807 89.1299Z" fill="#F9C882"/>
<path d="M241.98 92.5358C241.954 92.51 241.918 92.496 241.88 92.4967C241.843 92.4975 241.808 92.513 241.782 92.5398C241.756 92.5666 241.742 92.6026 241.743 92.6397C241.744 92.6769 241.759 92.7123 241.786 92.738C242.08 93.0285 242.285 93.3962 242.378 93.7986C242.471 94.201 242.448 94.6215 242.312 95.0114C242.256 95.1813 242.522 95.2541 242.579 95.0842C242.728 94.646 242.751 94.1747 242.646 93.724C242.54 93.2734 242.309 92.8616 241.98 92.5358Z" fill="#42210B"/>
<path d="M244.852 89.8094C244.102 90.5483 243.382 91.3169 242.691 92.1151C242.578 92.2527 242.772 92.4468 242.894 92.3093C243.584 91.5111 244.304 90.7425 245.054 90.0036C245.175 89.8822 244.981 89.68 244.852 89.8094Z" fill="#42210B"/>
<path d="M246.172 90.6995L243.623 92.722C243.486 92.8353 243.68 93.0294 243.825 92.9162L246.374 90.8936C246.511 90.7884 246.309 90.5862 246.172 90.6995Z" fill="#42210B"/>
<path d="M246.382 92.2285C245.654 92.7032 244.92 93.167 244.181 93.6201C244.028 93.7172 244.181 93.9599 244.319 93.8628C245.058 93.4097 245.791 92.9459 246.519 92.4713C246.665 92.3742 246.527 92.1315 246.382 92.2285Z" fill="#42210B"/>
<path d="M194.224 93.3449L195.478 93.6766C195.191 93.4614 194.995 93.1469 194.928 92.7948C194.898 92.674 194.904 92.5472 194.945 92.4299C194.987 92.3126 195.061 92.2098 195.16 92.1343C195.259 92.0587 195.377 92.0136 195.501 92.0044C195.625 91.9953 195.749 92.0225 195.858 92.0828C196.985 92.6491 198.115 93.2074 199.248 93.7575L199.183 93.5067C199.005 92.987 198.937 92.4362 198.981 91.8886C199.224 90.9421 200.081 91.4599 200.437 92.2123C200.915 93.2154 201.02 94.2915 201.918 95.0924C202.446 95.451 203.045 95.6936 203.673 95.8043C204.304 95.9904 204.944 96.1603 205.583 96.3221C205.715 96.3598 205.831 96.4394 205.913 96.5488C205.996 96.6583 206.04 96.7917 206.04 96.9289C206.04 97.066 205.996 97.1994 205.913 97.3089C205.831 97.4184 205.715 97.498 205.583 97.5356C205.674 97.5942 205.749 97.676 205.798 97.7727C205.848 97.8694 205.871 97.9775 205.865 98.0861C205.86 98.1946 205.825 98.2997 205.766 98.3906C205.706 98.4815 205.623 98.555 205.526 98.6036C205.809 99.0566 205.478 99.8009 204.871 99.5582C203.382 98.9523 201.838 98.4943 200.259 98.1909C198.706 98.1046 197.158 97.9752 195.616 97.8026C194.807 97.7136 194.807 96.4758 195.616 96.5405H195.737L194.353 96.2816C193.658 96.1603 193.811 94.9468 194.523 95.0438H194.693L195.154 95.1086L194.491 94.8901C194.078 94.7526 193.682 94.6555 193.496 94.2429C193.443 94.1337 193.423 94.0118 193.437 93.8915C193.451 93.7711 193.499 93.6572 193.575 93.5631C193.652 93.469 193.753 93.3985 193.868 93.3598C193.983 93.3212 194.106 93.316 194.224 93.3449Z" fill="#F9C882"/>
<path d="M199.206 94.4047C199.216 94.3693 199.239 94.3392 199.271 94.321C199.303 94.3028 199.34 94.298 199.376 94.3076C199.411 94.3173 199.441 94.3406 199.46 94.3725C199.478 94.4043 199.483 94.4421 199.473 94.4775C199.362 94.8751 199.367 95.2959 199.486 95.691C199.605 96.0862 199.833 96.4397 200.144 96.7104C200.282 96.8318 200.08 97.0259 199.95 96.9046C199.605 96.599 199.352 96.2029 199.221 95.761C199.089 95.3192 199.084 94.8493 199.206 94.4047Z" fill="#42210B"/>
<path d="M195.389 93.4581C196.408 93.7278 197.414 94.0379 198.406 94.3885C198.576 94.4451 198.503 94.7202 198.333 94.6555C197.341 94.3049 196.335 93.9948 195.316 93.7251C195.28 93.7154 195.25 93.6921 195.232 93.6603C195.214 93.6284 195.209 93.5906 195.219 93.5552C195.228 93.5198 195.252 93.4897 195.284 93.4715C195.315 93.4533 195.353 93.4485 195.389 93.4581Z" fill="#42210B"/>
<path d="M194.684 94.9065L197.92 95.4C198.098 95.4 198.025 95.6993 197.847 95.667L194.611 95.1735C194.433 95.133 194.506 94.8661 194.684 94.9065Z" fill="#42210B"/>
<path d="M195.258 96.3222C196.127 96.3761 196.992 96.4166 197.855 96.4436C198.033 96.4436 198.033 96.7267 197.855 96.7267C196.987 96.7267 196.121 96.6863 195.258 96.6054C195.081 96.5892 195.081 96.3141 195.258 96.3222Z" fill="#42210B"/>
<path d="M234.934 147.299C234.934 147.299 235.015 151.409 235.501 152.056C235.986 152.703 240.298 154.984 240.541 156.036C240.783 157.088 240.015 158.585 237.96 158.018C235.905 157.452 230.962 154.248 230.962 154.248V145.349" fill="#42210B"/>
<path d="M218.429 151.975L217.903 156.433C217.903 156.433 219.796 163.309 219.035 164.143C218.275 164.976 215.557 165.882 214.497 164.143C213.437 162.403 214.95 155.98 214.95 155.98L215.023 151.125" fill="#42210B"/>
<path d="M228.331 104.776C228.331 104.776 233.679 126.466 233.913 129.816C234.148 133.165 235.75 151.15 235.75 151.15C235.75 151.15 231.049 153.714 227.659 152.574L224.601 130.05L221.592 108.66C221.592 108.66 227.069 103.231 228.331 104.776Z" fill="#174399"/>
<path d="M218.09 109.898C214.32 125.9 213.552 141.288 211.618 155.284C213.123 156.282 214.914 156.757 216.715 156.636C218.517 156.515 220.228 155.803 221.585 154.612C222.807 140.349 226.156 123.513 226.609 109.21L218.09 109.898Z" fill="#174399"/>
<path d="M203.098 92.9403C206.537 94.251 210.614 95.4321 213.413 95.0681C216.933 94.5833 220.389 93.7152 223.72 92.4792C224.173 92.3255 229.06 90.4566 230.864 92.0747C232.668 93.6927 232.191 98.9352 232.191 98.9352L238.793 93.2235C241.22 94.1053 242.207 96.6295 242.441 99.1456L242.19 99.4044C241.716 99.9438 241.236 100.483 240.75 101.022C238.582 103.45 236.107 106.257 232.927 107.317C231.668 107.682 230.321 107.599 229.117 107.082C228.17 106.726 226.787 105.585 225.759 105.958C225.492 106.055 225.241 106.249 224.95 106.216C224.19 106.127 223.17 104.914 222.458 104.542C220.484 103.514 218.162 103.361 215.986 103.247C213.604 103.157 211.232 102.886 208.891 102.438C208.203 102.301 200.906 100.432 200.744 100.739C201.943 98.2833 202.738 95.6497 203.098 92.9403Z" fill="#8141C4"/>
<path d="M228.808 88.0376C229.293 90.3272 228.889 93.4905 226.437 93.8545C223.282 94.3238 222.497 92.1798 222.667 89.5343C222.797 87.439 223.897 84.1624 226.712 85.1009C227.42 85.3589 228 85.8808 228.33 86.5571C228.555 87.0273 228.715 87.5251 228.808 88.0376Z" fill="#F9C882"/>
<path d="M228.987 88.5475C229.621 88.2205 230.145 87.7138 230.493 87.0908C230.842 86.4678 230.999 85.756 230.945 85.0444C230.815 83.6448 229.448 81.8083 227.87 82.5202C226.794 82.9733 227.061 83.0056 227.061 83.0056C226.81 82.7107 226.486 82.4867 226.121 82.3561C225.756 82.2255 225.364 82.1929 224.982 82.2613C223.485 82.3908 223.227 83.305 223.227 83.305C223.227 83.305 221.528 83.8713 221.083 84.923C220.573 86.1608 221.73 89.85 222.288 90.8774C222.846 91.9049 223.162 89.8095 223.364 88.9682C223.43 88.6283 223.579 88.31 223.798 88.0418C224.017 87.7735 224.298 87.5637 224.618 87.431C225.54 87.1802 225.993 87.9973 226.722 88.3452C227.06 88.5469 227.439 88.6698 227.831 88.7048C228.223 88.7398 228.618 88.686 228.987 88.5475Z" fill="#42210B"/>
<path d="M223.032 110.796C221.341 110.81 219.664 110.503 218.089 109.89L217.757 99.3722L230.394 105.294C230.394 105.294 229.916 107.835 229.383 110.148C227.321 110.739 225.17 110.958 223.032 110.796Z" fill="#8141C4"/>
<path d="M229.456 109.922C230.189 106.926 230.665 103.873 230.88 100.796C230.88 100.416 231.503 100.416 231.479 100.796C231.26 103.925 230.775 107.029 230.031 110.076C229.95 110.456 229.367 110.278 229.456 109.922Z" fill="#42210B"/>
<path d="M228.679 91.4599C229.381 91.4599 229.95 90.8043 229.95 89.9956C229.95 89.1869 229.381 88.5312 228.679 88.5312C227.978 88.5312 227.409 89.1869 227.409 89.9956C227.409 90.8043 227.978 91.4599 228.679 91.4599Z" stroke="#42210B" stroke-width="0.5075" stroke-miterlimit="10"/>
<path d="M225.346 91.8078C226.048 91.8078 226.617 91.1522 226.617 90.3435C226.617 89.5348 226.048 88.8792 225.346 88.8792C224.645 88.8792 224.076 89.5348 224.076 90.3435C224.076 91.1522 224.645 91.8078 225.346 91.8078Z" stroke="#42210B" stroke-width="0.5075" stroke-miterlimit="10"/>
<path d="M227.41 90.2463L226.617 90.3435" stroke="#42210B" stroke-width="0.5075" stroke-miterlimit="10"/>
<path d="M224.077 90.3442L222.531 89.0975" stroke="#42210B" stroke-width="0.5075" stroke-miterlimit="10"/>
<path style="mix-blend-mode:multiply" d="M233.654 152.598L201.357 168.212L211.066 173.883L240.603 156.683L233.654 152.598Z" fill="url(#paint1_linear_307_2771)"/>
<path style="mix-blend-mode:multiply" d="M142.534 198.89L124.063 209.861L135.932 216.721L153.981 206.689L142.534 198.89Z" fill="url(#paint2_linear_307_2771)"/>
<path d="M144.193 209.812C151.4 209.812 157.243 205.697 157.243 200.622C157.243 195.546 151.4 191.431 144.193 191.431C136.986 191.431 131.144 195.546 131.144 200.622C131.144 205.697 136.986 209.812 144.193 209.812Z" fill="#68E1FD"/>
<path d="M144.202 199.198C149.599 199.198 153.975 197.405 153.975 195.193C153.975 192.981 149.599 191.188 144.202 191.188C138.804 191.188 134.429 192.981 134.429 195.193C134.429 197.405 138.804 199.198 144.202 199.198Z" fill="#974C26"/>
<path d="M144.849 195.29C145.658 194.214 146.386 193.082 147.195 191.811C148.23 190.193 149.201 188.535 150.083 186.828C150.91 185.311 151.616 183.731 152.195 182.103C152.838 180.338 153.354 178.529 153.74 176.691C153.837 176.205 153.926 175.72 154.007 175.235C154.007 175.008 154.047 175.032 154.047 175.065C154.047 175.097 154.047 174.911 154.047 174.644C154.136 173.657 154.201 172.67 154.209 171.675C154.255 168.246 153.594 164.845 152.267 161.683C148.739 166.801 146.36 172.622 145.294 178.746C145.224 179.112 145.159 179.479 145.099 179.846C145.099 179.846 145.002 180.517 144.962 180.784L144.857 181.707C144.808 182.171 144.765 182.637 144.727 183.106C144.582 184.902 144.517 186.715 144.525 188.519C144.566 190.784 144.671 193.041 144.849 195.29ZM149.048 168.317C149.285 168.048 149.528 167.778 149.776 167.508C149.708 167.737 149.691 167.977 149.727 168.212C149.497 168.212 149.267 168.248 149.048 168.317Z" fill="#999A1C"/>
<path d="M145.099 195.452C145.164 194.133 145.196 192.758 145.196 191.261C145.196 189.344 145.107 187.418 144.929 185.509C144.794 183.786 144.524 182.076 144.12 180.396C143.71 178.564 143.169 176.763 142.502 175.008C142.324 174.547 142.138 174.094 141.944 173.641C141.855 173.43 141.871 173.446 141.887 173.479L141.685 173.107C141.224 172.233 140.746 171.359 140.221 170.526C138.407 167.618 136.014 165.114 133.19 163.172C132.986 169.383 134.129 175.566 136.54 181.294C136.68 181.639 136.823 181.982 136.968 182.321L137.357 183.187L137.769 183.996C137.98 184.417 138.195 184.832 138.416 185.242C139.266 186.86 140.188 188.389 141.167 189.902C142.421 191.819 143.732 193.656 145.099 195.452ZM134.015 170.518C134.069 170.162 134.134 169.809 134.21 169.458C134.276 169.685 134.392 169.895 134.549 170.073C134.349 170.193 134.169 170.343 134.015 170.518Z" fill="#999A1C"/>
<path d="M145.163 196.148C144.775 195.411 144.354 194.659 143.86 193.85C143.237 192.814 142.574 191.803 141.862 190.832C141.239 189.943 140.546 189.105 139.791 188.324C138.975 187.467 138.099 186.67 137.17 185.938L136.425 185.38C136.312 185.299 136.328 185.299 136.345 185.307L136.118 185.169C135.584 184.846 135.05 184.53 134.5 184.247C132.581 183.262 130.48 182.684 128.327 182.548C130.224 185.966 132.837 188.933 135.989 191.245L136.555 191.658L137.04 191.997L137.534 192.313L138.286 192.774C139.262 193.357 140.26 193.896 141.28 194.392C142.574 195.047 143.844 195.614 145.163 196.148ZM131.126 186.269C131.04 186.059 130.962 185.849 130.892 185.638C131.001 185.738 131.131 185.813 131.272 185.857C131.203 185.983 131.154 186.12 131.126 186.261V186.269Z" fill="#999A1C"/>
<path d="M144.849 195.29C145.658 194.214 146.386 193.082 147.195 191.811C148.23 190.193 149.201 188.535 150.083 186.828C150.91 185.311 151.616 183.731 152.195 182.103C152.838 180.338 153.354 178.529 153.74 176.691C153.837 176.205 153.926 175.72 154.007 175.235C154.007 175.008 154.047 175.032 154.047 175.065C154.047 175.097 154.047 174.911 154.047 174.644C154.136 173.657 154.201 172.67 154.209 171.675C154.255 168.246 153.594 164.845 152.267 161.683C148.739 166.801 146.36 172.622 145.294 178.746C145.224 179.112 145.159 179.479 145.099 179.846C145.099 179.846 145.002 180.517 144.962 180.784L144.857 181.707C144.808 182.171 144.765 182.637 144.727 183.106C144.582 184.902 144.517 186.715 144.525 188.519C144.566 190.784 144.671 193.041 144.849 195.29ZM149.048 168.317C149.285 168.048 149.528 167.778 149.776 167.508C149.708 167.737 149.691 167.977 149.727 168.212C149.497 168.212 149.267 168.248 149.048 168.317Z" fill="#999A1C"/>
<path d="M145.099 195.452C145.164 194.133 145.196 192.758 145.196 191.261C145.196 189.344 145.107 187.418 144.929 185.509C144.794 183.786 144.524 182.076 144.12 180.396C143.71 178.564 143.169 176.763 142.502 175.008C142.324 174.547 142.138 174.094 141.944 173.641C141.855 173.43 141.871 173.446 141.887 173.479L141.685 173.107C141.224 172.233 140.746 171.359 140.221 170.526C138.407 167.618 136.014 165.114 133.19 163.172C132.986 169.383 134.129 175.566 136.54 181.294C136.68 181.639 136.823 181.982 136.968 182.321L137.357 183.187L137.769 183.996C137.98 184.417 138.195 184.832 138.416 185.242C139.266 186.86 140.188 188.389 141.167 189.902C142.421 191.819 143.732 193.656 145.099 195.452ZM134.015 170.518C134.069 170.162 134.134 169.809 134.21 169.458C134.276 169.685 134.392 169.895 134.549 170.073C134.349 170.193 134.169 170.343 134.015 170.518Z" fill="#999A1C"/>
<path d="M145.163 196.148C144.775 195.411 144.354 194.659 143.86 193.85C143.237 192.814 142.574 191.803 141.862 190.832C141.239 189.943 140.546 189.105 139.791 188.324C138.975 187.467 138.099 186.67 137.17 185.938L136.425 185.38C136.312 185.299 136.328 185.299 136.345 185.307L136.118 185.169C135.584 184.846 135.05 184.53 134.5 184.247C132.581 183.262 130.48 182.684 128.327 182.548C130.224 185.966 132.837 188.933 135.989 191.245L136.555 191.658L137.04 191.997L137.534 192.313L138.286 192.774C139.262 193.357 140.26 193.896 141.28 194.392C142.574 195.047 143.844 195.614 145.163 196.148ZM131.126 186.269C131.04 186.059 130.962 185.849 130.892 185.638C131.001 185.738 131.131 185.813 131.272 185.857C131.203 185.983 131.154 186.12 131.126 186.261V186.269Z" fill="#999A1C"/>
<path d="M57.6279 82.9084V117.794C57.6279 118.135 57.7178 118.471 57.8886 118.767C58.0593 119.064 58.3049 119.31 58.6008 119.481C58.8966 119.652 59.2323 119.743 59.5742 119.743C59.916 119.744 60.252 119.655 60.5485 119.484L109.09 91.5488C109.387 91.3779 109.635 91.1317 109.807 90.8348C109.978 90.5379 110.069 90.2009 110.069 89.8579V54.5116C110.061 54.1793 109.968 53.8545 109.799 53.5682C109.63 53.2818 109.391 53.0434 109.104 52.8756C108.817 52.7078 108.492 52.6162 108.159 52.6094C107.827 52.6026 107.499 52.681 107.205 52.8369L59.0114 80.5622C58.5942 80.7964 58.2465 81.1368 58.0035 81.5489C57.7605 81.961 57.6309 82.43 57.6279 82.9084Z" fill="#EDB033"/>
<path d="M64.5039 82.4554V113.101L104.89 89.8742V59.2122L64.5039 82.4554Z" fill="white"/>
<path d="M64.5039 113.101L74.2122 91.7107C74.6893 90.6554 75.5645 89.8317 76.6467 89.4194C77.729 89.0072 78.9304 89.0397 79.9886 89.5101L84.7376 91.6217L93.9929 76.0317C94.209 75.6657 94.5001 75.3494 94.847 75.1036C95.1939 74.8579 95.5888 74.6882 96.0058 74.6057C96.4229 74.5232 96.8527 74.5298 97.267 74.6249C97.6813 74.7201 98.0709 74.9018 98.4101 75.158L104.931 80.0688V89.8823L64.5039 113.101Z" fill="#68E1FD"/>
<defs>
<linearGradient id="paint0_linear_307_2771" x1="68.4685" y1="166.926" x2="88.4595" y2="157.209" gradientUnits="userSpaceOnUse">
<stop stop-color="white"/>
<stop offset="1" stop-color="#F7931E"/>
</linearGradient>
<linearGradient id="paint1_linear_307_2771" x1="215.224" y1="172.273" x2="231.599" y2="144.338" gradientUnits="userSpaceOnUse">
<stop stop-color="white"/>
<stop offset="1" stop-color="#F7931E"/>
</linearGradient>
<linearGradient id="paint2_linear_307_2771" x1="135.616" y1="214.076" x2="145.956" y2="196.447" gradientUnits="userSpaceOnUse">
<stop stop-color="white"/>
<stop offset="1" stop-color="#F7931E"/>
</linearGradient>
</defs>
</svg>
