<svg width="278" height="144" xmlns="http://www.w3.org/2000/svg" xmlns:xlink="http://www.w3.org/1999/xlink" overflow="hidden"><defs><clipPath id="clip0"><rect x="100" y="274" width="278" height="144"/></clipPath></defs><g clip-path="url(#clip0)" transform="translate(-100 -274)"><path d="M40.3979 18.3666C40.4411 18.3235 40.5273 18.3235 40.6135 18.2804 40.4411 18.3666 40.2255 18.4097 40.053 18.496 40.1393 18.4529 40.2686 18.4097 40.3979 18.3666" fill="#FFFFFF" transform="matrix(1 0 0 1.00458 100 274.189)"/><path d="M119.34 17.8061C119.469 17.763 119.556 17.7199 119.685 17.6768 119.771 17.6337 119.857 17.6337 119.944 17.5906 119.728 17.6768 119.556 17.763 119.34 17.8061" fill="#FFCB02" transform="matrix(1 0 0 1.00458 100 274.189)"/><path d="M160.126 9.26954C160.126 5.4755 157.582 2.28505 154.133 1.2072 152.969 0.603598 151.676 0.258685 150.253 0.258685L85.5816 0.258685C85.6247 0.301799 85.7109 0.344913 85.754 0.388027 93.299 4.18207 99.8955 9.61445 105.069 16.2109 105.155 16.3403 105.242 16.4265 105.328 16.5558 105.5 16.8145 105.716 17.0732 105.888 17.3319L142.923 17.3319 142.923 92.178 101.922 92.178C101.275 92.911 100.585 93.6439 99.8955 94.3769 93.1697 101.232 84.7193 106.406 75.2342 109.208L151.503 109.208C156.203 109.208 160.083 105.371 160.083 100.715L160.083 100.715C160.083 100.715 160.083 100.672 160.083 100.672 160.083 100.672 160.083 100.628 160.083 100.628L160.083 9.26954Z" fill="#FFCB02" transform="matrix(1 0 0 1.00458 100 274.189)"/><path d="M79.33 0C78.7695 0 78.2091 0.0431141 77.6917 0.172457 77.6917 0.172457 77.6917 0.172457 77.6486 0.172457 77.433 0.215571 77.2605 0.258685 77.045 0.301799 76.7863 0.388027 76.5707 0.431141 76.312 0.51737 76.0965 0.603598 75.8809 0.689826 75.6653 0.776055 75.4066 0.905397 75.1479 1.03474 74.8893 1.16408 74.7168 1.25031 74.5444 1.37965 74.3719 1.46588 74.027 1.68145 73.7252 1.94014 73.4234 2.19882 73.0785 2.50062 72.7336 2.84553 72.4749 3.23356 72.4318 3.31979 72.3455 3.40602 72.3024 3.44913 72.1731 3.79404 72.0006 4.05273 71.8282 4.31141 71.785 4.39764 71.7419 4.48387 71.6988 4.5701 71.5264 4.91501 71.3539 5.30304 71.1814 5.64795L71.1814 5.64795 71.1814 5.64795C70.8797 6.46712 70.7072 7.37252 70.6641 8.27792 70.6641 8.40726 70.621 8.5366 70.621 8.66594 70.621 9.7438 70.8365 10.7354 71.1814 11.6839 72.0006 13.8828 73.639 15.6504 75.7947 16.5989 75.8378 16.6421 75.8809 16.6421 75.9671 16.6852 75.9671 16.6852 75.924 16.6852 75.924 16.6852 88.8583 23.3679 97.7398 36.8626 97.7398 52.4268 97.7398 74.6306 79.6749 92.6523 57.5143 92.6523 35.2674 92.5661 17.2457 74.5444 17.2457 52.3406 17.2457 36.7332 26.1703 23.1954 39.1908 16.5127 39.1908 16.5127 39.1908 16.5127 39.1908 16.5127 38.9752 16.5989 38.8027 16.6852 38.5872 16.7283 38.7165 16.6852 38.8027 16.6421 38.9321 16.5989 39.0183 16.5558 39.1045 16.5558 39.1908 16.5127 39.1908 16.5127 39.1908 16.5127 39.1908 16.5127 40.2686 16.0385 41.2171 15.3055 41.9932 14.4432 43.4159 12.8911 44.2782 10.8648 44.2782 8.62283 44.2782 6.38089 43.4159 4.35453 41.9932 2.80242 40.4411 1.12097 38.156 0 35.6554 0 34.4913 0 33.3703 0.258685 32.3356 0.689826L32.1632 0.776055C31.4733 1.07785 30.7835 1.50899 30.1799 1.98325L30.1799 1.98325C30.1799 1.98325 30.1799 1.98325 30.1799 1.98325 30.1799 1.98325 30.1799 1.98325 30.1799 1.98325 30.1799 1.98325 30.1799 1.98325 30.1799 1.98325 30.1799 1.98325 30.1799 1.98325 30.1799 1.98325L30.1799 1.98325C30.4386 1.76768 30.7404 1.55211 31.0422 1.33654 12.6324 10.9079 0 30.1368 0 52.3406 0 84.0726 25.7391 109.812 57.4712 109.812 59.0233 109.812 60.5754 109.725 62.1275 109.596 76.3551 108.475 89.0738 102.137 98.4727 92.5661 108.648 82.2187 114.899 67.991 114.899 52.3406 114.899 39.0614 110.372 26.8601 102.827 17.1594 102.741 17.0301 102.655 16.9439 102.569 16.8145 97.3517 10.2181 90.7122 4.74256 83.1241 0.948511 82.9516 0.862283 82.736 0.776055 82.5636 0.646712 81.572 0.258685 80.451 0 79.33 0" fill="#F15A28" transform="matrix(1 0 0 1.00458 100 274.189)"/><path d="M59.1526 0.431141 55.8328 0.431141C52.1681 0.431141 49.1501 3.10422 49.1501 6.38089L49.1501 46.9082C49.1501 50.1849 52.1681 52.8579 55.8328 52.8579L59.1526 52.8579C62.8173 52.8579 65.8353 50.1849 65.8353 46.9082L65.8353 6.38089C65.8353 3.14733 62.8173 0.431141 59.1526 0.431141" fill="#F15A28" transform="matrix(1 0 0 1.00458 100 274.189)"/><path d="M182.632 126.799C182.632 128.609 181.942 129.989 180.734 130.938 180.39 131.196 180.002 131.455 179.57 131.627L179.57 136.586 183.149 136.586 183.149 139.043 166.248 139.043 166.248 136.586 169.956 136.586 169.956 131.671C169.482 131.455 169.094 131.239 168.749 130.938 167.542 129.989 166.852 128.609 166.852 126.799 166.852 124.945 167.542 123.608 168.749 122.66 170.172 121.539 172.284 121.021 174.742 121.021 177.199 121.021 179.355 121.539 180.734 122.66 181.942 123.608 182.632 124.988 182.632 126.799M179.786 126.799C179.786 125.764 179.398 125.074 178.751 124.514 177.846 123.781 176.38 123.479 174.699 123.479 173.017 123.479 171.551 123.781 170.646 124.514 169.999 125.074 169.611 125.764 169.611 126.799 169.611 127.79 169.999 128.523 170.646 129.041 171.551 129.774 173.017 130.075 174.699 130.075 176.38 130.075 177.846 129.774 178.751 129.041 179.441 128.523 179.786 127.79 179.786 126.799M176.768 132.447C176.121 132.533 175.431 132.576 174.699 132.576 174.009 132.576 173.362 132.533 172.715 132.447L172.715 136.586 176.768 136.586 176.768 132.447Z" fill="#463A37" transform="matrix(1 0 0 1.00458 100 274.189)"/><path d="M185.348 121.108 194.833 121.108 194.833 130.722 185.348 130.722 185.348 121.108ZM186.167 136.154C186.167 134.947 186.684 133.999 187.547 133.395 188.926 132.36 191.125 132.016 193.539 132.016 195.954 132.016 198.196 132.404 199.532 133.395 200.395 134.042 200.912 134.947 200.912 136.154 200.912 137.362 200.395 138.267 199.532 138.914 198.153 139.949 195.954 140.293 193.539 140.293 191.125 140.293 188.883 139.905 187.547 138.914 186.684 138.31 186.167 137.362 186.167 136.154M188.15 128.308 192.074 128.308 192.074 123.522 188.15 123.522 188.15 128.308ZM189.012 136.154C189.012 136.629 189.228 136.974 189.616 137.232 190.392 137.75 191.815 137.879 193.539 137.879 195.307 137.879 196.73 137.707 197.506 137.232 197.894 136.974 198.109 136.629 198.109 136.154 198.109 135.723 197.894 135.378 197.506 135.077 196.73 134.559 195.307 134.43 193.539 134.43 191.815 134.43 190.349 134.559 189.616 135.077 189.228 135.378 189.012 135.723 189.012 136.154M200.524 124.988 203.154 124.988 203.154 127.489 200.524 127.489 200.524 131.8 197.678 131.8 197.678 120.935 200.524 120.935 200.524 124.988Z" fill="#463A37" transform="matrix(1 0 0 1.00458 100 274.189)"/><path d="M214.407 121.108 214.407 123.522 210.828 123.522 210.828 124.643C210.828 127.877 212.294 129.256 214.752 129.774L214.752 132.274C212.51 131.929 210.526 130.938 209.449 129.472 208.328 130.981 206.301 132.231 204.059 132.533L204.059 130.032C206.517 129.515 207.983 127.963 207.983 124.686L207.983 123.565 204.404 123.565 204.404 121.151 214.407 121.151ZM205.568 139.992 205.568 133.266 208.414 133.266 208.414 137.534 220.227 137.534 220.227 139.992 205.568 139.992ZM217.037 120.892 219.882 120.892 219.882 134.257 217.037 134.257 217.037 120.892Z" fill="#463A37" transform="matrix(1 0 0 1.00458 100 274.189)"/><path d="M223.073 126.324C223.073 124.341 223.633 122.875 224.625 121.927 225.487 121.151 226.608 120.763 228.074 120.763 229.497 120.763 230.661 121.151 231.523 121.927 231.782 122.142 231.997 122.401 232.17 122.703L235.921 122.703 235.921 120.892 238.766 120.892 238.766 134.257 235.921 134.257 235.921 129.73 232.299 129.73C232.083 130.118 231.825 130.463 231.523 130.765 230.661 131.541 229.497 131.929 228.074 131.929 226.608 131.929 225.487 131.498 224.625 130.765 223.633 129.817 223.073 128.308 223.073 126.324M224.409 139.992 224.409 133.266 227.255 133.266 227.255 137.534 239.111 137.534 239.111 139.992 224.409 139.992ZM225.832 126.324C225.832 127.532 226.091 128.394 226.565 128.868 226.91 129.256 227.427 129.472 228.074 129.472 228.721 129.472 229.195 129.256 229.583 128.868 230.057 128.351 230.316 127.532 230.316 126.324 230.316 125.117 230.057 124.298 229.583 123.781 229.195 123.393 228.721 123.22 228.074 123.22 227.427 123.22 226.953 123.436 226.565 123.781 226.091 124.298 225.832 125.117 225.832 126.324M232.989 125.117C233.032 125.505 233.075 125.893 233.075 126.324 233.075 126.669 233.032 126.971 233.032 127.273L235.921 127.273 235.921 125.117 232.989 125.117Z" fill="#463A37" transform="matrix(1 0 0 1.00458 100 274.189)"/><path d="M241.655 131.929 258.556 131.929 258.556 134.43 251.485 134.43 251.485 140.25 248.639 140.25 248.639 134.43 241.655 134.43 241.655 131.929ZM254.761 123.565 242.474 123.565 242.474 121.108 257.564 121.108 257.564 125.419C257.564 127.316 257.435 129.127 257.133 130.55L254.373 130.55C254.675 129.127 254.805 127.316 254.805 125.764L254.805 123.565Z" fill="#463A37" transform="matrix(1 0 0 1.00458 100 274.189)"/><path d="M260.539 136.629 267.523 136.629 267.523 131.239 270.326 131.239 270.326 136.629 277.396 136.629 277.396 139.086 260.496 139.086 260.496 136.629ZM268.946 127.79C267.566 129.774 264.807 131.714 260.797 132.404L260.797 129.903C265.152 128.868 267.523 126.324 267.523 122.185L267.523 121.108 270.369 121.108 270.369 122.185C270.369 126.324 272.74 128.911 277.095 129.903L277.095 132.404C273.085 131.714 270.326 129.774 268.946 127.79" fill="#463A37" transform="matrix(1 0 0 1.00458 100 274.189)"/><path d="M39.8806 119.599C33.4135 119.599 28.1966 124.815 28.1966 131.283 28.1966 137.75 33.4135 142.966 39.8806 142.966 46.3477 142.966 51.5645 137.75 51.5645 131.283 51.6076 124.815 46.3477 119.599 39.8806 119.599" fill="#FFCB02" transform="matrix(1 0 0 1.00458 100 274.189)"/><path d="M73.3372 119.599C66.87 119.599 61.6532 124.815 61.6532 131.283 61.6532 137.75 66.87 142.966 73.3372 142.966 79.8043 142.966 85.0211 137.75 85.0211 131.283 85.0211 124.815 79.7612 119.599 73.3372 119.599" fill="#FFCB02" transform="matrix(1 0 0 1.00458 100 274.189)"/><path d="M148.399 119.599C141.932 119.599 136.715 124.815 136.715 131.283 136.715 137.75 141.932 142.966 148.399 142.966 154.866 142.966 160.083 137.75 160.083 131.283 160.126 124.815 154.866 119.599 148.399 119.599" fill="#FFCB02" transform="matrix(1 0 0 1.00458 100 274.189)"/><path d="M188.883 17.5475 171.81 47.0806C170.085 50.0555 171.422 54.0651 174.742 56.0053L177.76 57.7729C181.122 59.7131 185.261 58.8508 186.943 55.8759L208.198 19.0133C208.371 18.7547 208.457 18.4529 208.586 18.1511 208.672 18.4529 208.802 18.7115 208.974 19.0133L230.23 55.8759C231.954 58.8508 236.093 59.7131 239.456 57.7729L242.474 56.0053C245.837 54.0651 247.13 50.0555 245.406 47.0806L228.505 17.5475 242.301 17.5475C246.915 17.5475 250.709 13.7534 250.709 9.1402L250.709 8.40726C250.709 3.79404 246.915 0 242.301 0L174.914 0C170.301 0 166.507 3.79404 166.507 8.40726L166.507 9.09708C166.507 13.7103 170.301 17.5043 174.914 17.5043L188.883 17.5043Z" fill="#FFCB02" transform="matrix(1 0 0 1.00458 100 274.189)"/><path d="M267.351 58.8077 270.843 58.8077C274.68 58.8077 277.871 55.7897 277.871 52.125L277.871 6.68269C277.914 3.01799 274.723 0 270.886 0L267.394 0C263.557 0 260.366 3.01799 260.366 6.68269L260.366 52.125C260.366 55.7897 263.514 58.8077 267.351 58.8077" fill="#FFCB02" transform="matrix(1 0 0 1.00458 100 274.189)"/><path d="M194.747 94.808 182.114 94.808 182.114 71.5695C182.114 70.1467 180.95 68.9395 179.484 68.9395L168.878 68.9395C167.455 68.9395 166.248 70.1036 166.248 71.5695L166.248 106.319C166.248 107.742 167.412 108.949 168.878 108.949L194.747 108.949C196.169 108.949 197.377 107.785 197.377 106.319L197.377 97.438C197.377 95.9721 196.212 94.808 194.747 94.808Z" fill="#FFCB02" transform="matrix(1 0 0 1.00458 100 274.189)"/><path d="M226.867 70.7072C226.479 69.6725 225.53 68.9826 224.409 68.9826L214.019 68.9826C212.941 68.9826 211.949 69.6725 211.561 70.7072L198.886 105.457C198.584 106.276 198.713 107.139 199.187 107.828 199.662 108.518 200.481 108.949 201.343 108.949L211.992 108.949C213.113 108.949 214.148 108.216 214.493 107.096L215.484 103.948 222.555 103.948 223.461 107.052C223.806 108.173 224.797 108.949 225.961 108.949L236.955 108.949C237.818 108.949 238.594 108.518 239.111 107.828 239.585 107.139 239.715 106.233 239.413 105.457L226.867 70.7072ZM221.219 93.0403 217.037 93.0403 219.192 86.0989 221.219 93.0403Z" fill="#FFCB02" transform="matrix(1 0 0 1.00458 100 274.189)"/><path d="M275.758 88.5133C275.241 87.8666 274.637 87.263 274.034 86.7457 274.292 86.4439 274.508 86.1421 274.723 85.8403 275.758 84.3313 276.275 82.4773 276.275 80.3216 276.275 79.0713 276.06 77.7779 275.672 76.5276 275.241 75.1911 274.465 73.8976 273.43 72.7767 272.352 71.6126 270.843 70.6641 268.989 69.9743 267.265 69.3275 265.109 69.0257 262.651 69.0257L243.767 69.0257C242.345 69.0257 241.137 70.1898 241.137 71.6557L241.137 106.406C241.137 107.828 242.301 109.036 243.767 109.036L263.298 109.036C265.109 109.036 266.877 108.777 268.558 108.216 270.283 107.656 271.878 106.837 273.257 105.759 274.723 104.638 275.844 103.215 276.707 101.534 277.526 99.8524 277.957 97.9122 277.957 95.8427 278 92.8248 277.267 90.3672 275.758 88.5133ZM262.738 82.2618C262.738 83.4259 262.35 83.6845 262.177 83.7708 261.703 84.0726 260.97 84.245 259.978 84.245L255.236 84.245 255.236 80.7528 259.978 80.7528C260.97 80.7528 261.703 80.8821 262.22 81.1839 262.479 81.3133 262.738 81.572 262.738 82.2618ZM260.625 97.1793 255.279 97.1793 255.279 92.4367 261.056 92.4367C263.557 92.4367 263.902 93.6008 263.902 94.7218 263.902 96.1014 263.341 96.4463 263.169 96.5757 262.565 97.0068 261.703 97.1793 260.625 97.1793Z" fill="#FFCB02" transform="matrix(1 0 0 1.00458 100 274.189)"/></g></svg>