<svg width="281" height="144" xmlns="http://www.w3.org/2000/svg" xmlns:xlink="http://www.w3.org/1999/xlink" overflow="hidden"><defs><clipPath id="clip0"><rect x="168" y="491" width="281" height="144"/></clipPath></defs><g clip-path="url(#clip0)" transform="translate(-168 -491)"><path d="M40.6685 18.5147C40.7482 18.4881 40.8279 18.4615 40.9341 18.4084 40.7482 18.4881 40.5357 18.5678 40.3498 18.6475 40.456 18.5944 40.5623 18.5412 40.6685 18.5147" fill="#FFFFFF" transform="matrix(1.00357 0 0 1 168.051 491)"/><path d="M120.226 17.9568C120.332 17.9037 120.438 17.8771 120.545 17.824 120.624 17.7975 120.704 17.7709 120.784 17.7178 120.598 17.824 120.412 17.8771 120.226 17.9568" fill="#FFFFFF" transform="matrix(1.00357 0 0 1 168.051 491)"/><path d="M161.266 9.3503C161.266 5.55174 158.716 2.33758 155.236 1.22191 154.068 0.610957 152.766 0.23907 151.358 0.23907L86.2247 0.23907C86.2778 0.265634 86.3575 0.31876 86.4106 0.345324 94.0078 4.17045 100.649 9.6425 105.882 16.2833 105.961 16.3896 106.068 16.5224 106.147 16.6287 106.333 16.8677 106.519 17.1334 106.705 17.399L143.973 17.399 143.973 92.8124 102.694 92.8124C102.03 93.5562 101.339 94.2999 100.649 95.0172 93.8749 101.924 85.3481 107.13 75.8118 109.972L152.607 109.972C157.361 109.972 161.24 106.121 161.24 101.392L161.24 101.392C161.24 101.366 161.24 101.366 161.24 101.339 161.24 101.313 161.24 101.313 161.24 101.286L161.24 9.3503Z" fill="#FFFFFF" transform="matrix(1.00357 0 0 1 168.051 491)"/><path d="M79.9026 0C79.3448 0 78.7869 0.0531267 78.2291 0.15938 78.2291 0.15938 78.2026 0.15938 78.2026 0.15938 78.0166 0.212507 77.8041 0.23907 77.6181 0.292197 77.3791 0.371887 77.1134 0.425014 76.8744 0.504704 76.6619 0.584394 76.4494 0.664084 76.2369 0.770338 75.9712 0.903154 75.7322 1.03597 75.4665 1.16879 75.3071 1.27504 75.1212 1.38129 74.9618 1.48755 74.6165 1.72662 74.3243 1.96569 74.0055 2.25789 73.6602 2.57665 73.3149 2.92197 73.0227 3.29386 72.9696 3.37355 72.9164 3.45324 72.8367 3.53293 72.6508 3.772 72.4914 4.03763 72.332 4.30327 72.2789 4.38296 72.2258 4.46265 72.1727 4.5689 72.0133 4.94079 71.8539 5.31267 71.6945 5.68456L71.6945 5.68456 71.6945 5.68456C71.3758 6.50802 71.2164 7.41118 71.1633 8.3409 71.1633 8.47371 71.1367 8.57997 71.1367 8.71278 71.1367 9.77532 71.3492 10.8113 71.7211 11.741 72.5445 13.9458 74.218 15.7255 76.3697 16.6818 76.4228 16.7084 76.4759 16.7349 76.5291 16.7615 76.5025 16.7615 76.5025 16.7615 76.4759 16.7349 89.492 23.482 98.4438 37.0825 98.4438 52.7283 98.4438 75.0681 80.2745 93.264 57.9081 93.264 35.5683 93.264 17.3724 75.0946 17.3724 52.7283 17.3724 37.0028 26.3774 23.3492 39.4732 16.6287 39.4732 16.6287 39.4732 16.6287 39.4732 16.6287 39.2872 16.7084 39.1013 16.788 38.8888 16.8677 38.995 16.8412 39.1013 16.788 39.2075 16.7349 39.2872 16.7084 39.3669 16.6818 39.4466 16.6287 39.4466 16.6287 39.4466 16.6287 39.4466 16.6287 40.5357 16.124 41.492 15.4333 42.2889 14.5567 43.6967 13.016 44.5999 10.9707 44.5999 8.71278 44.5999 6.4549 43.7233 4.40952 42.2889 2.86884 40.7216 1.11566 38.4638 0 35.9137 0 34.7183 0 33.6027 0.23907 32.5667 0.664084L32.4073 0.770338C31.6901 1.0891 30.9994 1.51411 30.3885 2.01882L30.3885 2.01882C30.3885 2.01882 30.3885 2.01882 30.3885 2.01882 30.3885 2.01882 30.3619 2.01882 30.3619 2.04538 30.3619 2.04538 30.3619 2.04538 30.3885 2.01882 30.3885 2.01882 30.3885 2.01882 30.3885 2.01882L30.3885 2.01882C30.6807 1.77975 30.9729 1.56724 31.2651 1.38129 12.7239 10.9972 0 30.3619 0 52.7283 0 84.684 25.9258 110.61 57.8816 110.61 59.4754 110.61 61.016 110.53 62.5833 110.397 76.9009 109.255 89.731 102.906 99.2142 93.2374 109.441 82.798 115.763 68.5069 115.763 52.7283 115.763 39.3669 111.194 27.0946 103.597 17.2928 103.517 17.1865 103.438 17.0537 103.331 16.9474 98.0719 10.28 91.4045 4.78141 83.7277 0.956281 83.5418 0.876591 83.3558 0.770338 83.1699 0.664084 82.1605 0.23907 81.0448 0 79.9026 0" fill="#FFFFFF" transform="matrix(1.00357 0 0 1 168.051 491)"/><path d="M59.5551 0.451577 56.1815 0.451577C52.4892 0.451577 49.461 3.16104 49.461 6.4549L49.461 47.2562C49.461 50.5501 52.4892 53.2595 56.1815 53.2595L59.5551 53.2595C63.2474 53.2595 66.2756 50.5501 66.2756 47.2562L66.2756 6.4549C66.3022 3.16104 63.2739 0.451577 59.5551 0.451577" fill="#FFFFFF" transform="matrix(1.00357 0 0 1 168.051 491)"/><path d="M183.951 127.743C183.951 129.576 183.234 130.957 182.039 131.914 181.693 132.179 181.322 132.418 180.87 132.631L180.87 137.625 184.483 137.625 184.483 140.122 167.455 140.122 167.455 137.598 171.174 137.598 171.174 132.631C170.723 132.418 170.324 132.206 169.952 131.914 168.73 130.957 168.04 129.576 168.04 127.743 168.04 125.884 168.757 124.529 169.952 123.573 171.387 122.457 173.512 121.899 176.009 121.899 178.506 121.899 180.631 122.431 182.065 123.573 183.261 124.529 183.951 125.884 183.951 127.743M181.109 127.743C181.109 126.707 180.737 125.99 180.073 125.432 179.143 124.715 177.682 124.396 176.009 124.396 174.309 124.396 172.848 124.715 171.945 125.432 171.281 125.99 170.909 126.707 170.909 127.743 170.909 128.753 171.281 129.47 171.945 130.028 172.874 130.771 174.335 131.064 176.009 131.064 177.709 131.064 179.17 130.745 180.073 130.028 180.737 129.47 181.109 128.726 181.109 127.743M178.054 133.401C177.417 133.507 176.726 133.561 175.982 133.561 175.292 133.561 174.628 133.534 173.99 133.428L173.99 137.598 178.028 137.598 178.028 133.401Z" fill="#FFFFFF" transform="matrix(1.00357 0 0 1 168.051 491)"/><path d="M186.714 122.006 196.25 122.006 196.25 131.701 186.714 131.701 186.714 122.006ZM187.537 137.147C187.537 135.925 188.069 134.995 188.945 134.358 190.327 133.322 192.558 132.95 195.002 132.95 197.445 132.95 199.677 133.322 201.058 134.358 201.935 134.995 202.466 135.925 202.466 137.147 202.466 138.369 201.935 139.298 201.058 139.936 199.677 140.972 197.445 141.344 195.002 141.344 192.558 141.344 190.327 140.972 188.945 139.936 188.042 139.298 187.537 138.369 187.537 137.147M189.503 129.231 193.461 129.231 193.461 124.423 189.503 124.423 189.503 129.231ZM190.38 137.147C190.38 137.598 190.592 137.97 191.017 138.236 191.787 138.74 193.222 138.9 194.975 138.9 196.755 138.9 198.163 138.74 198.96 138.236 199.358 137.97 199.571 137.598 199.571 137.147 199.571 136.695 199.358 136.35 198.96 136.084 198.163 135.553 196.755 135.42 194.975 135.42 193.222 135.42 191.787 135.579 191.017 136.084 190.592 136.35 190.38 136.722 190.38 137.147M201.988 125.884 204.644 125.884 204.644 128.381 201.988 128.381 201.988 132.711 199.119 132.711 199.119 121.766 201.988 121.766 201.988 125.884Z" fill="#FFFFFF" transform="matrix(1.00357 0 0 1 168.051 491)"/><path d="M215.96 122.006 215.96 124.449 212.374 124.449 212.374 125.565C212.374 128.832 213.862 130.187 216.332 130.718L216.332 133.242C214.048 132.923 212.082 131.914 211.019 130.4 209.877 131.887 207.858 133.162 205.6 133.454L205.6 130.957C208.071 130.426 209.558 128.885 209.558 125.565L209.558 124.449 205.972 124.449 205.972 122.006 215.96 122.006ZM207.035 140.998 207.035 134.225 209.904 134.225 209.904 138.528 221.831 138.528 221.831 140.998 207.035 140.998ZM218.617 121.766 221.485 121.766 221.485 135.208 218.617 135.208 218.617 121.766Z" fill="#FFFFFF" transform="matrix(1.00357 0 0 1 168.051 491)"/><path d="M224.699 127.265C224.699 125.273 225.257 123.785 226.267 122.829 227.117 122.059 228.286 121.66 229.747 121.66 231.181 121.66 232.35 122.059 233.2 122.829 233.465 123.068 233.651 123.307 233.837 123.599L237.609 123.599 237.609 121.766 240.478 121.766 240.478 135.208 237.609 135.208 237.609 130.665 233.97 130.665C233.731 131.064 233.492 131.409 233.173 131.701 232.323 132.471 231.154 132.897 229.72 132.897 228.259 132.897 227.117 132.471 226.24 131.701 225.257 130.745 224.699 129.231 224.699 127.265M226.028 140.998 226.028 134.225 228.897 134.225 228.897 138.528 240.823 138.528 240.823 140.998 226.028 140.998ZM227.489 127.265C227.489 128.487 227.728 129.337 228.232 129.842 228.578 130.214 229.082 130.426 229.747 130.426 230.384 130.426 230.862 130.214 231.261 129.842 231.739 129.337 232.004 128.487 232.004 127.265 232.004 126.043 231.739 125.22 231.261 124.688 230.889 124.317 230.411 124.104 229.747 124.104 229.109 124.104 228.604 124.317 228.232 124.688 227.754 125.22 227.489 126.043 227.489 127.265M234.661 126.043C234.714 126.415 234.74 126.84 234.74 127.265 234.74 127.61 234.714 127.903 234.687 128.195L237.583 128.195 237.583 126.043 234.661 126.043Z" fill="#FFFFFF" transform="matrix(1.00357 0 0 1 168.051 491)"/><path d="M243.427 132.87 260.454 132.87 260.454 135.367 253.335 135.367 253.335 141.237 250.466 141.237 250.466 135.367 243.4 135.367 243.4 132.87ZM256.629 124.476 244.277 124.476 244.277 122.006 259.498 122.006 259.498 126.335C259.498 128.248 259.338 130.081 259.073 131.489L256.23 131.489C256.522 130.081 256.655 128.221 256.655 126.654L256.655 124.476Z" fill="#FFFFFF" transform="matrix(1.00357 0 0 1 168.051 491)"/><path d="M262.419 137.598 269.485 137.598 269.485 132.179 272.328 132.179 272.328 137.598 279.473 137.598 279.473 140.095 262.446 140.095 262.446 137.598ZM270.893 128.726C269.512 130.718 266.749 132.684 262.685 133.375L262.685 130.878C267.068 129.842 269.459 127.265 269.459 123.095L269.459 122.006 272.328 122.006 272.328 123.095C272.328 127.265 274.718 129.868 279.101 130.878L279.101 133.375C275.064 132.657 272.275 130.692 270.893 128.726" fill="#FFFFFF" transform="matrix(1.00357 0 0 1 168.051 491)"/><path d="M40.1904 120.438C33.6823 120.438 28.3962 125.724 28.3962 132.232 28.3962 138.74 33.6558 144 40.1904 144 46.725 144 51.9845 138.74 51.9845 132.232 51.9845 125.724 46.6984 120.438 40.1904 120.438" fill="#FFFFFF" transform="matrix(1.00357 0 0 1 168.051 491)"/><path d="M73.8462 120.438C67.3381 120.438 62.0786 125.724 62.0786 132.232 62.0786 138.74 67.3647 144 73.8462 144 80.3542 144 85.6403 138.74 85.6403 132.232 85.6403 125.724 80.3542 120.438 73.8462 120.438" fill="#FFFFFF" transform="matrix(1.00357 0 0 1 168.051 491)"/><path d="M149.499 120.438C142.991 120.438 137.704 125.724 137.704 132.232 137.704 138.74 142.964 144 149.499 144 156.007 144 161.293 138.74 161.293 132.232 161.293 125.724 156.007 120.438 149.499 120.438" fill="#FFFFFF" transform="matrix(1.00357 0 0 1 168.051 491)"/><path d="M190.273 17.6646 173.087 47.4156C171.36 50.4173 172.688 54.4549 176.062 56.4206L179.117 58.2003C182.49 60.1395 186.661 59.2894 188.387 56.2878L209.824 19.1787C209.983 18.9131 210.116 18.6209 210.222 18.3287 210.329 18.6209 210.462 18.9131 210.621 19.1787L232.058 56.2878C233.784 59.2894 237.955 60.166 241.328 58.2003L244.383 56.4206C247.757 54.4815 249.085 50.4438 247.358 47.4156L230.172 17.6646 244.038 17.6646C248.713 17.6646 252.511 13.8395 252.511 9.19092L252.511 8.47371C252.511 3.79856 248.686 0 244.038 0L176.168 0C171.493 0 167.695 3.82512 167.695 8.47371L167.695 9.19092C167.695 13.8661 171.52 17.6646 176.168 17.6646L190.273 17.6646Z" fill="#FFFFFF" transform="matrix(1.00357 0 0 1 168.051 491)"/><path d="M269.299 59.2363 272.832 59.2363C276.711 59.2363 279.898 56.2081 279.898 52.5158L279.898 6.72053C279.898 3.02822 276.711 0 272.832 0L269.299 0C265.421 0 262.234 3.02822 262.234 6.72053L262.234 52.4892C262.234 56.2081 265.421 59.2363 269.299 59.2363" fill="#FFFFFF" transform="matrix(1.00357 0 0 1 168.051 491)"/><path d="M196.41 95.6812 183.818 95.6812 183.818 72.518C183.818 71.0836 182.65 69.9148 181.215 69.9148L170.617 69.9148C169.182 69.9148 168.013 71.0836 168.013 72.518L168.013 107.157C168.013 108.591 169.182 109.76 170.617 109.76L196.41 109.76C197.844 109.76 199.013 108.591 199.013 107.157L199.013 98.2845C199.013 96.85 197.87 95.6812 196.41 95.6812Z" fill="#FFFFFF" transform="matrix(1.00357 0 0 1 168.051 491)"/><path d="M228.392 71.6414C228.02 70.6054 227.037 69.9148 225.948 69.9148L215.588 69.9148C214.499 69.9148 213.516 70.6054 213.144 71.6148L200.5 106.253C200.208 107.05 200.314 107.954 200.819 108.644 201.297 109.335 202.094 109.76 202.944 109.76L213.569 109.76C214.712 109.76 215.721 109.016 216.066 107.927L217.049 104.819 224.115 104.819 225.018 107.9C225.337 109.016 226.346 109.76 227.515 109.76L238.486 109.76C239.336 109.76 240.133 109.361 240.611 108.644 241.089 107.954 241.222 107.05 240.93 106.253L228.392 71.6414ZM222.76 93.9281 218.59 93.9281 220.742 86.995 222.76 93.9281Z" fill="#FFFFFF" transform="matrix(1.00357 0 0 1 168.051 491)"/><path d="M277.215 89.3857C276.684 88.7216 276.126 88.1372 275.489 87.6325 275.728 87.3403 275.967 87.0481 276.179 86.756 277.189 85.2684 277.72 83.409 277.72 81.2308 277.72 79.9557 277.507 78.6807 277.109 77.4322 276.684 76.104 275.914 74.829 274.878 73.6868 273.789 72.518 272.301 71.5617 270.468 70.8976 268.742 70.2601 266.617 69.9413 264.173 69.9413L245.366 69.9413C243.931 69.9413 242.763 71.1101 242.763 72.5445L242.763 107.183C242.763 108.618 243.931 109.786 245.366 109.786L264.863 109.786C266.67 109.786 268.423 109.521 270.123 108.989 271.849 108.458 273.443 107.635 274.825 106.546 276.259 105.43 277.428 103.996 278.251 102.322 279.075 100.649 279.5 98.736 279.5 96.6641 279.42 93.689 278.676 91.2452 277.215 89.3857ZM264.226 83.1433C264.226 84.2856 263.827 84.5778 263.695 84.6574 263.243 84.9762 262.499 85.1356 261.49 85.1356L256.788 85.1356 256.788 81.6292 261.49 81.6292C262.473 81.6292 263.243 81.762 263.721 82.0542 263.934 82.2136 264.226 82.4792 264.226 83.1433ZM262.101 98.0454 256.762 98.0454 256.762 93.3171 262.526 93.3171C265.023 93.3171 265.368 94.4593 265.368 95.6016 265.368 96.9563 264.81 97.3282 264.624 97.4344 264.04 97.8594 263.19 98.0454 262.101 98.0454Z" fill="#FFFFFF" transform="matrix(1.00357 0 0 1 168.051 491)"/></g></svg>