<svg width="130" height="130" viewBox="0 0 130 130" fill="none" xmlns="http://www.w3.org/2000/svg">
<rect width="130" height="130" rx="20" fill="#FFB200"/>
<rect x="1" y="1" width="128" height="128" rx="19" stroke="white" stroke-opacity="0.1" stroke-width="2"/>
<path d="M39.5158 52.1399H19.7798C18.6959 52.1738 17.8152 53.0206 17.7701 54.1045L17.3975 63.1144C17.3975 63.3853 17.6007 63.5999 17.8717 63.5999H27.7284C29.0832 63.5999 30.1671 64.7176 30.122 66.0725C30.0316 68.6919 29.9075 72.8581 29.9526 75.9631C29.9639 76.9905 30.8107 77.826 31.8381 77.826H36.8286C37.9576 77.826 38.8835 76.9115 38.8948 75.7824C38.9738 69.6742 39.5496 53.2802 39.5496 53.2802V52.1399H39.5158Z" fill="#FCDA26"/>
<path d="M63.134 52.1737L40.8689 52.1399C40.8689 52.1399 40.6318 53.8899 40.3608 61.2288C40.3156 62.5272 41.3431 63.5998 42.6415 63.5998H47.8804C47.8804 63.5998 47.5868 66.095 47.2255 75.2404C47.169 76.6518 48.2981 77.826 49.7094 77.826H53.4918C55.366 77.826 56.9128 76.3582 57.0032 74.484C57.2177 70.0919 57.6016 63.5998 57.6016 63.5998H61.9033C62.5017 63.5998 63.0098 63.1595 63.1001 62.5724L64.4098 53.6415C64.5227 52.8737 63.9243 52.1737 63.1452 52.1737H63.134Z" fill="white"/>
<path d="M40.8681 52.1399C40.8681 52.1399 40.5971 54.0931 40.3035 62.5385C40.2809 63.1143 40.7439 63.5998 41.331 63.5998H45.2827C46.6601 63.5998 47.7553 64.774 47.665 66.1515C47.5408 68.0144 47.3714 71.0742 47.1795 75.8727C47.1343 76.9453 47.9924 77.8373 49.065 77.8373H54.891C55.9749 77.8373 56.8781 77.0018 56.9459 75.9179C57.3636 69.6629 58.9104 52.185 58.9104 52.185L40.8681 52.1512V52.1399Z" fill="#FCDA26"/>
<path d="M67.2888 52.1738C66.5097 52.1738 65.8323 52.7384 65.6968 53.5061C65.042 57.1078 64.0597 64.6725 64.0258 65C63.9806 65.3613 63.2468 71.2324 63.2129 76.7309C63.2129 77.3406 63.6984 77.8487 64.3081 77.8487C66.3291 77.8712 70.1566 77.8487 71.6244 77.8261C71.9518 77.8261 72.2228 77.5551 72.2228 77.2164V70.8937L75.8584 76.5615C76.3552 77.3406 77.2132 77.8035 78.1391 77.8035H86.5167L84.1118 73.7953L79.4149 66.2758C79.4149 66.2758 84.8683 64.0967 84.3715 58.4401C83.7957 51.9593 77.5971 52.1174 77.5971 52.1174L67.2888 52.14V52.1738ZM72.3244 62.3241L72.7309 58.2369C72.7422 58.0788 72.8776 57.9546 73.0357 57.9546C73.9277 57.932 76.6374 58.0449 76.5471 59.9982C76.4568 61.9515 73.7357 62.5047 72.6857 62.6628C72.4825 62.6967 72.3018 62.5273 72.3131 62.3128L72.3244 62.3241Z" fill="white"/>
<path d="M84.0091 73.8857L83.7607 77.7358V77.86H90.8851C91.6867 77.86 92.3529 77.2277 92.3868 76.4261L93.5158 53.5626C93.5497 52.8739 93.0077 52.298 92.319 52.298H86.5269C85.8947 52.298 85.364 52.7948 85.3301 53.4158L84.0091 73.8744V73.8857Z" fill="white"/>
<path d="M112.61 59.9418C112.61 52.5916 106.038 52.4674 104.266 52.3093H97.8189C96.8479 52.3093 96.0575 53.0658 96.0124 54.0368L94.9849 76.6406C94.9511 77.3067 95.4817 77.86 96.1479 77.86H101.601C102.234 77.86 102.742 77.3632 102.764 76.7309L102.967 69.934V69.8775C104.221 69.4372 112.632 69.6404 112.621 59.9418H112.61ZM103.159 62.9677L103.363 58.4062C103.363 58.1579 103.577 57.9546 103.837 57.9546C104.751 57.9546 106.738 58.2482 106.738 60.6079C106.738 62.9677 104.661 63.3741 103.667 63.4531C103.385 63.4757 103.148 63.2386 103.159 62.9677Z" fill="white"/>
</svg>
