<svg width="80" height="80" viewBox="0 0 80 80" fill="none" xmlns="http://www.w3.org/2000/svg">
<circle cx="40" cy="40" r="40" fill="#FF0100"/>
<path fill-rule="evenodd" clip-rule="evenodd" d="M35.8627 56.1651C38.138 56.1984 40.4167 56.1984 42.6921 56.1684C45.1795 56.1351 47.6703 56.0651 50.1577 55.9651C50.4866 55.9517 50.831 55.9406 51.1872 55.9291C55.2696 55.7973 60.897 55.6156 62.5408 51.4189C63.9576 47.8042 63.9556 43.9607 63.9537 40.1466C63.9535 39.7653 63.9533 39.3842 63.9545 39.0037C63.9562 38.5156 63.9627 38.0228 63.9693 37.5272C64.0159 34.0061 64.0645 30.3409 62.3826 27.165C60.43 23.4739 55.5264 23.302 51.684 23.1673C51.3074 23.1541 50.941 23.1412 50.5885 23.1254C43.1701 22.7922 35.7381 22.7688 28.3163 23.0588C28.1503 23.0653 27.9815 23.0716 27.8103 23.078C23.5054 23.2383 17.6653 23.4559 16.6164 28.5782C15.8221 32.4644 15.775 36.3973 15.7413 40.3435C15.7386 40.7113 15.734 41.0811 15.7294 41.4521C15.6886 44.7632 15.6465 48.1813 16.9025 51.2923C17.8012 53.512 19.8275 54.8252 22.1264 55.3218C25.7655 56.1056 29.6571 56.1255 33.4328 56.1449C34.2494 56.1491 35.0606 56.1532 35.8627 56.1651ZM38.3258 34.3003C37.2606 33.6903 36.1962 33.0809 35.132 32.4714C35.035 32.6102 35.0416 32.766 35.048 32.9201C35.0497 32.9585 35.0513 32.9968 35.0513 33.0347V45.8899C35.0513 45.929 35.0494 45.9685 35.0475 46.0082C35.0404 46.1611 35.0331 46.3156 35.132 46.4532C35.132 46.4532 43.493 41.7304 47.4142 39.5073C44.369 37.7607 41.3441 36.0286 38.3258 34.3003Z" fill="white"/>
</svg>
