<svg width="160" height="173" viewBox="0 0 160 173" fill="none" xmlns="http://www.w3.org/2000/svg">
<g opacity="0.4" filter="url(#filter0_f_277_19425)">
<ellipse cx="80" cy="160" rx="72" ry="8" fill="#22150C"/>
</g>
<rect width="160" height="160" rx="25" fill="#FFB200"/>
<rect x="1" y="1" width="158" height="158" rx="24" stroke="white" stroke-opacity="0.1" stroke-width="2"/>
<path d="M48.6366 64.1722H24.3461C23.0121 64.2139 21.9282 65.2561 21.8726 66.5902L21.4141 77.6793C21.4141 78.0128 21.6642 78.2768 21.9977 78.2768H34.129C35.7966 78.2768 37.1306 79.6525 37.075 81.3201C36.9638 84.544 36.811 89.6716 36.8666 93.4931C36.8805 94.7576 37.9227 95.7859 39.1872 95.7859H45.3293C46.7189 95.7859 47.8584 94.6603 47.8723 93.2707C47.9696 85.7529 48.6783 65.5757 48.6783 65.5757V64.1722H48.6366Z" fill="#FCDA26"/>
<path d="M77.707 64.2138L50.3038 64.1721C50.3038 64.1721 50.012 66.326 49.6785 75.3585C49.6229 76.9566 50.8875 78.2767 52.4855 78.2767H58.9333C58.9333 78.2767 58.572 81.3477 58.1274 92.6036C58.0579 94.3406 59.4475 95.7858 61.1845 95.7858H65.8397C68.1465 95.7858 70.0502 93.9793 70.1614 91.6726C70.4254 86.267 70.8979 78.2767 70.8979 78.2767H76.1923C76.9288 78.2767 77.5542 77.7347 77.6653 77.0121L79.2773 66.0203C79.4162 65.0754 78.6797 64.2138 77.7209 64.2138H77.707Z" fill="white"/>
<path d="M50.3032 64.1721C50.3032 64.1721 49.9697 66.5761 49.6084 76.9705C49.5806 77.6792 50.1503 78.2767 50.8729 78.2767H55.7366C57.4319 78.2767 58.7798 79.7219 58.6687 81.4172C58.5158 83.7101 58.3074 87.4759 58.0711 93.3818C58.0156 94.7019 59.0717 95.7997 60.3918 95.7997H67.5622C68.8962 95.7997 70.0079 94.7714 70.0913 93.4374C70.6054 85.7389 72.5092 64.2277 72.5092 64.2277L50.3032 64.186V64.1721Z" fill="#FCDA26"/>
<path d="M82.8212 64.2139C81.8624 64.2139 81.0286 64.9088 80.8618 65.8537C80.0559 70.2866 78.8469 79.597 78.8052 79.9999C78.7496 80.4446 77.8464 87.6706 77.8047 94.438C77.8047 95.1884 78.4022 95.8137 79.1526 95.8137C81.64 95.8415 86.3508 95.8137 88.1573 95.7859C88.5603 95.7859 88.8938 95.4524 88.8938 95.0356V87.2537L93.3684 94.2296C93.9798 95.1884 95.0359 95.7582 96.1754 95.7582H106.486L103.526 90.825L97.7456 81.5702C97.7456 81.5702 104.457 78.8883 103.846 71.9263C103.137 63.9499 95.5084 64.1445 95.5084 64.1445L82.8212 64.1723V64.2139ZM89.0189 76.7066L89.5191 71.6762C89.533 71.4816 89.6998 71.3288 89.8943 71.3288C90.9921 71.301 94.3272 71.4399 94.216 73.844C94.1048 76.248 90.7559 76.9289 89.4635 77.1234C89.2134 77.1651 88.9911 76.9567 89.005 76.6927L89.0189 76.7066Z" fill="white"/>
<path d="M103.4 90.9362L103.095 95.6748V95.8277H111.863C112.85 95.8277 113.67 95.0495 113.711 94.0628L115.101 65.9232C115.143 65.0755 114.476 64.3668 113.628 64.3668H106.499C105.721 64.3668 105.068 64.9783 105.026 65.7425L103.4 90.9223V90.9362Z" fill="white"/>
<path d="M138.6 73.7745C138.6 64.7281 130.512 64.5753 128.331 64.3807H120.396C119.201 64.3807 118.228 65.3118 118.173 66.5068L116.908 94.3269C116.866 95.1468 117.52 95.8277 118.339 95.8277H125.051C125.829 95.8277 126.455 95.2162 126.483 94.4381L126.733 86.0726V86.0031C128.275 85.4612 138.628 85.7113 138.614 73.7745H138.6ZM126.969 77.4987L127.219 71.8846C127.219 71.5789 127.483 71.3288 127.803 71.3288C128.928 71.3288 131.374 71.6901 131.374 74.5944C131.374 77.4987 128.817 77.9989 127.594 78.0962C127.247 78.124 126.955 77.8322 126.969 77.4987Z" fill="white"/>
<defs>
<filter id="filter0_f_277_19425" x="3" y="147" width="154" height="26" filterUnits="userSpaceOnUse" color-interpolation-filters="sRGB">
<feFlood flood-opacity="0" result="BackgroundImageFix"/>
<feBlend mode="normal" in="SourceGraphic" in2="BackgroundImageFix" result="shape"/>
<feGaussianBlur stdDeviation="2.5" result="effect1_foregroundBlur_277_19425"/>
</filter>
</defs>
</svg>
